AmiriLatin-BoldItalic.ufo
<glyph name="exclam.latn" format="2">
	<unicode hex="0021"/>
	<advance width="263"/>
	<outline>
		<contour>
			<point x="58" y="64" type="curve" smooth="yes"/>
			<point x="58" y="103"/>
			<point x="91" y="136"/>
			<point x="131" y="136" type="curve" smooth="yes"/>
			<point x="172" y="136"/>
			<point x="204" y="101"/>
			<point x="204" y="62" type="curve" smooth="yes"/>
			<point x="204" y="23"/>
			<point x="172" y="-11"/>
			<point x="132" y="-11" type="curve" smooth="yes"/>
			<point x="91" y="-11"/>
			<point x="58" y="22"/>
		</contour>
		<contour>
			<point x="135" y="627" type="curve" smooth="yes"/>
			<point x="165" y="627"/>
			<point x="195" y="603"/>
			<point x="195" y="561" type="curve" smooth="yes"/>
			<point x="195" y="534"/>
			<point x="167" y="302"/>
			<point x="154" y="216" type="curve"/>
			<point x="150" y="203"/>
			<point x="147" y="194"/>
			<point x="135" y="190" type="curve"/>
			<point x="130" y="190"/>
			<point x="118" y="197"/>
			<point x="112" y="207" type="curve"/>
			<point x="101" y="272"/>
			<point x="70" y="512"/>
			<point x="70" y="562" type="curve" smooth="yes"/>
			<point x="70" y="603"/>
			<point x="100" y="627"/>
		</contour>
	</outline>
</glyph>
<glyph name="quotedbl" format="2">
	<unicode hex="0022"/>
	<advance width="323"/>
	<outline>
		<contour>
			<point x="252" y="684" type="curve" smooth="yes"/>
			<point x="266" y="684"/>
			<point x="273" y="680"/>
			<point x="282" y="668" type="curve"/>
			<point x="282" y="635"/>
			<point x="273" y="504"/>
			<point x="266" y="443" type="curve"/>
			<point x="262" y="436"/>
			<point x="251" y="426"/>
			<point x="242" y="421" type="curve"/>
			<point x="238" y="421"/>
			<point x="234" y="424"/>
			<point x="232" y="429" type="curve"/>
			<point x="208" y="512"/>
			<point x="191" y="571"/>
			<point x="191" y="603" type="curve" smooth="yes"/>
			<point x="191" y="635"/>
			<point x="215" y="684"/>
		</contour>
		<contour>
			<point x="96" y="684" type="curve" smooth="yes"/>
			<point x="110" y="684"/>
			<point x="117" y="680"/>
			<point x="126" y="668" type="curve"/>
			<point x="126" y="635"/>
			<point x="116" y="504"/>
			<point x="109" y="443" type="curve"/>
			<point x="105" y="436"/>
			<point x="95" y="426"/>
			<point x="86" y="421" type="curve"/>
			<point x="82" y="421"/>
			<point x="78" y="424"/>
			<point x="76" y="429" type="curve"/>
			<point x="52" y="512"/>
			<point x="35" y="571"/>
			<point x="35" y="603" type="curve" smooth="yes"/>
			<point x="35" y="635"/>
			<point x="59" y="684"/>
		</contour>
	</outline>
</glyph>
<glyph name="ampersand" format="2">
  <advance width="790"/>
  <unicode hex="0026"/>
  <outline>
    <contour>
      <point x="438" y="523" type="curve" smooth="yes"/>
      <point x="484" y="523"/>
      <point x="526" y="491"/>
      <point x="526" y="445" type="curve" smooth="yes"/>
      <point x="526" y="280"/>
      <point x="221" y="237"/>
      <point x="166" y="222" type="curve" smooth="yes"/>
      <point x="99" y="203"/>
      <point x="51" y="191"/>
      <point x="51" y="151" type="curve" smooth="yes"/>
      <point x="51" y="134"/>
      <point x="58" y="127"/>
      <point x="71" y="115" type="curve" smooth="yes"/>
      <point x="83" y="104"/>
      <point x="91" y="93"/>
      <point x="91" y="77" type="curve" smooth="yes"/>
      <point x="91" y="45"/>
      <point x="67" y="24"/>
      <point x="38" y="24" type="curve" smooth="yes"/>
      <point x="25" y="24"/>
      <point x="17" y="26"/>
      <point x="7" y="29" type="curve"/>
      <point x="-5" y="49"/>
      <point x="-10" y="78"/>
      <point x="-10" y="96" type="curve" smooth="yes"/>
      <point x="-10" y="166"/>
      <point x="35" y="220"/>
      <point x="113" y="246" type="curve" smooth="yes"/>
      <point x="188" y="271"/>
      <point x="382" y="293"/>
      <point x="382" y="427" type="curve" smooth="yes"/>
      <point x="382" y="455"/>
      <point x="365" y="472"/>
      <point x="346" y="472" type="curve" smooth="yes"/>
      <point x="281" y="472"/>
      <point x="244" y="346"/>
      <point x="244" y="242" type="curve" smooth="yes"/>
      <point x="244" y="124"/>
      <point x="312" y="44"/>
      <point x="414" y="44" type="curve" smooth="yes"/>
      <point x="505" y="44"/>
      <point x="599" y="97"/>
      <point x="599" y="188" type="curve" smooth="yes"/>
      <point x="599" y="205"/>
      <point x="593" y="223"/>
      <point x="587" y="229" type="curve"/>
      <point x="534" y="209"/>
      <point x="472" y="189"/>
      <point x="472" y="146" type="curve" smooth="yes"/>
      <point x="472" y="131"/>
      <point x="473" y="128"/>
      <point x="474" y="118" type="curve"/>
      <point x="470" y="116"/>
      <point x="457" y="122"/>
      <point x="450" y="128" type="curve"/>
      <point x="447" y="133"/>
      <point x="437" y="146"/>
      <point x="437" y="172" type="curve" smooth="yes"/>
      <point x="437" y="245"/>
      <point x="477" y="260"/>
      <point x="562" y="311" type="curve" smooth="yes"/>
      <point x="628" y="351"/>
      <point x="711" y="407"/>
      <point x="711" y="533" type="curve"/>
      <point x="720" y="534"/>
      <point x="729" y="530"/>
      <point x="735" y="527" type="curve"/>
      <point x="758" y="509"/>
      <point x="785" y="467"/>
      <point x="785" y="421" type="curve" smooth="yes"/>
      <point x="785" y="338"/>
      <point x="720" y="287"/>
      <point x="652" y="254" type="curve"/>
      <point x="656" y="245"/>
      <point x="660" y="232"/>
      <point x="660" y="217" type="curve" smooth="yes"/>
      <point x="660" y="84"/>
      <point x="522" y="-5"/>
      <point x="384" y="-5" type="curve" smooth="yes"/>
      <point x="258" y="-5"/>
      <point x="118" y="68"/>
      <point x="118" y="209" type="curve" smooth="yes"/>
      <point x="118" y="355"/>
      <point x="263" y="523"/>
    </contour>
  </outline>
</glyph>
<glyph name="quotesingle" format="2">
	<unicode hex="0027"/>
	<advance width="176"/>
	<outline>
		<contour>
			<point x="104" y="694" type="curve" smooth="yes"/>
			<point x="120" y="694"/>
			<point x="134" y="688"/>
			<point x="141" y="673" type="curve"/>
			<point x="136" y="611"/>
			<point x="130" y="526"/>
			<point x="118" y="459" type="curve"/>
			<point x="114" y="453"/>
			<point x="104" y="444"/>
			<point x="93" y="440" type="curve"/>
			<point x="89" y="440"/>
			<point x="84" y="442"/>
			<point x="81" y="446" type="curve"/>
			<point x="60" y="503"/>
			<point x="32" y="566"/>
			<point x="32" y="612" type="curve" smooth="yes"/>
			<point x="32" y="655"/>
			<point x="63" y="694"/>
		</contour>
	</outline>
</glyph>
<glyph name="asterisk" format="2">
  <advance width="430"/>
  <unicode hex="002A"/>
  <outline>
    <contour>
      <point x="281" y="604" type="curve" smooth="yes"/>
      <point x="302" y="627"/>
      <point x="333" y="625"/>
      <point x="348" y="611" type="curve" smooth="yes"/>
      <point x="364" y="595"/>
      <point x="368" y="567"/>
      <point x="347" y="544" type="curve" smooth="yes"/>
      <point x="316" y="509"/>
      <point x="279" y="520"/>
      <point x="252" y="494" type="curve"/>
      <point x="252" y="494"/>
      <point x="246" y="486"/>
      <point x="246" y="481" type="curve" smooth="yes"/>
      <point x="246" y="477"/>
      <point x="248" y="476"/>
      <point x="253" y="474" type="curve" smooth="yes"/>
      <point x="287" y="458"/>
      <point x="314" y="474"/>
      <point x="357" y="455" type="curve" smooth="yes"/>
      <point x="385" y="443"/>
      <point x="394" y="412"/>
      <point x="385" y="393" type="curve" smooth="yes"/>
      <point x="375" y="373"/>
      <point x="349" y="361"/>
      <point x="321" y="373" type="curve" smooth="yes"/>
      <point x="278" y="392"/>
      <point x="277" y="429"/>
      <point x="244" y="447" type="curve"/>
      <point x="244" y="447"/>
      <point x="234" y="453"/>
      <point x="230" y="450" type="curve" smooth="yes"/>
      <point x="228" y="449"/>
      <point x="227" y="448"/>
      <point x="226" y="442" type="curve" smooth="yes"/>
      <point x="222" y="405"/>
      <point x="245" y="386"/>
      <point x="240" y="339" type="curve" smooth="yes"/>
      <point x="237" y="309"/>
      <point x="210" y="291"/>
      <point x="190" y="293" type="curve" smooth="yes"/>
      <point x="169" y="297"/>
      <point x="148" y="318"/>
      <point x="151" y="348" type="curve" smooth="yes"/>
      <point x="156" y="395"/>
      <point x="191" y="407"/>
      <point x="198" y="444" type="curve"/>
      <point x="198" y="444"/>
      <point x="199" y="454"/>
      <point x="196" y="458" type="curve" smooth="yes"/>
      <point x="195" y="460"/>
      <point x="193" y="460"/>
      <point x="187" y="459" type="curve" smooth="yes"/>
      <point x="151" y="451"/>
      <point x="138" y="425"/>
      <point x="92" y="414" type="curve" smooth="yes"/>
      <point x="62" y="407"/>
      <point x="38" y="427"/>
      <point x="34" y="447" type="curve" smooth="yes"/>
      <point x="31" y="468"/>
      <point x="44" y="494"/>
      <point x="74" y="501" type="curve" smooth="yes"/>
      <point x="120" y="512"/>
      <point x="142" y="481"/>
      <point x="180" y="486" type="curve"/>
      <point x="180" y="486"/>
      <point x="192" y="487"/>
      <point x="193" y="492" type="curve" smooth="yes"/>
      <point x="194" y="495"/>
      <point x="192" y="498"/>
      <point x="189" y="503" type="curve" smooth="yes"/>
      <point x="170" y="535"/>
      <point x="141" y="538"/>
      <point x="117" y="579" type="curve" smooth="yes"/>
      <point x="101" y="605"/>
      <point x="112" y="636"/>
      <point x="130" y="646" type="curve" smooth="yes"/>
      <point x="150" y="656"/>
      <point x="178" y="650"/>
      <point x="194" y="624" type="curve" smooth="yes"/>
      <point x="218" y="583"/>
      <point x="195" y="553"/>
      <point x="212" y="519" type="curve"/>
      <point x="212" y="519"/>
      <point x="217" y="509"/>
      <point x="222" y="508" type="curve" smooth="yes"/>
      <point x="224" y="508"/>
      <point x="227" y="508"/>
      <point x="231" y="512" type="curve" smooth="yes"/>
      <point x="256" y="539"/>
      <point x="250" y="569"/>
    </contour>
  </outline>
</glyph>
<glyph name="comma" format="2">
  <advance width="218"/>
  <unicode hex="002C"/>
  <outline>
    <contour>
      <point x="116" y="136" type="curve" smooth="yes"/>
      <point x="133" y="136"/>
      <point x="148" y="128"/>
      <point x="159" y="120" type="curve"/>
      <point x="167" y="105"/>
      <point x="173" y="80"/>
      <point x="173" y="57" type="curve" smooth="yes"/>
      <point x="173" y="-36"/>
      <point x="107" y="-119"/>
      <point x="39" y="-153" type="curve"/>
      <point x="28" y="-150"/>
      <point x="19" y="-136"/>
      <point x="19" y="-130" type="curve"/>
      <point x="38" y="-118"/>
      <point x="88" y="-74"/>
      <point x="88" y="-26" type="curve" smooth="yes"/>
      <point x="88" y="6"/>
      <point x="41" y="3"/>
      <point x="41" y="66" type="curve" smooth="yes"/>
      <point x="41" y="82"/>
      <point x="55" y="136"/>
    </contour>
  </outline>
</glyph>
<glyph name="zero" format="2">
  <advance width="532"/>
  <unicode hex="0030"/>
  <outline>
    <contour>
      <point x="270" y="569" type="curve" smooth="yes"/>
      <point x="207" y="569"/>
      <point x="178" y="448"/>
      <point x="178" y="295" type="curve" smooth="yes"/>
      <point x="178" y="142"/>
      <point x="220" y="38"/>
      <point x="270" y="38" type="curve" smooth="yes"/>
      <point x="333" y="38"/>
      <point x="354" y="167"/>
      <point x="354" y="320" type="curve" smooth="yes"/>
      <point x="354" y="473"/>
      <point x="324" y="569"/>
    </contour>
    <contour>
      <point x="269" y="610" type="curve" smooth="yes"/>
      <point x="386" y="610"/>
      <point x="481" y="499"/>
      <point x="481" y="304" type="curve" smooth="yes"/>
      <point x="481" y="134"/>
      <point x="386" y="-3"/>
      <point x="269" y="-3" type="curve" smooth="yes"/>
      <point x="152" y="-3"/>
      <point x="51" y="109"/>
      <point x="51" y="304" type="curve" smooth="yes"/>
      <point x="51" y="474"/>
      <point x="152" y="610"/>
    </contour>
  </outline>
</glyph>
<glyph name="one" format="2">
  <advance width="532"/>
  <unicode hex="0031"/>
  <outline>
    <contour>
      <point x="218" y="142" type="curve" smooth="yes"/>
      <point x="218" y="471" type="line" smooth="yes"/>
      <point x="218" y="514"/>
      <point x="213" y="522"/>
      <point x="197" y="522" type="curve" smooth="yes"/>
      <point x="188" y="522"/>
      <point x="148" y="512"/>
      <point x="127" y="500" type="curve"/>
      <point x="119" y="504"/>
      <point x="114" y="513"/>
      <point x="114" y="519" type="curve" smooth="yes"/>
      <point x="114" y="521"/>
      <point x="113" y="529"/>
      <point x="116" y="530" type="curve" smooth="yes"/>
      <point x="228" y="578"/>
      <point x="337" y="628"/>
      <point x="340" y="628" type="curve" smooth="yes"/>
      <point x="342" y="628" type="line" smooth="yes"/>
      <point x="348" y="628"/>
      <point x="353" y="614"/>
      <point x="354" y="609" type="curve"/>
      <point x="354" y="609"/>
      <point x="345" y="581"/>
      <point x="345" y="518" type="curve" smooth="yes"/>
      <point x="345" y="142" type="line" smooth="yes"/>
      <point x="345" y="100"/>
      <point x="345" y="70"/>
      <point x="353" y="50" type="curve" smooth="yes"/>
      <point x="358" y="37"/>
      <point x="402" y="33"/>
      <point x="415" y="32" type="curve"/>
      <point x="420" y="25"/>
      <point x="419" y="2"/>
      <point x="415" y="-4" type="curve"/>
      <point x="377" y="0"/>
      <point x="322" y="3"/>
      <point x="281" y="3" type="curve" smooth="yes"/>
      <point x="240" y="3"/>
      <point x="185" y="0"/>
      <point x="147" y="-4" type="curve"/>
      <point x="143" y="2"/>
      <point x="142" y="25"/>
      <point x="147" y="32" type="curve"/>
      <point x="160" y="33"/>
      <point x="205" y="37"/>
      <point x="210" y="50" type="curve" smooth="yes"/>
      <point x="218" y="70"/>
      <point x="218" y="100"/>
    </contour>
  </outline>
</glyph>
<glyph name="three" format="2">
	<unicode hex="0033"/>
	<advance width="532"/>
	<outline>
		<contour>
			<point x="281" y="627" type="curve" smooth="yes"/>
			<point x="328" y="627"/>
			<point x="429" y="600"/>
			<point x="429" y="502" type="curve" smooth="yes"/>
			<point x="429" y="420"/>
			<point x="346" y="373"/>
			<point x="322" y="363" type="curve"/>
			<point x="353" y="361"/>
			<point x="468" y="332"/>
			<point x="468" y="215" type="curve" smooth="yes"/>
			<point x="468" y="77"/>
			<point x="332" y="-6"/>
			<point x="207" y="-6" type="curve" smooth="yes"/>
			<point x="144" y="-6"/>
			<point x="96" y="14"/>
			<point x="76" y="30" type="curve"/>
			<point x="69" y="39"/>
			<point x="64" y="62"/>
			<point x="64" y="72" type="curve" smooth="yes"/>
			<point x="64" y="95"/>
			<point x="82" y="124"/>
			<point x="115" y="124" type="curve" smooth="yes"/>
			<point x="141" y="124"/>
			<point x="162" y="97"/>
			<point x="178" y="78" type="curve" smooth="yes"/>
			<point x="196" y="57"/>
			<point x="221" y="35"/>
			<point x="246" y="35" type="curve" smooth="yes"/>
			<point x="307" y="35"/>
			<point x="338" y="86"/>
			<point x="338" y="174" type="curve" smooth="yes"/>
			<point x="338" y="247"/>
			<point x="297" y="314"/>
			<point x="232" y="314" type="curve" smooth="yes"/>
			<point x="226" y="314"/>
			<point x="203" y="313"/>
			<point x="178" y="306" type="curve"/>
			<point x="174" y="311"/>
			<point x="170" y="321"/>
			<point x="170" y="329" type="curve" smooth="yes"/>
			<point x="170" y="333"/>
			<point x="169" y="335"/>
			<point x="170" y="338" type="curve"/>
			<point x="226" y="348"/>
			<point x="314" y="378"/>
			<point x="314" y="447" type="curve" smooth="yes"/>
			<point x="314" y="507"/>
			<point x="282" y="555"/>
			<point x="223" y="555" type="curve" smooth="yes"/>
			<point x="170" y="555"/>
			<point x="122" y="512"/>
			<point x="115" y="504" type="curve"/>
			<point x="108" y="506"/>
			<point x="104" y="522"/>
			<point x="104" y="531" type="curve"/>
			<point x="140" y="579"/>
			<point x="203" y="627"/>
		</contour>
	</outline>
</glyph>
<glyph name="seven" format="2">
  <advance width="532"/>
  <unicode hex="0037"/>
  <outline>
    <contour>
      <point x="381" y="622" type="curve" smooth="yes"/>
      <point x="415" y="622"/>
      <point x="463" y="626"/>
      <point x="469" y="626" type="curve" smooth="yes"/>
      <point x="475" y="626"/>
      <point x="476" y="616"/>
      <point x="476" y="611" type="curve" smooth="yes"/>
      <point x="476" y="602"/>
      <point x="465" y="584"/>
      <point x="449" y="552" type="curve" smooth="yes"/>
      <point x="184" y="-8" type="line"/>
      <point x="180" y="-11"/>
      <point x="169" y="-11"/>
      <point x="167" y="-11" type="curve" smooth="yes"/>
      <point x="160" y="-11"/>
      <point x="124" y="-6"/>
      <point x="124" y="13" type="curve"/>
      <point x="165" y="72"/>
      <point x="306" y="335"/>
      <point x="395" y="523" type="curve"/>
      <point x="169" y="523" type="line" smooth="yes"/>
      <point x="120" y="523"/>
      <point x="105" y="478"/>
      <point x="92" y="441" type="curve" smooth="yes"/>
      <point x="91" y="438"/>
      <point x="90" y="437"/>
      <point x="80" y="436" type="curve" smooth="yes"/>
      <point x="70" y="435"/>
      <point x="61" y="439"/>
      <point x="57" y="443" type="curve"/>
      <point x="70" y="491"/>
      <point x="93" y="591"/>
      <point x="100" y="621" type="curve"/>
      <point x="116" y="621"/>
      <point x="381" y="622"/>
    </contour>
  </outline>
</glyph>
<glyph name="less" format="2">
	<unicode hex="003C"/>
	<advance width="483"/>
	<outline>
		<contour>
			<point x="434" y="44" type="curve" smooth="yes"/>
			<point x="434" y="37"/>
			<point x="424" y="-15"/>
			<point x="418" y="-15" type="curve" smooth="yes"/>
			<point x="417" y="-15"/>
			<point x="415" y="-14"/>
			<point x="413" y="-13" type="curve" smooth="yes"/>
			<point x="47" y="173" type="line" smooth="yes"/>
			<point x="32" y="181"/>
			<point x="29" y="195"/>
			<point x="29" y="212" type="curve" smooth="yes"/>
			<point x="29" y="223"/>
			<point x="37" y="230"/>
			<point x="47" y="235" type="curve" smooth="yes"/>
			<point x="411" y="418" type="line" smooth="yes"/>
			<point x="413" y="419"/>
			<point x="415" y="420"/>
			<point x="416" y="420" type="curve" smooth="yes"/>
			<point x="419" y="420"/>
			<point x="426" y="400"/>
			<point x="433" y="364" type="curve" smooth="yes"/>
			<point x="434" y="358"/>
			<point x="430" y="355"/>
			<point x="430" y="355" type="curve"/>
			<point x="119" y="204" type="line"/>
			<point x="431" y="50" type="line"/>
			<point x="431" y="50"/>
			<point x="434" y="49"/>
		</contour>
	</outline>
</glyph>
<glyph name="greater" format="2">
  <advance width="483"/>
  <unicode hex="003E"/>
  <outline>
    <contour>
      <point x="50" y="44" type="curve" smooth="yes"/>
      <point x="50" y="49"/>
      <point x="53" y="50"/>
      <point x="53" y="50" type="curve"/>
      <point x="364" y="204" type="line"/>
      <point x="54" y="355" type="line"/>
      <point x="54" y="355"/>
      <point x="50" y="358"/>
      <point x="51" y="364" type="curve" smooth="yes"/>
      <point x="58" y="400"/>
      <point x="64" y="420"/>
      <point x="67" y="420" type="curve" smooth="yes"/>
      <point x="68" y="420"/>
      <point x="70" y="419"/>
      <point x="72" y="418" type="curve" smooth="yes"/>
      <point x="437" y="235" type="line" smooth="yes"/>
      <point x="447" y="230"/>
      <point x="454" y="223"/>
      <point x="454" y="212" type="curve" smooth="yes"/>
      <point x="454" y="195"/>
      <point x="452" y="181"/>
      <point x="437" y="173" type="curve" smooth="yes"/>
      <point x="70" y="-13" type="line" smooth="yes"/>
      <point x="68" y="-14"/>
      <point x="66" y="-15"/>
      <point x="65" y="-15" type="curve" smooth="yes"/>
      <point x="59" y="-15"/>
      <point x="50" y="37"/>
    </contour>
  </outline>
</glyph>
<glyph name="question" format="2">
	<unicode hex="003F"/>
	<advance width="389"/>
	<outline>
		<contour>
			<point x="65" y="64" type="curve" smooth="yes"/>
			<point x="65" y="105"/>
			<point x="99" y="136"/>
			<point x="136" y="136" type="curve" smooth="yes"/>
			<point x="177" y="136"/>
			<point x="209" y="104"/>
			<point x="209" y="64" type="curve" smooth="yes"/>
			<point x="209" y="24"/>
			<point x="179" y="-11"/>
			<point x="140" y="-11" type="curve" smooth="yes"/>
			<point x="104" y="-11"/>
			<point x="65" y="20"/>
		</contour>
		<contour>
			<point x="113" y="506" type="curve" smooth="yes"/>
			<point x="76" y="506"/>
			<point x="53" y="538"/>
			<point x="53" y="570" type="curve" smooth="yes"/>
			<point x="53" y="587"/>
			<point x="60" y="609"/>
			<point x="67" y="615" type="curve"/>
			<point x="81" y="623"/>
			<point x="107" y="632"/>
			<point x="155" y="632" type="curve" smooth="yes"/>
			<point x="199" y="632"/>
			<point x="356" y="596"/>
			<point x="356" y="460" type="curve" smooth="yes"/>
			<point x="356" y="374"/>
			<point x="285" y="341"/>
			<point x="233" y="309" type="curve" smooth="yes"/>
			<point x="207" y="292"/>
			<point x="170" y="274"/>
			<point x="153" y="250" type="curve" smooth="yes"/>
			<point x="146" y="240"/>
			<point x="148" y="219"/>
			<point x="148" y="209" type="curve"/>
			<point x="146" y="203"/>
			<point x="139" y="191"/>
			<point x="134" y="191" type="curve" smooth="yes"/>
			<point x="126" y="191"/>
			<point x="115" y="199"/>
			<point x="111" y="203" type="curve"/>
			<point x="104" y="219"/>
			<point x="92" y="262"/>
			<point x="92" y="301" type="curve" smooth="yes"/>
			<point x="92" y="358"/>
			<point x="135" y="389"/>
			<point x="170" y="412" type="curve" smooth="yes"/>
			<point x="219" y="444"/>
			<point x="273" y="487"/>
			<point x="273" y="520" type="curve" smooth="yes"/>
			<point x="273" y="541"/>
			<point x="256" y="566"/>
			<point x="221" y="566" type="curve" smooth="yes"/>
			<point x="186" y="566"/>
			<point x="154" y="506"/>
		</contour>
	</outline>
</glyph>
<glyph name="A" format="2">
  <advance width="605"/>
  <unicode hex="0041"/>
  <outline>
    <contour>
      <point x="60" y="131" type="curve" smooth="yes"/>
      <point x="347" y="609" type="line" smooth="yes"/>
      <point x="355" y="622"/>
      <point x="377" y="646"/>
      <point x="387" y="646" type="curve" smooth="yes"/>
      <point x="395" y="646"/>
      <point x="404" y="643"/>
      <point x="405" y="640" type="curve"/>
      <point x="495" y="145" type="line" smooth="yes"/>
      <point x="501" y="115"/>
      <point x="503" y="95"/>
      <point x="507" y="74" type="curve" smooth="yes"/>
      <point x="515" y="34"/>
      <point x="564" y="32"/>
      <point x="571" y="32" type="curve"/>
      <point x="574" y="23"/>
      <point x="569" y="0"/>
      <point x="565" y="-4" type="curve"/>
      <point x="529" y="-2"/>
      <point x="485" y="4"/>
      <point x="445" y="4" type="curve" smooth="yes"/>
      <point x="403" y="4"/>
      <point x="339" y="-2"/>
      <point x="306" y="-4" type="curve"/>
      <point x="302" y="1"/>
      <point x="309" y="32"/>
      <point x="314" y="32" type="curve"/>
      <point x="330" y="32"/>
      <point x="355" y="38"/>
      <point x="370" y="50" type="curve" smooth="yes"/>
      <point x="377" y="55"/>
      <point x="381" y="59"/>
      <point x="382" y="66" type="curve" smooth="yes"/>
      <point x="384" y="75"/>
      <point x="356" y="215"/>
      <point x="356" y="215" type="curve"/>
      <point x="356" y="215"/>
      <point x="354" y="219"/>
      <point x="351" y="219" type="curve" smooth="yes"/>
      <point x="317" y="221"/>
      <point x="286" y="220"/>
      <point x="264" y="220" type="curve" smooth="yes"/>
      <point x="227" y="220"/>
      <point x="201" y="220"/>
      <point x="169" y="219" type="curve" smooth="yes"/>
      <point x="166" y="219"/>
      <point x="163" y="216"/>
      <point x="162" y="214" type="curve"/>
      <point x="162" y="214"/>
      <point x="129" y="159"/>
      <point x="113" y="132" type="curve" smooth="yes"/>
      <point x="99" y="108"/>
      <point x="81" y="72"/>
      <point x="80" y="65" type="curve" smooth="yes"/>
      <point x="75" y="40"/>
      <point x="137" y="32"/>
      <point x="144" y="32" type="curve"/>
      <point x="148" y="25"/>
      <point x="141" y="0"/>
      <point x="137" y="-4" type="curve"/>
      <point x="106" y="0"/>
      <point x="80" y="4"/>
      <point x="40" y="4" type="curve" smooth="yes"/>
      <point x="-2" y="4"/>
      <point x="-27" y="0"/>
      <point x="-59" y="-4" type="curve"/>
      <point x="-62" y="0"/>
      <point x="-60" y="20"/>
      <point x="-54" y="31" type="curve"/>
      <point x="-43" y="31"/>
      <point x="3" y="46"/>
      <point x="15" y="62" type="curve" smooth="yes"/>
      <point x="36" y="89"/>
      <point x="43" y="104"/>
    </contour>
    <contour>
      <point x="308" y="465" type="line"/>
      <point x="193" y="273" type="line"/>
      <point x="193" y="273"/>
      <point x="193" y="270"/>
      <point x="195" y="270" type="curve" smooth="yes"/>
      <point x="213" y="268"/>
      <point x="248" y="267"/>
      <point x="269" y="267" type="curve" smooth="yes"/>
      <point x="297" y="267"/>
      <point x="314" y="267"/>
      <point x="342" y="269" type="curve" smooth="yes"/>
      <point x="344" y="269"/>
      <point x="346" y="273"/>
      <point x="346" y="273" type="curve"/>
    </contour>
  </outline>
</glyph>
<glyph name="B" format="2">
  <advance width="575"/>
  <unicode hex="0042"/>
  <outline>
    <contour>
      <point x="256" y="362" type="line"/>
      <point x="303" y="362" type="line" smooth="yes"/>
      <point x="348" y="362"/>
      <point x="387" y="403"/>
      <point x="402" y="476" type="curve" smooth="yes"/>
      <point x="420" y="569"/>
      <point x="399" y="605"/>
      <point x="353" y="605" type="curve" smooth="yes"/>
      <point x="332" y="605"/>
      <point x="312" y="605"/>
      <point x="305" y="594" type="curve" smooth="yes"/>
      <point x="298" y="582"/>
      <point x="295" y="562"/>
      <point x="289" y="534" type="curve" smooth="yes"/>
    </contour>
    <contour>
      <point x="248" y="324" type="line"/>
      <point x="206" y="106" type="line" smooth="yes"/>
      <point x="205" y="100"/>
      <point x="197" y="62"/>
      <point x="202" y="50" type="curve" smooth="yes"/>
      <point x="207" y="39"/>
      <point x="234" y="38"/>
      <point x="257" y="38" type="curve" smooth="yes"/>
      <point x="299" y="38"/>
      <point x="359" y="71"/>
      <point x="379" y="172" type="curve" smooth="yes"/>
      <point x="394" y="245"/>
      <point x="381" y="324"/>
      <point x="295" y="324" type="curve" smooth="yes"/>
    </contour>
    <contour>
      <point x="387" y="645" type="curve" smooth="yes"/>
      <point x="471" y="645"/>
      <point x="562" y="603"/>
      <point x="540" y="490" type="curve" smooth="yes"/>
      <point x="524" y="412"/>
      <point x="442" y="367"/>
      <point x="416" y="357" type="curve" smooth="yes"/>
      <point x="408" y="354"/>
      <point x="409" y="352"/>
      <point x="410" y="352" type="curve" smooth="yes"/>
      <point x="454" y="346"/>
      <point x="544" y="290"/>
      <point x="524" y="188" type="curve" smooth="yes"/>
      <point x="511" y="124"/>
      <point x="461" y="65"/>
      <point x="398" y="29" type="curve" smooth="yes"/>
      <point x="337" y="-5"/>
      <point x="270" y="-4"/>
      <point x="203" y="-3" type="curve" smooth="yes"/>
      <point x="165" y="-3"/>
      <point x="27" y="-2"/>
      <point x="-8" y="-3" type="curve"/>
      <point x="-11" y="3"/>
      <point x="-7" y="26"/>
      <point x="-1" y="33" type="curve"/>
      <point x="11" y="34"/>
      <point x="54" y="37"/>
      <point x="61" y="50" type="curve" smooth="yes"/>
      <point x="72" y="70"/>
      <point x="77" y="100"/>
      <point x="85" y="142" type="curve" smooth="yes"/>
      <point x="155" y="501" type="line" smooth="yes"/>
      <point x="163" y="543"/>
      <point x="170" y="573"/>
      <point x="166" y="593" type="curve" smooth="yes"/>
      <point x="164" y="606"/>
      <point x="122" y="607"/>
      <point x="110" y="608" type="curve"/>
      <point x="107" y="615"/>
      <point x="113" y="639"/>
      <point x="118" y="645" type="curve"/>
      <point x="158" y="642"/>
      <point x="209" y="642"/>
      <point x="247" y="642" type="curve" smooth="yes"/>
      <point x="285" y="642"/>
      <point x="334" y="645"/>
    </contour>
  </outline>
</glyph>
<glyph name="C" format="2">
  <advance width="630"/>
  <unicode hex="0043"/>
  <outline>
    <contour>
      <point x="433" y="609" type="curve" smooth="yes"/>
      <point x="305" y="609"/>
      <point x="191" y="467"/>
      <point x="191" y="262" type="curve" smooth="yes"/>
      <point x="191" y="172"/>
      <point x="228" y="36"/>
      <point x="356" y="36" type="curve" smooth="yes"/>
      <point x="402" y="36"/>
      <point x="445" y="54"/>
      <point x="474" y="78" type="curve" smooth="yes"/>
      <point x="519" y="115"/>
      <point x="558" y="191"/>
      <point x="561" y="199" type="curve"/>
      <point x="575" y="199"/>
      <point x="585" y="195"/>
      <point x="591" y="188" type="curve"/>
      <point x="589" y="177"/>
      <point x="538" y="47"/>
      <point x="524" y="39" type="curve" smooth="yes"/>
      <point x="469" y="9"/>
      <point x="413" y="-7"/>
      <point x="329" y="-7" type="curve" smooth="yes"/>
      <point x="139" y="-7"/>
      <point x="51" y="139"/>
      <point x="51" y="270" type="curve" smooth="yes"/>
      <point x="51" y="514"/>
      <point x="260" y="651"/>
      <point x="433" y="651" type="curve" smooth="yes"/>
      <point x="493" y="651"/>
      <point x="571" y="635"/>
      <point x="623" y="623" type="curve"/>
      <point x="623" y="612"/>
      <point x="612" y="494"/>
      <point x="610" y="482" type="curve" smooth="yes"/>
      <point x="609" y="476"/>
      <point x="600" y="469"/>
      <point x="589" y="469" type="curve" smooth="yes"/>
      <point x="584" y="469"/>
      <point x="580" y="469"/>
      <point x="577" y="473" type="curve"/>
      <point x="575" y="511"/>
      <point x="548" y="609"/>
    </contour>
  </outline>
</glyph>
<glyph name="D" format="2">
	<unicode hex="0044"/>
	<advance width="703"/>
	<outline>
		<contour>
			<point x="289" y="534" type="curve" smooth="yes"/>
			<point x="212" y="138" type="line" smooth="yes"/>
			<point x="211" y="132"/>
			<point x="200" y="81"/>
			<point x="204" y="61" type="curve" smooth="yes"/>
			<point x="207" y="47"/>
			<point x="234" y="38"/>
			<point x="257" y="38" type="curve" smooth="yes"/>
			<point x="405" y="38"/>
			<point x="488" y="117"/>
			<point x="525" y="307" type="curve" smooth="yes"/>
			<point x="562" y="498"/>
			<point x="488" y="605"/>
			<point x="353" y="605" type="curve" smooth="yes"/>
			<point x="332" y="605"/>
			<point x="312" y="605"/>
			<point x="305" y="594" type="curve" smooth="yes"/>
			<point x="298" y="582"/>
			<point x="295" y="562"/>
		</contour>
		<contour>
			<point x="387" y="645" type="curve" smooth="yes"/>
			<point x="597" y="645"/>
			<point x="709" y="510"/>
			<point x="670" y="310" type="curve" smooth="yes"/>
			<point x="626" y="81"/>
			<point x="450" y="-3"/>
			<point x="254" y="-3" type="curve" smooth="yes"/>
			<point x="216" y="-3"/>
			<point x="27" y="-2"/>
			<point x="-8" y="-3" type="curve"/>
			<point x="-11" y="3"/>
			<point x="-7" y="26"/>
			<point x="-1" y="33" type="curve"/>
			<point x="11" y="34"/>
			<point x="54" y="37"/>
			<point x="61" y="50" type="curve" smooth="yes"/>
			<point x="72" y="70"/>
			<point x="77" y="100"/>
			<point x="85" y="142" type="curve" smooth="yes"/>
			<point x="155" y="501" type="line" smooth="yes"/>
			<point x="163" y="543"/>
			<point x="170" y="573"/>
			<point x="166" y="593" type="curve" smooth="yes"/>
			<point x="164" y="606"/>
			<point x="122" y="607"/>
			<point x="110" y="608" type="curve"/>
			<point x="107" y="615"/>
			<point x="113" y="639"/>
			<point x="118" y="645" type="curve"/>
			<point x="158" y="642"/>
			<point x="209" y="642"/>
			<point x="247" y="642" type="curve" smooth="yes"/>
			<point x="285" y="642"/>
			<point x="333" y="644"/>
		</contour>
	</outline>
</glyph>
<glyph name="F" format="2">
  <advance width="512"/>
  <unicode hex="0046"/>
  <outline>
    <contour>
      <point x="247" y="642" type="curve" smooth="yes"/>
      <point x="285" y="642"/>
      <point x="490" y="647"/>
      <point x="544" y="648" type="curve"/>
      <point x="541" y="599"/>
      <point x="542" y="548"/>
      <point x="542" y="504" type="curve"/>
      <point x="539" y="501"/>
      <point x="526" y="499"/>
      <point x="519" y="499" type="curve" smooth="yes"/>
      <point x="512" y="499"/>
      <point x="508" y="502"/>
      <point x="507" y="507" type="curve" smooth="yes"/>
      <point x="498" y="561"/>
      <point x="484" y="605"/>
      <point x="428" y="605" type="curve" smooth="yes"/>
      <point x="352" y="605" type="line" smooth="yes"/>
      <point x="331" y="605"/>
      <point x="312" y="605"/>
      <point x="305" y="594" type="curve" smooth="yes"/>
      <point x="298" y="582"/>
      <point x="295" y="562"/>
      <point x="289" y="534" type="curve" smooth="yes"/>
      <point x="254" y="355" type="line" smooth="yes"/>
      <point x="253" y="349"/>
      <point x="271" y="345"/>
      <point x="291" y="345" type="curve" smooth="yes"/>
      <point x="339" y="345" type="line" smooth="yes"/>
      <point x="393" y="345"/>
      <point x="408" y="356"/>
      <point x="433" y="413" type="curve" smooth="yes"/>
      <point x="435" y="418"/>
      <point x="437" y="421"/>
      <point x="444" y="421" type="curve" smooth="yes"/>
      <point x="451" y="421"/>
      <point x="459" y="419"/>
      <point x="461" y="416" type="curve"/>
      <point x="425" y="229" type="line"/>
      <point x="423" y="227"/>
      <point x="414" y="225"/>
      <point x="407" y="225" type="curve" smooth="yes"/>
      <point x="400" y="225"/>
      <point x="396" y="227"/>
      <point x="396" y="232" type="curve" smooth="yes"/>
      <point x="394" y="279"/>
      <point x="384" y="288"/>
      <point x="376" y="292" type="curve" smooth="yes"/>
      <point x="366" y="297"/>
      <point x="342" y="299"/>
      <point x="308" y="299" type="curve" smooth="yes"/>
      <point x="283" y="299"/>
      <point x="242" y="297"/>
      <point x="240" y="285" type="curve" smooth="yes"/>
      <point x="213" y="142" type="line" smooth="yes"/>
      <point x="205" y="100"/>
      <point x="198" y="70"/>
      <point x="202" y="50" type="curve" smooth="yes"/>
      <point x="204" y="37"/>
      <point x="253" y="33"/>
      <point x="265" y="32" type="curve"/>
      <point x="268" y="25"/>
      <point x="263" y="2"/>
      <point x="258" y="-4" type="curve"/>
      <point x="224" y="0"/>
      <point x="159" y="3"/>
      <point x="121" y="3" type="curve" smooth="yes"/>
      <point x="83" y="3"/>
      <point x="27" y="0"/>
      <point x="-9" y="-4" type="curve"/>
      <point x="-12" y="2"/>
      <point x="-7" y="25"/>
      <point x="-1" y="32" type="curve"/>
      <point x="11" y="33"/>
      <point x="53" y="37"/>
      <point x="60" y="50" type="curve" smooth="yes"/>
      <point x="71" y="70"/>
      <point x="77" y="100"/>
      <point x="85" y="142" type="curve" smooth="yes"/>
      <point x="155" y="501" type="line" smooth="yes"/>
      <point x="163" y="543"/>
      <point x="170" y="573"/>
      <point x="166" y="593" type="curve" smooth="yes"/>
      <point x="164" y="606"/>
      <point x="122" y="607"/>
      <point x="110" y="608" type="curve"/>
      <point x="107" y="615"/>
      <point x="113" y="639"/>
      <point x="118" y="645" type="curve"/>
      <point x="158" y="642"/>
      <point x="209" y="642"/>
    </contour>
  </outline>
</glyph>
<glyph name="G" format="2">
	<unicode hex="0047"/>
	<advance width="662"/>
	<outline>
		<contour>
			<point x="433" y="651" type="curve" smooth="yes"/>
			<point x="493" y="651"/>
			<point x="571" y="635"/>
			<point x="623" y="623" type="curve"/>
			<point x="623" y="612"/>
			<point x="612" y="494"/>
			<point x="610" y="482" type="curve" smooth="yes"/>
			<point x="609" y="476"/>
			<point x="600" y="469"/>
			<point x="589" y="469" type="curve" smooth="yes"/>
			<point x="584" y="469"/>
			<point x="580" y="469"/>
			<point x="577" y="473" type="curve"/>
			<point x="575" y="511"/>
			<point x="547" y="609"/>
			<point x="433" y="609" type="curve" smooth="yes"/>
			<point x="305" y="609"/>
			<point x="191" y="467"/>
			<point x="191" y="262" type="curve" smooth="yes"/>
			<point x="191" y="172"/>
			<point x="228" y="36"/>
			<point x="356" y="36" type="curve" smooth="yes"/>
			<point x="389" y="36"/>
			<point x="405" y="44"/>
			<point x="412" y="49" type="curve" smooth="yes"/>
			<point x="416" y="52"/>
			<point x="420" y="56"/>
			<point x="422" y="65" type="curve" smooth="yes"/>
			<point x="425" y="80"/>
			<point x="436" y="144"/>
			<point x="445" y="191" type="curve" smooth="yes"/>
			<point x="449" y="211"/>
			<point x="451" y="220"/>
			<point x="450" y="241" type="curve" smooth="yes"/>
			<point x="448" y="265"/>
			<point x="402" y="268"/>
			<point x="391" y="268" type="curve" smooth="yes"/>
			<point x="386" y="268"/>
			<point x="391" y="299"/>
			<point x="397" y="304" type="curve"/>
			<point x="443" y="302"/>
			<point x="494" y="298"/>
			<point x="540" y="298" type="curve" smooth="yes"/>
			<point x="578" y="298"/>
			<point x="610" y="302"/>
			<point x="647" y="304" type="curve"/>
			<point x="648" y="291"/>
			<point x="643" y="268"/>
			<point x="640" y="268" type="curve"/>
			<point x="633" y="268"/>
			<point x="606" y="262"/>
			<point x="594" y="255" type="curve" smooth="yes"/>
			<point x="588" y="251"/>
			<point x="579" y="232"/>
			<point x="575" y="213" type="curve" smooth="yes"/>
			<point x="568" y="177"/>
			<point x="560" y="129"/>
			<point x="553" y="96" type="curve" smooth="yes"/>
			<point x="551" y="87"/>
			<point x="554" y="72"/>
			<point x="553" y="67" type="curve" smooth="yes"/>
			<point x="551" y="56"/>
			<point x="530" y="41"/>
			<point x="517" y="35" type="curve" smooth="yes"/>
			<point x="465" y="10"/>
			<point x="413" y="-7"/>
			<point x="329" y="-7" type="curve" smooth="yes"/>
			<point x="139" y="-7"/>
			<point x="51" y="139"/>
			<point x="51" y="270" type="curve" smooth="yes"/>
			<point x="51" y="514"/>
			<point x="260" y="651"/>
		</contour>
	</outline>
</glyph>
<glyph name="H" format="2">
	<unicode hex="0048"/>
	<advance width="690"/>
	<outline>
		<contour>
			<point x="247" y="640" type="curve" smooth="yes"/>
			<point x="285" y="640"/>
			<point x="340" y="642"/>
			<point x="376" y="646" type="curve"/>
			<point x="379" y="640"/>
			<point x="375" y="617"/>
			<point x="369" y="610" type="curve"/>
			<point x="357" y="609"/>
			<point x="315" y="606"/>
			<point x="308" y="593" type="curve" smooth="yes"/>
			<point x="297" y="573"/>
			<point x="290" y="543"/>
			<point x="282" y="501" type="curve" smooth="yes"/>
			<point x="256" y="362" type="line"/>
			<point x="256" y="360"/>
			<point x="257" y="359"/>
			<point x="257" y="359" type="curve"/>
			<point x="292" y="358"/>
			<point x="325" y="356"/>
			<point x="366" y="356" type="curve" smooth="yes"/>
			<point x="399" y="356"/>
			<point x="440" y="358"/>
			<point x="473" y="359" type="curve"/>
			<point x="473" y="359"/>
			<point x="475" y="361"/>
			<point x="475" y="363" type="curve" smooth="yes"/>
			<point x="501" y="501" type="line" smooth="yes"/>
			<point x="509" y="543"/>
			<point x="516" y="573"/>
			<point x="512" y="593" type="curve" smooth="yes"/>
			<point x="510" y="606"/>
			<point x="469" y="609"/>
			<point x="457" y="610" type="curve"/>
			<point x="454" y="617"/>
			<point x="459" y="640"/>
			<point x="464" y="646" type="curve"/>
			<point x="498" y="642"/>
			<point x="555" y="640"/>
			<point x="593" y="640" type="curve" smooth="yes"/>
			<point x="631" y="640"/>
			<point x="686" y="642"/>
			<point x="722" y="646" type="curve"/>
			<point x="725" y="640"/>
			<point x="721" y="617"/>
			<point x="715" y="610" type="curve"/>
			<point x="703" y="609"/>
			<point x="660" y="606"/>
			<point x="653" y="593" type="curve" smooth="yes"/>
			<point x="642" y="573"/>
			<point x="636" y="543"/>
			<point x="628" y="501" type="curve" smooth="yes"/>
			<point x="558" y="142" type="line" smooth="yes"/>
			<point x="550" y="100"/>
			<point x="544" y="70"/>
			<point x="548" y="50" type="curve" smooth="yes"/>
			<point x="550" y="37"/>
			<point x="590" y="33"/>
			<point x="602" y="32" type="curve"/>
			<point x="605" y="25"/>
			<point x="601" y="2"/>
			<point x="596" y="-4" type="curve"/>
			<point x="562" y="0"/>
			<point x="505" y="3"/>
			<point x="467" y="3" type="curve" smooth="yes"/>
			<point x="429" y="3"/>
			<point x="374" y="0"/>
			<point x="338" y="-4" type="curve"/>
			<point x="335" y="2"/>
			<point x="339" y="25"/>
			<point x="345" y="32" type="curve"/>
			<point x="357" y="33"/>
			<point x="399" y="37"/>
			<point x="406" y="50" type="curve" smooth="yes"/>
			<point x="417" y="70"/>
			<point x="424" y="100"/>
			<point x="432" y="142" type="curve" smooth="yes"/>
			<point x="463" y="303" type="line" smooth="yes"/>
			<point x="463" y="305"/>
			<point x="462" y="308"/>
			<point x="462" y="308" type="curve"/>
			<point x="429" y="309"/>
			<point x="393" y="310"/>
			<point x="356" y="310" type="curve" smooth="yes"/>
			<point x="255" y="310"/>
			<point x="248" y="308"/>
			<point x="245" y="306" type="curve"/>
			<point x="244" y="305"/>
			<point x="243" y="302"/>
			<point x="243" y="302" type="curve"/>
			<point x="213" y="142" type="line" smooth="yes"/>
			<point x="205" y="100"/>
			<point x="198" y="70"/>
			<point x="202" y="50" type="curve" smooth="yes"/>
			<point x="204" y="37"/>
			<point x="245" y="33"/>
			<point x="257" y="32" type="curve"/>
			<point x="260" y="25"/>
			<point x="255" y="2"/>
			<point x="250" y="-4" type="curve"/>
			<point x="216" y="0"/>
			<point x="159" y="3"/>
			<point x="121" y="3" type="curve" smooth="yes"/>
			<point x="83" y="3"/>
			<point x="27" y="0"/>
			<point x="-9" y="-4" type="curve"/>
			<point x="-12" y="2"/>
			<point x="-7" y="25"/>
			<point x="-1" y="32" type="curve"/>
			<point x="11" y="33"/>
			<point x="53" y="37"/>
			<point x="60" y="50" type="curve" smooth="yes"/>
			<point x="71" y="70"/>
			<point x="77" y="100"/>
			<point x="85" y="142" type="curve" smooth="yes"/>
			<point x="155" y="501" type="line" smooth="yes"/>
			<point x="163" y="543"/>
			<point x="170" y="573"/>
			<point x="166" y="593" type="curve" smooth="yes"/>
			<point x="164" y="606"/>
			<point x="123" y="609"/>
			<point x="111" y="610" type="curve"/>
			<point x="108" y="617"/>
			<point x="113" y="640"/>
			<point x="118" y="646" type="curve"/>
			<point x="152" y="642"/>
			<point x="209" y="640"/>
		</contour>
	</outline>
</glyph>
<glyph name="I" format="2">
	<unicode hex="0049"/>
	<advance width="344"/>
	<outline>
		<contour>
			<point x="247" y="640" type="curve" smooth="yes"/>
			<point x="285" y="640"/>
			<point x="340" y="642"/>
			<point x="376" y="646" type="curve"/>
			<point x="379" y="640"/>
			<point x="375" y="617"/>
			<point x="369" y="610" type="curve"/>
			<point x="357" y="609"/>
			<point x="315" y="606"/>
			<point x="308" y="593" type="curve" smooth="yes"/>
			<point x="297" y="573"/>
			<point x="290" y="543"/>
			<point x="282" y="501" type="curve" smooth="yes"/>
			<point x="213" y="142" type="line" smooth="yes"/>
			<point x="205" y="100"/>
			<point x="198" y="70"/>
			<point x="202" y="50" type="curve" smooth="yes"/>
			<point x="204" y="37"/>
			<point x="245" y="33"/>
			<point x="257" y="32" type="curve"/>
			<point x="260" y="25"/>
			<point x="255" y="2"/>
			<point x="250" y="-4" type="curve"/>
			<point x="216" y="0"/>
			<point x="159" y="3"/>
			<point x="121" y="3" type="curve" smooth="yes"/>
			<point x="83" y="3"/>
			<point x="27" y="0"/>
			<point x="-9" y="-4" type="curve"/>
			<point x="-12" y="2"/>
			<point x="-7" y="25"/>
			<point x="-1" y="32" type="curve"/>
			<point x="11" y="33"/>
			<point x="53" y="37"/>
			<point x="60" y="50" type="curve" smooth="yes"/>
			<point x="71" y="70"/>
			<point x="77" y="100"/>
			<point x="85" y="142" type="curve" smooth="yes"/>
			<point x="155" y="501" type="line" smooth="yes"/>
			<point x="163" y="543"/>
			<point x="170" y="573"/>
			<point x="166" y="593" type="curve" smooth="yes"/>
			<point x="164" y="606"/>
			<point x="123" y="609"/>
			<point x="111" y="610" type="curve"/>
			<point x="108" y="617"/>
			<point x="113" y="640"/>
			<point x="118" y="646" type="curve"/>
			<point x="152" y="642"/>
			<point x="209" y="640"/>
		</contour>
	</outline>
</glyph>
<glyph name="J" format="2">
  <advance width="328"/>
  <unicode hex="004A"/>
  <outline>
    <contour>
      <point x="241" y="640" type="curve" smooth="yes"/>
      <point x="279" y="640"/>
      <point x="334" y="642"/>
      <point x="370" y="646" type="curve"/>
      <point x="373" y="640"/>
      <point x="369" y="617"/>
      <point x="363" y="610" type="curve"/>
      <point x="351" y="609"/>
      <point x="309" y="606"/>
      <point x="302" y="593" type="curve" smooth="yes"/>
      <point x="291" y="573"/>
      <point x="284" y="543"/>
      <point x="276" y="501" type="curve" smooth="yes"/>
      <point x="206" y="140" type="line" smooth="yes"/>
      <point x="163" y="-83"/>
      <point x="-38" y="-195"/>
      <point x="-96" y="-213" type="curve"/>
      <point x="-101" y="-210"/>
      <point x="-106" y="-200"/>
      <point x="-106" y="-195" type="curve" smooth="yes"/>
      <point x="-106" y="-192"/>
      <point x="-105" y="-190"/>
      <point x="-104" y="-189" type="curve"/>
      <point x="-3" y="-134"/>
      <point x="47" y="-30"/>
      <point x="78" y="132" type="curve" smooth="yes"/>
      <point x="149" y="501" type="line" smooth="yes"/>
      <point x="157" y="543"/>
      <point x="164" y="573"/>
      <point x="160" y="593" type="curve" smooth="yes"/>
      <point x="158" y="606"/>
      <point x="117" y="609"/>
      <point x="105" y="610" type="curve"/>
      <point x="102" y="617"/>
      <point x="107" y="640"/>
      <point x="112" y="646" type="curve"/>
      <point x="146" y="642"/>
      <point x="203" y="640"/>
    </contour>
  </outline>
</glyph>
<glyph name="K" format="2">
  <advance width="671"/>
  <unicode hex="004B"/>
  <outline>
    <contour>
      <point x="509" y="138" type="curve" smooth="yes"/>
      <point x="584" y="26"/>
      <point x="637" y="28"/>
      <point x="644" y="28" type="curve"/>
      <point x="647" y="21"/>
      <point x="641" y="0"/>
      <point x="640" y="-2" type="curve"/>
      <point x="614" y="-4"/>
      <point x="613" y="-6"/>
      <point x="576" y="-6" type="curve" smooth="yes"/>
      <point x="479" y="-6"/>
      <point x="439" y="20"/>
      <point x="392" y="90" type="curve" smooth="yes"/>
      <point x="370" y="123"/>
      <point x="297" y="238"/>
      <point x="261" y="295" type="curve" smooth="yes"/>
      <point x="259" y="298"/>
      <point x="254" y="299"/>
      <point x="252" y="299" type="curve" smooth="yes"/>
      <point x="248" y="299"/>
      <point x="245" y="297"/>
      <point x="242" y="293" type="curve"/>
      <point x="213" y="142" type="line" smooth="yes"/>
      <point x="205" y="100"/>
      <point x="198" y="70"/>
      <point x="202" y="50" type="curve" smooth="yes"/>
      <point x="204" y="37"/>
      <point x="245" y="33"/>
      <point x="257" y="32" type="curve"/>
      <point x="260" y="25"/>
      <point x="255" y="2"/>
      <point x="250" y="-4" type="curve"/>
      <point x="216" y="0"/>
      <point x="159" y="3"/>
      <point x="121" y="3" type="curve" smooth="yes"/>
      <point x="83" y="3"/>
      <point x="27" y="0"/>
      <point x="-9" y="-4" type="curve"/>
      <point x="-12" y="2"/>
      <point x="-7" y="25"/>
      <point x="-1" y="32" type="curve"/>
      <point x="11" y="33"/>
      <point x="53" y="37"/>
      <point x="60" y="50" type="curve" smooth="yes"/>
      <point x="71" y="70"/>
      <point x="77" y="100"/>
      <point x="85" y="142" type="curve" smooth="yes"/>
      <point x="155" y="501" type="line" smooth="yes"/>
      <point x="163" y="543"/>
      <point x="170" y="573"/>
      <point x="166" y="593" type="curve" smooth="yes"/>
      <point x="164" y="606"/>
      <point x="123" y="609"/>
      <point x="111" y="610" type="curve"/>
      <point x="108" y="617"/>
      <point x="113" y="640"/>
      <point x="118" y="646" type="curve"/>
      <point x="152" y="642"/>
      <point x="209" y="640"/>
      <point x="247" y="640" type="curve" smooth="yes"/>
      <point x="285" y="640"/>
      <point x="340" y="642"/>
      <point x="376" y="646" type="curve"/>
      <point x="379" y="640"/>
      <point x="375" y="617"/>
      <point x="369" y="610" type="curve"/>
      <point x="357" y="609"/>
      <point x="315" y="606"/>
      <point x="308" y="593" type="curve" smooth="yes"/>
      <point x="297" y="573"/>
      <point x="290" y="543"/>
      <point x="282" y="501" type="curve" smooth="yes"/>
      <point x="249" y="329" type="line"/>
      <point x="296" y="363"/>
      <point x="334" y="394"/>
      <point x="360" y="418" type="curve" smooth="yes"/>
      <point x="426" y="478"/>
      <point x="457" y="502"/>
      <point x="506" y="557" type="curve" smooth="yes"/>
      <point x="518" y="570"/>
      <point x="520" y="582"/>
      <point x="521" y="589" type="curve" smooth="yes"/>
      <point x="525" y="610"/>
      <point x="488" y="611"/>
      <point x="475" y="611" type="curve"/>
      <point x="472" y="619"/>
      <point x="474" y="637"/>
      <point x="479" y="646" type="curve"/>
      <point x="512" y="644"/>
      <point x="564" y="640"/>
      <point x="597" y="640" type="curve" smooth="yes"/>
      <point x="637" y="640"/>
      <point x="676" y="642"/>
      <point x="710" y="646" type="curve"/>
      <point x="711" y="639"/>
      <point x="708" y="618"/>
      <point x="702" y="612" type="curve"/>
      <point x="693" y="611"/>
      <point x="629" y="604"/>
      <point x="591" y="569" type="curve" smooth="yes"/>
      <point x="591" y="569"/>
      <point x="454" y="444"/>
      <point x="371" y="367" type="curve" smooth="yes"/>
      <point x="364" y="360"/>
      <point x="363" y="357"/>
      <point x="366" y="352" type="curve" smooth="yes"/>
      <point x="419" y="268"/>
      <point x="457" y="215"/>
    </contour>
  </outline>
</glyph>
<glyph name="L" format="2">
  <advance width="534"/>
  <unicode hex="004C"/>
  <outline>
    <contour>
      <point x="212" y="138" type="line" smooth="yes"/>
      <point x="211" y="132"/>
      <point x="200" y="81"/>
      <point x="204" y="61" type="curve" smooth="yes"/>
      <point x="207" y="47"/>
      <point x="236" y="41"/>
      <point x="259" y="41" type="curve" smooth="yes"/>
      <point x="319" y="41" type="line" smooth="yes"/>
      <point x="353" y="41"/>
      <point x="385" y="51"/>
      <point x="410" y="73" type="curve" smooth="yes"/>
      <point x="433" y="94"/>
      <point x="453" y="122"/>
      <point x="477" y="166" type="curve" smooth="yes"/>
      <point x="479" y="170"/>
      <point x="484" y="172"/>
      <point x="491" y="172" type="curve" smooth="yes"/>
      <point x="500" y="172"/>
      <point x="515" y="169"/>
      <point x="517" y="166" type="curve"/>
      <point x="490" y="113"/>
      <point x="451" y="41"/>
      <point x="436" y="-2" type="curve"/>
      <point x="411" y="-2"/>
      <point x="243" y="-2"/>
      <point x="121" y="-2" type="curve" smooth="yes"/>
      <point x="57" y="-2"/>
      <point x="5" y="-3"/>
      <point x="-8" y="-3" type="curve"/>
      <point x="-11" y="3"/>
      <point x="-7" y="26"/>
      <point x="-1" y="33" type="curve"/>
      <point x="11" y="34"/>
      <point x="54" y="37"/>
      <point x="61" y="50" type="curve" smooth="yes"/>
      <point x="72" y="70"/>
      <point x="77" y="100"/>
      <point x="85" y="142" type="curve" smooth="yes"/>
      <point x="155" y="501" type="line" smooth="yes"/>
      <point x="163" y="543"/>
      <point x="170" y="573"/>
      <point x="166" y="593" type="curve" smooth="yes"/>
      <point x="164" y="606"/>
      <point x="123" y="609"/>
      <point x="111" y="610" type="curve"/>
      <point x="108" y="617"/>
      <point x="113" y="640"/>
      <point x="118" y="646" type="curve"/>
      <point x="152" y="642"/>
      <point x="209" y="640"/>
      <point x="247" y="640" type="curve" smooth="yes"/>
      <point x="285" y="640"/>
      <point x="340" y="642"/>
      <point x="376" y="646" type="curve"/>
      <point x="379" y="640"/>
      <point x="375" y="617"/>
      <point x="369" y="610" type="curve"/>
      <point x="357" y="609"/>
      <point x="315" y="606"/>
      <point x="308" y="593" type="curve" smooth="yes"/>
      <point x="297" y="573"/>
      <point x="290" y="543"/>
      <point x="282" y="501" type="curve" smooth="yes"/>
    </contour>
  </outline>
</glyph>
<glyph name="M" format="2">
	<unicode hex="004D"/>
	<advance width="838"/>
	<outline>
		<contour>
			<point x="236" y="641" type="curve" smooth="yes"/>
			<point x="267" y="641"/>
			<point x="295" y="644"/>
			<point x="332" y="646" type="curve"/>
			<point x="347" y="584"/>
			<point x="387" y="398"/>
			<point x="423" y="232" type="curve"/>
			<point x="423" y="232"/>
			<point x="425" y="230"/>
			<point x="426" y="230" type="curve" smooth="yes"/>
			<point x="427" y="230"/>
			<point x="431" y="235"/>
			<point x="431" y="236" type="curve" smooth="yes"/>
			<point x="431" y="236"/>
			<point x="534" y="416"/>
			<point x="596" y="533" type="curve" smooth="yes"/>
			<point x="618" y="575"/>
			<point x="647" y="643"/>
			<point x="647" y="643" type="curve"/>
			<point x="655" y="642"/>
			<point x="727" y="640"/>
			<point x="745" y="640" type="curve" smooth="yes"/>
			<point x="776" y="640"/>
			<point x="815" y="644"/>
			<point x="852" y="646" type="curve"/>
			<point x="855" y="642"/>
			<point x="855" y="617"/>
			<point x="849" y="609" type="curve"/>
			<point x="842" y="609"/>
			<point x="810" y="606"/>
			<point x="799" y="599" type="curve" smooth="yes"/>
			<point x="788" y="592"/>
			<point x="783" y="585"/>
			<point x="779" y="559" type="curve" smooth="yes"/>
			<point x="768" y="491"/>
			<point x="732" y="273"/>
			<point x="713" y="148" type="curve" smooth="yes"/>
			<point x="707" y="110"/>
			<point x="702" y="75"/>
			<point x="706" y="50" type="curve" smooth="yes"/>
			<point x="709" y="36"/>
			<point x="752" y="32"/>
			<point x="759" y="32" type="curve"/>
			<point x="761" y="23"/>
			<point x="760" y="6"/>
			<point x="755" y="-4" type="curve"/>
			<point x="719" y="-2"/>
			<point x="672" y="4"/>
			<point x="632" y="4" type="curve" smooth="yes"/>
			<point x="590" y="4"/>
			<point x="530" y="-2"/>
			<point x="488" y="-4" type="curve"/>
			<point x="485" y="0"/>
			<point x="490" y="24"/>
			<point x="494" y="32" type="curve"/>
			<point x="505" y="32"/>
			<point x="549" y="37"/>
			<point x="560" y="51" type="curve" smooth="yes"/>
			<point x="566" y="59"/>
			<point x="573" y="75"/>
			<point x="575" y="85" type="curve" smooth="yes"/>
			<point x="577" y="95"/>
			<point x="582" y="127"/>
			<point x="585" y="145" type="curve" smooth="yes"/>
			<point x="642" y="485" type="line" smooth="yes"/>
			<point x="643" y="488"/>
			<point x="648" y="511"/>
			<point x="641" y="511" type="curve" smooth="yes"/>
			<point x="639" y="511"/>
			<point x="638" y="509"/>
			<point x="635" y="504" type="curve" smooth="yes"/>
			<point x="384" y="39" type="line" smooth="yes"/>
			<point x="379" y="30"/>
			<point x="355" y="-2"/>
			<point x="338" y="-2" type="curve" smooth="yes"/>
			<point x="335" y="-2"/>
			<point x="333" y="-1"/>
			<point x="330" y="0" type="curve"/>
			<point x="226" y="511" type="line"/>
			<point x="180" y="308"/>
			<point x="176" y="284"/>
			<point x="141" y="131" type="curve" smooth="yes"/>
			<point x="136" y="110"/>
			<point x="131" y="70"/>
			<point x="131" y="63" type="curve" smooth="yes"/>
			<point x="132" y="42"/>
			<point x="198" y="32"/>
			<point x="205" y="32" type="curve"/>
			<point x="206" y="25"/>
			<point x="204" y="6"/>
			<point x="199" y="-4" type="curve"/>
			<point x="163" y="-2"/>
			<point x="129" y="4"/>
			<point x="89" y="4" type="curve" smooth="yes"/>
			<point x="47" y="4"/>
			<point x="15" y="-2"/>
			<point x="-27" y="-4" type="curve"/>
			<point x="-29" y="3"/>
			<point x="-26" y="21"/>
			<point x="-21" y="31" type="curve"/>
			<point x="-10" y="31"/>
			<point x="48" y="41"/>
			<point x="63" y="66" type="curve" smooth="yes"/>
			<point x="69" y="76"/>
			<point x="86" y="136"/>
			<point x="90" y="152" type="curve" smooth="yes"/>
			<point x="117" y="266"/>
			<point x="176" y="521"/>
			<point x="187" y="567" type="curve" smooth="yes"/>
			<point x="188" y="574"/>
			<point x="189" y="582"/>
			<point x="186" y="589" type="curve" smooth="yes"/>
			<point x="181" y="600"/>
			<point x="147" y="610"/>
			<point x="131" y="610" type="curve"/>
			<point x="127" y="618"/>
			<point x="136" y="644"/>
			<point x="138" y="646" type="curve"/>
			<point x="179" y="644"/>
			<point x="194" y="641"/>
		</contour>
	</outline>
</glyph>
<glyph name="N" format="2">
	<unicode hex="004E"/>
	<advance width="698"/>
	<outline>
		<contour>
			<point x="215" y="640" type="curve" smooth="yes"/>
			<point x="247" y="640"/>
			<point x="286" y="642"/>
			<point x="316" y="646" type="curve"/>
			<point x="336" y="570"/>
			<point x="446" y="391"/>
			<point x="529" y="242" type="curve"/>
			<point x="532" y="249"/>
			<point x="536" y="268"/>
			<point x="539" y="282" type="curve" smooth="yes"/>
			<point x="574" y="465" type="line" smooth="yes"/>
			<point x="581" y="502"/>
			<point x="592" y="575"/>
			<point x="588" y="590" type="curve" smooth="yes"/>
			<point x="584" y="608"/>
			<point x="530" y="611"/>
			<point x="519" y="611" type="curve"/>
			<point x="517" y="611"/>
			<point x="520" y="638"/>
			<point x="526" y="647" type="curve"/>
			<point x="567" y="645"/>
			<point x="593" y="640"/>
			<point x="635" y="640" type="curve" smooth="yes"/>
			<point x="675" y="640"/>
			<point x="715" y="645"/>
			<point x="752" y="647" type="curve"/>
			<point x="753" y="641"/>
			<point x="750" y="620"/>
			<point x="742" y="610" type="curve"/>
			<point x="735" y="610"/>
			<point x="675" y="609"/>
			<point x="663" y="588" type="curve" smooth="yes"/>
			<point x="656" y="574"/>
			<point x="636" y="503"/>
			<point x="629" y="468" type="curve" smooth="yes"/>
			<point x="565" y="136" type="line" smooth="yes"/>
			<point x="554" y="79"/>
			<point x="551" y="50"/>
			<point x="543" y="-1" type="curve"/>
			<point x="540" y="-4"/>
			<point x="522" y="-5"/>
			<point x="519" y="-5" type="curve" smooth="yes"/>
			<point x="511" y="-5"/>
			<point x="503" y="5"/>
			<point x="496" y="18" type="curve" smooth="yes"/>
			<point x="220" y="507" type="line"/>
			<point x="152" y="153" type="line" smooth="yes"/>
			<point x="145" y="118"/>
			<point x="141" y="73"/>
			<point x="143" y="59" type="curve" smooth="yes"/>
			<point x="146" y="40"/>
			<point x="206" y="33"/>
			<point x="213" y="33" type="curve"/>
			<point x="217" y="23"/>
			<point x="211" y="2"/>
			<point x="208" y="-4" type="curve"/>
			<point x="172" y="-2"/>
			<point x="134" y="4"/>
			<point x="94" y="4" type="curve" smooth="yes"/>
			<point x="52" y="4"/>
			<point x="24" y="-2"/>
			<point x="-18" y="-4" type="curve"/>
			<point x="-21" y="5"/>
			<point x="-12" y="32"/>
			<point x="-10" y="32" type="curve"/>
			<point x="1" y="32"/>
			<point x="56" y="40"/>
			<point x="67" y="58" type="curve" smooth="yes"/>
			<point x="76" y="73"/>
			<point x="90" y="119"/>
			<point x="97" y="156" type="curve" smooth="yes"/>
			<point x="121" y="284"/>
			<point x="140" y="374"/>
			<point x="165" y="502" type="curve" smooth="yes"/>
			<point x="175" y="555"/>
			<point x="173" y="571"/>
			<point x="165" y="590" type="curve" smooth="yes"/>
			<point x="159" y="603"/>
			<point x="120" y="610"/>
			<point x="109" y="610" type="curve" smooth="yes"/>
			<point x="104" y="610"/>
			<point x="108" y="641"/>
			<point x="114" y="646" type="curve"/>
			<point x="141" y="644"/>
			<point x="173" y="640"/>
		</contour>
	</outline>
</glyph>
<glyph name="O" format="2">
	<unicode hex="004F"/>
	<advance width="688"/>
	<outline>
		<contour>
			<point x="393" y="609" type="curve" smooth="yes"/>
			<point x="258" y="609"/>
			<point x="188" y="399"/>
			<point x="188" y="238" type="curve" smooth="yes"/>
			<point x="188" y="126"/>
			<point x="225" y="32"/>
			<point x="318" y="32" type="curve" smooth="yes"/>
			<point x="450" y="32"/>
			<point x="522" y="239"/>
			<point x="522" y="400" type="curve" smooth="yes"/>
			<point x="522" y="512"/>
			<point x="481" y="609"/>
		</contour>
		<contour>
			<point x="414" y="651" type="curve" smooth="yes"/>
			<point x="574" y="651"/>
			<point x="663" y="510"/>
			<point x="663" y="384" type="curve" smooth="yes"/>
			<point x="663" y="134"/>
			<point x="450" y="-10"/>
			<point x="288" y="-10" type="curve" smooth="yes"/>
			<point x="151" y="-10"/>
			<point x="48" y="112"/>
			<point x="48" y="255" type="curve" smooth="yes"/>
			<point x="48" y="498"/>
			<point x="253" y="651"/>
		</contour>
	</outline>
</glyph>
<glyph name="P" format="2">
  <advance width="543"/>
  <unicode hex="0050"/>
  <outline>
    <contour>
      <point x="559" y="454" type="curve" smooth="yes"/>
      <point x="537" y="337"/>
      <point x="418" y="279"/>
      <point x="326" y="279" type="curve" smooth="yes"/>
      <point x="300" y="279"/>
      <point x="287" y="289"/>
      <point x="280" y="294" type="curve" smooth="yes"/>
      <point x="276" y="297"/>
      <point x="270" y="311"/>
      <point x="270" y="316" type="curve" smooth="yes"/>
      <point x="270" y="320"/>
      <point x="273" y="323"/>
      <point x="275" y="323" type="curve"/>
      <point x="284" y="320"/>
      <point x="291" y="319"/>
      <point x="305" y="319" type="curve" smooth="yes"/>
      <point x="350" y="319"/>
      <point x="409" y="376"/>
      <point x="422" y="440" type="curve" smooth="yes"/>
      <point x="439" y="527"/>
      <point x="413" y="605"/>
      <point x="352" y="605" type="curve" smooth="yes"/>
      <point x="331" y="605"/>
      <point x="312" y="605"/>
      <point x="305" y="594" type="curve" smooth="yes"/>
      <point x="298" y="582"/>
      <point x="295" y="562"/>
      <point x="289" y="534" type="curve" smooth="yes"/>
      <point x="213" y="142" type="line" smooth="yes"/>
      <point x="205" y="100"/>
      <point x="198" y="70"/>
      <point x="202" y="50" type="curve" smooth="yes"/>
      <point x="204" y="37"/>
      <point x="245" y="33"/>
      <point x="257" y="32" type="curve"/>
      <point x="260" y="25"/>
      <point x="255" y="2"/>
      <point x="250" y="-4" type="curve"/>
      <point x="216" y="0"/>
      <point x="159" y="3"/>
      <point x="121" y="3" type="curve" smooth="yes"/>
      <point x="83" y="3"/>
      <point x="27" y="0"/>
      <point x="-9" y="-4" type="curve"/>
      <point x="-12" y="2"/>
      <point x="-7" y="25"/>
      <point x="-1" y="32" type="curve"/>
      <point x="11" y="33"/>
      <point x="53" y="37"/>
      <point x="60" y="50" type="curve" smooth="yes"/>
      <point x="71" y="70"/>
      <point x="77" y="100"/>
      <point x="85" y="142" type="curve" smooth="yes"/>
      <point x="155" y="501" type="line" smooth="yes"/>
      <point x="163" y="543"/>
      <point x="170" y="573"/>
      <point x="166" y="593" type="curve" smooth="yes"/>
      <point x="164" y="606"/>
      <point x="122" y="607"/>
      <point x="110" y="608" type="curve"/>
      <point x="107" y="615"/>
      <point x="113" y="639"/>
      <point x="118" y="645" type="curve"/>
      <point x="158" y="642"/>
      <point x="209" y="642"/>
      <point x="247" y="642" type="curve" smooth="yes"/>
      <point x="285" y="642"/>
      <point x="334" y="645"/>
      <point x="388" y="645" type="curve" smooth="yes"/>
      <point x="501" y="645"/>
      <point x="580" y="558"/>
    </contour>
  </outline>
</glyph>
<glyph name="Q" format="2">
  <advance width="689"/>
  <unicode hex="0051"/>
  <outline>
    <contour>
      <point x="415" y="651" type="curve" smooth="yes"/>
      <point x="575" y="651"/>
      <point x="664" y="510"/>
      <point x="664" y="384" type="curve" smooth="yes"/>
      <point x="664" y="175"/>
      <point x="522" y="55"/>
      <point x="396" y="10" type="curve"/>
      <point x="474" y="-35"/>
      <point x="514" y="-71"/>
      <point x="608" y="-71" type="curve" smooth="yes"/>
      <point x="630" y="-71"/>
      <point x="651" y="-66"/>
      <point x="658" y="-64" type="curve"/>
      <point x="665" y="-64"/>
      <point x="673" y="-68"/>
      <point x="677" y="-74" type="curve"/>
      <point x="665" y="-84"/>
      <point x="578" y="-137"/>
      <point x="522" y="-137" type="curve" smooth="yes"/>
      <point x="418" y="-137"/>
      <point x="347" y="-57"/>
      <point x="229" y="-8" type="curve" smooth="yes"/>
      <point x="116" y="39"/>
      <point x="49" y="138"/>
      <point x="49" y="255" type="curve" smooth="yes"/>
      <point x="49" y="498"/>
      <point x="254" y="651"/>
    </contour>
    <contour>
      <point x="394" y="609" type="curve" smooth="yes"/>
      <point x="259" y="609"/>
      <point x="189" y="399"/>
      <point x="189" y="238" type="curve" smooth="yes"/>
      <point x="189" y="126"/>
      <point x="226" y="32"/>
      <point x="319" y="32" type="curve" smooth="yes"/>
      <point x="451" y="32"/>
      <point x="523" y="239"/>
      <point x="523" y="400" type="curve" smooth="yes"/>
      <point x="523" y="512"/>
      <point x="482" y="609"/>
    </contour>
  </outline>
</glyph>
<glyph name="R" format="2">
	<unicode hex="0052"/>
	<advance width="629"/>
	<outline>
		<contour>
			<point x="247" y="642" type="curve" smooth="yes"/>
			<point x="285" y="642"/>
			<point x="334" y="645"/>
			<point x="388" y="645" type="curve" smooth="yes"/>
			<point x="501" y="645"/>
			<point x="571" y="568"/>
			<point x="548" y="447" type="curve" smooth="yes"/>
			<point x="531" y="362"/>
			<point x="425" y="318"/>
			<point x="387" y="309" type="curve"/>
			<point x="435" y="213"/>
			<point x="439" y="195"/>
			<point x="483" y="127" type="curve" smooth="yes"/>
			<point x="537" y="43"/>
			<point x="606" y="27"/>
			<point x="621" y="27" type="curve"/>
			<point x="624" y="20"/>
			<point x="620" y="-2"/>
			<point x="619" y="-4" type="curve"/>
			<point x="593" y="-6"/>
			<point x="598" y="-8"/>
			<point x="561" y="-8" type="curve" smooth="yes"/>
			<point x="412" y="-8"/>
			<point x="378" y="64"/>
			<point x="361" y="97" type="curve" smooth="yes"/>
			<point x="268" y="277" type="line" smooth="yes"/>
			<point x="268" y="277"/>
			<point x="262" y="292"/>
			<point x="255" y="292" type="curve" smooth="yes"/>
			<point x="242" y="292" type="line"/>
			<point x="213" y="142" type="line" smooth="yes"/>
			<point x="205" y="100"/>
			<point x="198" y="70"/>
			<point x="202" y="50" type="curve" smooth="yes"/>
			<point x="204" y="37"/>
			<point x="245" y="33"/>
			<point x="257" y="32" type="curve"/>
			<point x="260" y="25"/>
			<point x="255" y="2"/>
			<point x="250" y="-4" type="curve"/>
			<point x="216" y="0"/>
			<point x="159" y="3"/>
			<point x="121" y="3" type="curve" smooth="yes"/>
			<point x="83" y="3"/>
			<point x="27" y="0"/>
			<point x="-9" y="-4" type="curve"/>
			<point x="-12" y="2"/>
			<point x="-7" y="25"/>
			<point x="-1" y="32" type="curve"/>
			<point x="11" y="33"/>
			<point x="53" y="37"/>
			<point x="60" y="50" type="curve" smooth="yes"/>
			<point x="71" y="70"/>
			<point x="77" y="100"/>
			<point x="85" y="142" type="curve" smooth="yes"/>
			<point x="155" y="501" type="line" smooth="yes"/>
			<point x="163" y="543"/>
			<point x="170" y="573"/>
			<point x="166" y="593" type="curve" smooth="yes"/>
			<point x="164" y="606"/>
			<point x="122" y="607"/>
			<point x="110" y="608" type="curve"/>
			<point x="107" y="615"/>
			<point x="113" y="639"/>
			<point x="118" y="645" type="curve"/>
			<point x="158" y="642"/>
			<point x="209" y="642"/>
		</contour>
		<contour>
			<point x="249" y="330" type="line"/>
			<point x="291" y="330" type="line" smooth="yes"/>
			<point x="343" y="330"/>
			<point x="390" y="364"/>
			<point x="411" y="438" type="curve" smooth="yes"/>
			<point x="431" y="508"/>
			<point x="426" y="605"/>
			<point x="352" y="605" type="curve" smooth="yes"/>
			<point x="331" y="605"/>
			<point x="312" y="605"/>
			<point x="305" y="594" type="curve" smooth="yes"/>
			<point x="298" y="582"/>
			<point x="295" y="562"/>
			<point x="289" y="534" type="curve" smooth="yes"/>
		</contour>
	</outline>
</glyph>
<glyph name="V" format="2">
	<unicode hex="0056"/>
	<advance width="612"/>
	<outline>
		<contour>
			<point x="192" y="640" type="curve" smooth="yes"/>
			<point x="230" y="640"/>
			<point x="286" y="642"/>
			<point x="322" y="646" type="curve"/>
			<point x="325" y="640"/>
			<point x="320" y="617"/>
			<point x="314" y="610" type="curve"/>
			<point x="302" y="609"/>
			<point x="259" y="608"/>
			<point x="254" y="584" type="curve" smooth="yes"/>
			<point x="251" y="568"/>
			<point x="256" y="538"/>
			<point x="262" y="511" type="curve" smooth="yes"/>
			<point x="289" y="381"/>
			<point x="333" y="182"/>
			<point x="333" y="182" type="curve"/>
			<point x="333" y="182"/>
			<point x="501" y="482"/>
			<point x="516" y="509" type="curve" smooth="yes"/>
			<point x="529" y="534"/>
			<point x="548" y="566"/>
			<point x="552" y="587" type="curve" smooth="yes"/>
			<point x="555" y="605"/>
			<point x="495" y="609"/>
			<point x="483" y="610" type="curve"/>
			<point x="480" y="617"/>
			<point x="486" y="640"/>
			<point x="491" y="646" type="curve"/>
			<point x="533" y="642"/>
			<point x="555" y="640"/>
			<point x="597" y="640" type="curve" smooth="yes"/>
			<point x="637" y="640"/>
			<point x="662" y="644"/>
			<point x="700" y="646" type="curve"/>
			<point x="703" y="640"/>
			<point x="699" y="617"/>
			<point x="693" y="610" type="curve"/>
			<point x="681" y="609"/>
			<point x="641" y="609"/>
			<point x="627" y="593" type="curve" smooth="yes"/>
			<point x="609" y="573"/>
			<point x="592" y="544"/>
			<point x="573" y="512" type="curve" smooth="yes"/>
			<point x="461" y="316"/>
			<point x="397" y="210"/>
			<point x="292" y="29" type="curve" smooth="yes"/>
			<point x="281" y="11"/>
			<point x="251" y="-11"/>
			<point x="240" y="-11" type="curve" smooth="yes"/>
			<point x="232" y="-11"/>
			<point x="233" y="-4"/>
			<point x="230" y="3" type="curve"/>
			<point x="129" y="498" type="line" smooth="yes"/>
			<point x="123" y="526"/>
			<point x="116" y="558"/>
			<point x="112" y="578" type="curve" smooth="yes"/>
			<point x="106" y="603"/>
			<point x="68" y="609"/>
			<point x="56" y="610" type="curve"/>
			<point x="53" y="617"/>
			<point x="59" y="640"/>
			<point x="64" y="646" type="curve"/>
			<point x="98" y="642"/>
			<point x="154" y="640"/>
		</contour>
	</outline>
</glyph>
<glyph name="Y" format="2">
  <advance width="562"/>
  <unicode hex="0059"/>
  <outline>
    <contour>
      <point x="186" y="142" type="curve" smooth="yes"/>
      <point x="213" y="277" type="line" smooth="yes"/>
      <point x="214" y="284"/>
      <point x="213" y="289"/>
      <point x="211" y="297" type="curve" smooth="yes"/>
      <point x="198" y="351"/>
      <point x="142" y="524"/>
      <point x="142" y="524" type="curve" smooth="yes"/>
      <point x="133" y="551"/>
      <point x="131" y="558"/>
      <point x="124" y="578" type="curve" smooth="yes"/>
      <point x="115" y="602"/>
      <point x="80" y="609"/>
      <point x="68" y="610" type="curve"/>
      <point x="65" y="617"/>
      <point x="70" y="640"/>
      <point x="75" y="646" type="curve"/>
      <point x="109" y="642"/>
      <point x="166" y="640"/>
      <point x="204" y="640" type="curve" smooth="yes"/>
      <point x="242" y="640"/>
      <point x="297" y="642"/>
      <point x="333" y="646" type="curve"/>
      <point x="336" y="640"/>
      <point x="332" y="617"/>
      <point x="326" y="610" type="curve"/>
      <point x="314" y="609"/>
      <point x="271" y="608"/>
      <point x="266" y="584" type="curve" smooth="yes"/>
      <point x="265" y="580"/>
      <point x="267" y="575"/>
      <point x="269" y="568" type="curve" smooth="yes"/>
      <point x="336" y="353" type="line"/>
      <point x="340" y="348"/>
      <point x="437" y="486"/>
      <point x="492" y="564" type="curve" smooth="yes"/>
      <point x="497" y="572"/>
      <point x="500" y="580"/>
      <point x="501" y="587" type="curve" smooth="yes"/>
      <point x="504" y="605"/>
      <point x="450" y="609"/>
      <point x="438" y="610" type="curve"/>
      <point x="435" y="617"/>
      <point x="440" y="640"/>
      <point x="445" y="646" type="curve"/>
      <point x="487" y="642"/>
      <point x="504" y="640"/>
      <point x="546" y="640" type="curve" smooth="yes"/>
      <point x="586" y="640"/>
      <point x="611" y="644"/>
      <point x="649" y="646" type="curve"/>
      <point x="652" y="640"/>
      <point x="648" y="617"/>
      <point x="642" y="610" type="curve"/>
      <point x="630" y="609"/>
      <point x="588" y="608"/>
      <point x="570" y="586" type="curve" smooth="yes"/>
      <point x="547" y="558"/>
      <point x="385" y="349"/>
      <point x="348" y="291" type="curve" smooth="yes"/>
      <point x="343" y="284"/>
      <point x="340" y="278"/>
      <point x="339" y="272" type="curve" smooth="yes"/>
      <point x="313" y="142" type="line" smooth="yes"/>
      <point x="304" y="100"/>
      <point x="299" y="70"/>
      <point x="303" y="50" type="curve" smooth="yes"/>
      <point x="305" y="37"/>
      <point x="345" y="33"/>
      <point x="357" y="32" type="curve"/>
      <point x="360" y="25"/>
      <point x="355" y="2"/>
      <point x="350" y="-4" type="curve"/>
      <point x="316" y="0"/>
      <point x="260" y="3"/>
      <point x="222" y="3" type="curve" smooth="yes"/>
      <point x="184" y="3"/>
      <point x="129" y="0"/>
      <point x="93" y="-4" type="curve"/>
      <point x="90" y="2"/>
      <point x="94" y="25"/>
      <point x="100" y="32" type="curve"/>
      <point x="112" y="33"/>
      <point x="154" y="37"/>
      <point x="161" y="50" type="curve" smooth="yes"/>
      <point x="172" y="70"/>
      <point x="177" y="100"/>
    </contour>
  </outline>
</glyph>
<glyph name="Z" format="2">
	<unicode hex="005A"/>
	<advance width="593"/>
	<outline>
		<contour>
			<point x="284" y="596" type="line" smooth="yes"/>
			<point x="187" y="596"/>
			<point x="159" y="524"/>
			<point x="127" y="463" type="curve" smooth="yes"/>
			<point x="125" y="460"/>
			<point x="123" y="457"/>
			<point x="114" y="457" type="curve" smooth="yes"/>
			<point x="104" y="457"/>
			<point x="91" y="459"/>
			<point x="89" y="462" type="curve"/>
			<point x="110" y="519"/>
			<point x="136" y="584"/>
			<point x="157" y="646" type="curve"/>
			<point x="171" y="642"/>
			<point x="262" y="640"/>
			<point x="275" y="640" type="curve" smooth="yes"/>
			<point x="402" y="641" type="line" smooth="yes"/>
			<point x="478" y="642"/>
			<point x="538" y="644"/>
			<point x="615" y="650" type="curve"/>
			<point x="619" y="649"/>
			<point x="620" y="628"/>
			<point x="618" y="618" type="curve"/>
			<point x="615" y="610"/>
			<point x="153" y="46"/>
			<point x="153" y="46" type="curve"/>
			<point x="349" y="46" type="line" smooth="yes"/>
			<point x="383" y="46"/>
			<point x="417" y="58"/>
			<point x="442" y="80" type="curve" smooth="yes"/>
			<point x="465" y="101"/>
			<point x="483" y="122"/>
			<point x="507" y="166" type="curve" smooth="yes"/>
			<point x="509" y="170"/>
			<point x="513" y="172"/>
			<point x="520" y="172" type="curve" smooth="yes"/>
			<point x="529" y="172"/>
			<point x="545" y="169"/>
			<point x="547" y="166" type="curve"/>
			<point x="523" y="114"/>
			<point x="483" y="43"/>
			<point x="466" y="1" type="curve"/>
			<point x="428" y="1"/>
			<point x="-1" y="0"/>
			<point x="-1" y="0" type="curve"/>
			<point x="-13" y="0"/>
			<point x="-25" y="17"/>
			<point x="-21" y="21" type="curve" smooth="yes"/>
			<point x="451" y="596" type="line"/>
		</contour>
	</outline>
</glyph>
<glyph name="underscore" format="2">
	<unicode hex="005F"/>
	<advance width="481"/>
	<outline>
		<contour>
			<point x="8" y="-32" type="curve"/>
			<point x="8" y="-32"/>
			<point x="12" y="13"/>
			<point x="22" y="13" type="curve" smooth="yes"/>
			<point x="461" y="13" type="line" smooth="yes"/>
			<point x="463" y="13"/>
			<point x="465" y="12"/>
			<point x="465" y="8" type="curve" smooth="yes"/>
			<point x="465" y="-1"/>
			<point x="461" y="-15"/>
			<point x="455" y="-36" type="curve" smooth="yes"/>
			<point x="453" y="-42"/>
			<point x="449" y="-42"/>
			<point x="449" y="-42" type="curve"/>
			<point x="15" y="-42" type="line"/>
			<point x="15" y="-42"/>
			<point x="8" y="-42"/>
		</contour>
	</outline>
</glyph>
<glyph name="a" format="2">
  <advance width="477"/>
  <unicode hex="0061"/>
  <outline>
    <contour>
      <point x="311" y="438" type="curve" smooth="yes"/>
      <point x="346" y="438"/>
      <point x="395" y="428"/>
      <point x="415" y="421" type="curve"/>
      <point x="354" y="129" type="line" smooth="yes"/>
      <point x="353" y="125"/>
      <point x="351" y="102"/>
      <point x="351" y="97" type="curve" smooth="yes"/>
      <point x="351" y="88"/>
      <point x="354" y="76"/>
      <point x="364" y="76" type="curve" smooth="yes"/>
      <point x="385" y="76"/>
      <point x="431" y="130"/>
      <point x="434" y="136" type="curve"/>
      <point x="441" y="136"/>
      <point x="447" y="115"/>
      <point x="447" y="109" type="curve"/>
      <point x="430" y="78"/>
      <point x="345" y="-8"/>
      <point x="292" y="-8" type="curve" smooth="yes"/>
      <point x="258" y="-8"/>
      <point x="231" y="14"/>
      <point x="231" y="57" type="curve" smooth="yes"/>
      <point x="231" y="61"/>
      <point x="232" y="68"/>
      <point x="233" y="75" type="curve" smooth="yes"/>
      <point x="234" y="83"/>
      <point x="236" y="90"/>
      <point x="237" y="94" type="curve"/>
      <point x="216" y="58"/>
      <point x="154" y="-7"/>
      <point x="95" y="-7" type="curve" smooth="yes"/>
      <point x="40" y="-7"/>
      <point x="11" y="46"/>
      <point x="11" y="112" type="curve" smooth="yes"/>
      <point x="11" y="287"/>
      <point x="187" y="438"/>
    </contour>
    <contour>
      <point x="256" y="385" type="curve" smooth="yes"/>
      <point x="190" y="385"/>
      <point x="134" y="263"/>
      <point x="134" y="148" type="curve" smooth="yes"/>
      <point x="134" y="101"/>
      <point x="148" y="79"/>
      <point x="169" y="79" type="curve" smooth="yes"/>
      <point x="202" y="79"/>
      <point x="251" y="177"/>
      <point x="271" y="274" type="curve" smooth="yes"/>
      <point x="290" y="373" type="line"/>
      <point x="283" y="381"/>
      <point x="270" y="385"/>
    </contour>
  </outline>
</glyph>
<glyph name="b" format="2">
  <advance width="454"/>
  <unicode hex="0062"/>
  <outline>
    <contour>
      <point x="273" y="353" type="curve" smooth="yes"/>
      <point x="229" y="353"/>
      <point x="171" y="249"/>
      <point x="154" y="163" type="curve" smooth="yes"/>
      <point x="143" y="108"/>
      <point x="144" y="38"/>
      <point x="179" y="38" type="curve" smooth="yes"/>
      <point x="241" y="38"/>
      <point x="301" y="201"/>
      <point x="301" y="295" type="curve" smooth="yes"/>
      <point x="301" y="319"/>
      <point x="296" y="353"/>
    </contour>
    <contour>
      <point x="186" y="328" type="line"/>
      <point x="213" y="370"/>
      <point x="291" y="438"/>
      <point x="338" y="438" type="curve" smooth="yes"/>
      <point x="393" y="438"/>
      <point x="427" y="400"/>
      <point x="427" y="329" type="curve" smooth="yes"/>
      <point x="427" y="145"/>
      <point x="258" y="-6"/>
      <point x="147" y="-6" type="curve" smooth="yes"/>
      <point x="85" y="-6"/>
      <point x="34" y="37"/>
      <point x="34" y="104" type="curve" smooth="yes"/>
      <point x="34" y="117"/>
      <point x="37" y="144"/>
      <point x="40" y="158" type="curve" smooth="yes"/>
      <point x="116" y="547" type="line" smooth="yes"/>
      <point x="120" y="565"/>
      <point x="125" y="588"/>
      <point x="125" y="599" type="curve" smooth="yes"/>
      <point x="125" y="618"/>
      <point x="81" y="617"/>
      <point x="65" y="617" type="curve"/>
      <point x="62" y="621"/>
      <point x="65" y="642"/>
      <point x="69" y="646" type="curve"/>
      <point x="123" y="651"/>
      <point x="224" y="672"/>
      <point x="245" y="680" type="curve"/>
      <point x="250" y="677"/>
      <point x="251" y="667"/>
      <point x="251" y="661" type="curve" smooth="yes"/>
      <point x="251" y="653"/>
      <point x="243" y="611"/>
      <point x="238" y="588" type="curve" smooth="yes"/>
    </contour>
  </outline>
</glyph>
<glyph name="c" format="2">
  <advance width="368"/>
  <unicode hex="0063"/>
  <outline>
    <contour>
      <point x="260" y="438" type="curve" smooth="yes"/>
      <point x="299" y="438"/>
      <point x="333" y="427"/>
      <point x="346" y="417" type="curve"/>
      <point x="352" y="408"/>
      <point x="360" y="390"/>
      <point x="360" y="368" type="curve" smooth="yes"/>
      <point x="360" y="339"/>
      <point x="335" y="309"/>
      <point x="306" y="309" type="curve" smooth="yes"/>
      <point x="282" y="309"/>
      <point x="266" y="326"/>
      <point x="256" y="345" type="curve" smooth="yes"/>
      <point x="247" y="362"/>
      <point x="234" y="390"/>
      <point x="213" y="390" type="curve" smooth="yes"/>
      <point x="177" y="390"/>
      <point x="138" y="269"/>
      <point x="138" y="166" type="curve" smooth="yes"/>
      <point x="138" y="100"/>
      <point x="159" y="75"/>
      <point x="198" y="75" type="curve" smooth="yes"/>
      <point x="242" y="75"/>
      <point x="293" y="134"/>
      <point x="296" y="137" type="curve"/>
      <point x="304" y="137"/>
      <point x="309" y="117"/>
      <point x="309" y="111" type="curve"/>
      <point x="294" y="89"/>
      <point x="206" y="-6"/>
      <point x="132" y="-6" type="curve" smooth="yes"/>
      <point x="74" y="-6"/>
      <point x="15" y="36"/>
      <point x="15" y="128" type="curve" smooth="yes"/>
      <point x="15" y="280"/>
      <point x="143" y="438"/>
    </contour>
  </outline>
</glyph>
<glyph name="d" format="2">
	<unicode hex="0064"/>
	<advance width="475"/>
	<outline>
		<contour>
			<point x="280" y="345" type="curve" smooth="yes"/>
			<point x="280" y="374"/>
			<point x="272" y="385"/>
			<point x="255" y="385" type="curve" smooth="yes"/>
			<point x="189" y="385"/>
			<point x="133" y="263"/>
			<point x="133" y="148" type="curve" smooth="yes"/>
			<point x="133" y="101"/>
			<point x="147" y="79"/>
			<point x="168" y="79" type="curve" smooth="yes"/>
			<point x="201" y="79"/>
			<point x="258" y="196"/>
			<point x="270" y="274" type="curve" smooth="yes"/>
			<point x="270" y="274"/>
			<point x="280" y="332"/>
		</contour>
		<contour>
			<point x="324" y="547" type="line" smooth="yes"/>
			<point x="327" y="565"/>
			<point x="333" y="588"/>
			<point x="333" y="599" type="curve" smooth="yes"/>
			<point x="333" y="618"/>
			<point x="289" y="617"/>
			<point x="273" y="617" type="curve"/>
			<point x="270" y="621"/>
			<point x="273" y="642"/>
			<point x="277" y="646" type="curve"/>
			<point x="331" y="651"/>
			<point x="432" y="672"/>
			<point x="453" y="680" type="curve"/>
			<point x="458" y="677"/>
			<point x="459" y="667"/>
			<point x="459" y="661" type="curve" smooth="yes"/>
			<point x="459" y="653"/>
			<point x="451" y="611"/>
			<point x="446" y="588" type="curve" smooth="yes"/>
			<point x="354" y="129" type="line" smooth="yes"/>
			<point x="353" y="125"/>
			<point x="350" y="102"/>
			<point x="350" y="97" type="curve" smooth="yes"/>
			<point x="350" y="88"/>
			<point x="353" y="76"/>
			<point x="363" y="76" type="curve" smooth="yes"/>
			<point x="384" y="76"/>
			<point x="430" y="130"/>
			<point x="433" y="136" type="curve"/>
			<point x="440" y="136"/>
			<point x="446" y="115"/>
			<point x="446" y="109" type="curve"/>
			<point x="429" y="78"/>
			<point x="344" y="-8"/>
			<point x="291" y="-8" type="curve" smooth="yes"/>
			<point x="270" y="-8"/>
			<point x="253" y="0"/>
			<point x="242" y="16" type="curve" smooth="yes"/>
			<point x="236" y="25"/>
			<point x="230" y="36"/>
			<point x="230" y="57" type="curve" smooth="yes"/>
			<point x="230" y="65"/>
			<point x="234" y="86"/>
			<point x="236" y="94" type="curve"/>
			<point x="215" y="58"/>
			<point x="153" y="-7"/>
			<point x="94" y="-7" type="curve" smooth="yes"/>
			<point x="39" y="-7"/>
			<point x="10" y="46"/>
			<point x="10" y="112" type="curve" smooth="yes"/>
			<point x="10" y="275"/>
			<point x="165" y="419"/>
			<point x="286" y="438" type="curve" smooth="yes"/>
			<point x="292" y="439"/>
			<point x="297" y="438"/>
			<point x="303" y="438" type="curve"/>
		</contour>
	</outline>
</glyph>
<glyph name="e" format="2">
  <advance width="384"/>
  <unicode hex="0065"/>
  <outline>
    <contour>
      <point x="262" y="438" type="curve" smooth="yes"/>
      <point x="312" y="438"/>
      <point x="370" y="417"/>
      <point x="370" y="349" type="curve" smooth="yes"/>
      <point x="370" y="248"/>
      <point x="200" y="184"/>
      <point x="139" y="184" type="curve"/>
      <point x="138" y="181"/>
      <point x="137" y="164"/>
      <point x="137" y="159" type="curve" smooth="yes"/>
      <point x="137" y="123"/>
      <point x="147" y="75"/>
      <point x="196" y="75" type="curve" smooth="yes"/>
      <point x="240" y="75"/>
      <point x="292" y="136"/>
      <point x="295" y="139" type="curve"/>
      <point x="304" y="139"/>
      <point x="310" y="115"/>
      <point x="310" y="109" type="curve"/>
      <point x="297" y="88"/>
      <point x="190" y="-6"/>
      <point x="128" y="-6" type="curve" smooth="yes"/>
      <point x="59" y="-6"/>
      <point x="16" y="46"/>
      <point x="16" y="137" type="curve" smooth="yes"/>
      <point x="16" y="282"/>
      <point x="150" y="438"/>
    </contour>
    <contour>
      <point x="142" y="221" type="curve"/>
      <point x="180" y="221"/>
      <point x="254" y="292"/>
      <point x="254" y="364" type="curve" smooth="yes"/>
      <point x="254" y="382"/>
      <point x="250" y="402"/>
      <point x="229" y="402" type="curve" smooth="yes"/>
      <point x="182" y="402"/>
      <point x="147" y="271"/>
    </contour>
  </outline>
</glyph>
<glyph name="f" format="2">
  <advance width="310"/>
  <unicode hex="0066"/>
  <outline>
    <contour>
      <point x="335" y="679" type="curve" smooth="yes"/>
      <point x="368" y="679"/>
      <point x="396" y="669"/>
      <point x="407" y="661" type="curve"/>
      <point x="412" y="653"/>
      <point x="416" y="642"/>
      <point x="416" y="629" type="curve" smooth="yes"/>
      <point x="416" y="605"/>
      <point x="401" y="581"/>
      <point x="379" y="581" type="curve" smooth="yes"/>
      <point x="362" y="581"/>
      <point x="349" y="589"/>
      <point x="338" y="604" type="curve" smooth="yes"/>
      <point x="329" y="617"/>
      <point x="320" y="634"/>
      <point x="302" y="634" type="curve" smooth="yes"/>
      <point x="272" y="634"/>
      <point x="256" y="569"/>
      <point x="226" y="414" type="curve"/>
      <point x="323" y="414" type="line" smooth="yes"/>
      <point x="327" y="414"/>
      <point x="328" y="407"/>
      <point x="328" y="402" type="curve" smooth="yes"/>
      <point x="328" y="392"/>
      <point x="322" y="377"/>
      <point x="317" y="369" type="curve"/>
      <point x="217" y="369" type="line"/>
      <point x="217" y="369"/>
      <point x="186" y="180"/>
      <point x="163" y="57" type="curve" smooth="yes"/>
      <point x="132" y="-103"/>
      <point x="21" y="-213"/>
      <point x="-57" y="-213" type="curve" smooth="yes"/>
      <point x="-90" y="-213"/>
      <point x="-118" y="-203"/>
      <point x="-129" y="-195" type="curve"/>
      <point x="-134" y="-187"/>
      <point x="-138" y="-176"/>
      <point x="-138" y="-163" type="curve" smooth="yes"/>
      <point x="-138" y="-139"/>
      <point x="-123" y="-115"/>
      <point x="-101" y="-115" type="curve" smooth="yes"/>
      <point x="-84" y="-115"/>
      <point x="-71" y="-124"/>
      <point x="-60" y="-139" type="curve" smooth="yes"/>
      <point x="-51" y="-152"/>
      <point x="-41" y="-168"/>
      <point x="-23" y="-168" type="curve" smooth="yes"/>
      <point x="15" y="-168"/>
      <point x="20" y="-102"/>
      <point x="50" y="53" type="curve"/>
      <point x="104" y="369" type="line"/>
      <point x="41" y="369" type="line" smooth="yes"/>
      <point x="40" y="369"/>
      <point x="39" y="370"/>
      <point x="39" y="372" type="curve" smooth="yes"/>
      <point x="39" y="382"/>
      <point x="64" y="414"/>
      <point x="86" y="414" type="curve" smooth="yes"/>
      <point x="112" y="414" type="line"/>
      <point x="143" y="574"/>
      <point x="270" y="679"/>
    </contour>
  </outline>
</glyph>
<glyph name="g" format="2">
  <advance width="433"/>
  <unicode hex="0067"/>
  <outline>
    <contour>
      <point x="268" y="-110" type="curve" smooth="yes"/>
      <point x="268" y="-70"/>
      <point x="170" y="-32"/>
      <point x="112" y="-14" type="curve"/>
      <point x="77" y="-33"/>
      <point x="58" y="-52"/>
      <point x="58" y="-82" type="curve" smooth="yes"/>
      <point x="58" y="-145"/>
      <point x="109" y="-174"/>
      <point x="168" y="-174" type="curve" smooth="yes"/>
      <point x="206" y="-174"/>
      <point x="268" y="-153"/>
    </contour>
    <contour>
      <point x="229" y="409" type="curve" smooth="yes"/>
      <point x="181" y="411"/>
      <point x="154" y="336"/>
      <point x="151" y="271" type="curve" smooth="yes"/>
      <point x="149" y="225"/>
      <point x="158" y="176"/>
      <point x="194" y="174" type="curve" smooth="yes"/>
      <point x="237" y="172"/>
      <point x="271" y="236"/>
      <point x="273" y="295" type="curve" smooth="yes"/>
      <point x="275" y="341"/>
      <point x="267" y="407"/>
    </contour>
    <contour>
      <point x="355" y="385" type="curve"/>
      <point x="359" y="379"/>
      <point x="383" y="352"/>
      <point x="383" y="302" type="curve" smooth="yes"/>
      <point x="383" y="210"/>
      <point x="295" y="156"/>
      <point x="248" y="137" type="curve" smooth="yes"/>
      <point x="221" y="126"/>
      <point x="184" y="124"/>
      <point x="184" y="103" type="curve" smooth="yes"/>
      <point x="184" y="74"/>
      <point x="369" y="59"/>
      <point x="369" y="-39" type="curve" smooth="yes"/>
      <point x="369" y="-132"/>
      <point x="261" y="-221"/>
      <point x="118" y="-221" type="curve" smooth="yes"/>
      <point x="11" y="-221"/>
      <point x="-56" y="-169"/>
      <point x="-56" y="-107" type="curve" smooth="yes"/>
      <point x="-56" y="-38"/>
      <point x="30" y="-13"/>
      <point x="77" y="4" type="curve"/>
      <point x="77" y="4"/>
      <point x="40" y="20"/>
      <point x="33" y="27" type="curve" smooth="yes"/>
      <point x="25" y="35"/>
      <point x="19" y="36"/>
      <point x="19" y="55" type="curve" smooth="yes"/>
      <point x="19" y="79"/>
      <point x="113" y="130"/>
      <point x="160" y="141" type="curve"/>
      <point x="99" y="157"/>
      <point x="40" y="194"/>
      <point x="40" y="271" type="curve" smooth="yes"/>
      <point x="40" y="368"/>
      <point x="122" y="447"/>
      <point x="218" y="447" type="curve"/>
      <point x="256" y="447"/>
      <point x="287" y="435"/>
      <point x="311" y="424" type="curve" smooth="yes"/>
      <point x="320" y="420"/>
      <point x="382" y="436"/>
      <point x="395" y="438" type="curve"/>
      <point x="408" y="434"/>
      <point x="444" y="414"/>
      <point x="444" y="402" type="curve" smooth="yes"/>
      <point x="444" y="395"/>
      <point x="437" y="385"/>
      <point x="429" y="385" type="curve" smooth="yes"/>
      <point x="415" y="385"/>
      <point x="368" y="385"/>
    </contour>
  </outline>
</glyph>
<glyph name="h" format="2">
  <advance width="492"/>
  <unicode hex="0068"/>
  <outline>
    <contour>
      <point x="241" y="588" type="curve" smooth="yes"/>
      <point x="241" y="588"/>
      <point x="188" y="316"/>
      <point x="186" y="307" type="curve" smooth="yes"/>
      <point x="183" y="295"/>
      <point x="180" y="278"/>
      <point x="178" y="268" type="curve"/>
      <point x="207" y="334"/>
      <point x="294" y="438"/>
      <point x="343" y="438" type="curve" smooth="yes"/>
      <point x="398" y="438"/>
      <point x="413" y="410"/>
      <point x="413" y="354" type="curve" smooth="yes"/>
      <point x="413" y="321"/>
      <point x="399" y="253"/>
      <point x="394" y="228" type="curve" smooth="yes"/>
      <point x="375" y="129" type="line" smooth="yes"/>
      <point x="374" y="125"/>
      <point x="371" y="102"/>
      <point x="371" y="97" type="curve" smooth="yes"/>
      <point x="371" y="88"/>
      <point x="375" y="76"/>
      <point x="385" y="76" type="curve" smooth="yes"/>
      <point x="406" y="76"/>
      <point x="451" y="130"/>
      <point x="454" y="136" type="curve"/>
      <point x="461" y="136"/>
      <point x="468" y="115"/>
      <point x="468" y="109" type="curve"/>
      <point x="451" y="78"/>
      <point x="365" y="-8"/>
      <point x="312" y="-8" type="curve" smooth="yes"/>
      <point x="280" y="-8"/>
      <point x="251" y="12"/>
      <point x="251" y="62" type="curve" smooth="yes"/>
      <point x="251" y="76"/>
      <point x="258" y="112"/>
      <point x="260" y="120" type="curve"/>
      <point x="282" y="236" type="line" smooth="yes"/>
      <point x="285" y="248"/>
      <point x="294" y="301"/>
      <point x="294" y="311" type="curve" smooth="yes"/>
      <point x="294" y="321"/>
      <point x="289" y="331"/>
      <point x="278" y="331" type="curve" smooth="yes"/>
      <point x="250" y="331"/>
      <point x="173" y="213"/>
      <point x="146" y="89" type="curve" smooth="yes"/>
      <point x="127" y="0" type="line"/>
      <point x="117" y="-3"/>
      <point x="83" y="-6"/>
      <point x="72" y="-6" type="curve" smooth="yes"/>
      <point x="61" y="-6"/>
      <point x="27" y="-3"/>
      <point x="15" y="0" type="curve"/>
      <point x="21" y="30"/>
      <point x="118" y="541"/>
      <point x="119" y="547" type="curve" smooth="yes"/>
      <point x="123" y="566"/>
      <point x="128" y="588"/>
      <point x="128" y="599" type="curve" smooth="yes"/>
      <point x="128" y="618"/>
      <point x="84" y="617"/>
      <point x="68" y="617" type="curve"/>
      <point x="65" y="621"/>
      <point x="68" y="642"/>
      <point x="72" y="646" type="curve"/>
      <point x="126" y="651"/>
      <point x="227" y="672"/>
      <point x="248" y="680" type="curve"/>
      <point x="253" y="677"/>
      <point x="254" y="667"/>
      <point x="254" y="661" type="curve" smooth="yes"/>
      <point x="254" y="653"/>
      <point x="244" y="602"/>
    </contour>
  </outline>
</glyph>
<glyph name="k" format="2">
	<unicode hex="006B"/>
	<advance width="491"/>
	<outline>
		<contour>
			<point x="367" y="438" type="curve" smooth="yes"/>
			<point x="424" y="438"/>
			<point x="447" y="413"/>
			<point x="447" y="368" type="curve" smooth="yes"/>
			<point x="447" y="304"/>
			<point x="352" y="249"/>
			<point x="279" y="225" type="curve"/>
			<point x="296" y="178"/>
			<point x="339" y="80"/>
			<point x="381" y="80" type="curve" smooth="yes"/>
			<point x="404" y="80"/>
			<point x="439" y="124"/>
			<point x="447" y="135" type="curve"/>
			<point x="457" y="135"/>
			<point x="461" y="114"/>
			<point x="461" y="109" type="curve"/>
			<point x="451" y="83"/>
			<point x="372" y="-4"/>
			<point x="313" y="-4" type="curve" smooth="yes"/>
			<point x="238" y="-4"/>
			<point x="188" y="134"/>
			<point x="167" y="203" type="curve"/>
			<point x="152" y="130"/>
			<point x="127" y="0"/>
			<point x="127" y="0" type="curve"/>
			<point x="117" y="-3"/>
			<point x="83" y="-6"/>
			<point x="72" y="-6" type="curve" smooth="yes"/>
			<point x="61" y="-6"/>
			<point x="27" y="-3"/>
			<point x="15" y="0" type="curve"/>
			<point x="21" y="30"/>
			<point x="118" y="541"/>
			<point x="119" y="547" type="curve" smooth="yes"/>
			<point x="123" y="566"/>
			<point x="128" y="588"/>
			<point x="128" y="599" type="curve" smooth="yes"/>
			<point x="128" y="618"/>
			<point x="84" y="617"/>
			<point x="68" y="617" type="curve"/>
			<point x="65" y="621"/>
			<point x="68" y="642"/>
			<point x="72" y="646" type="curve"/>
			<point x="126" y="651"/>
			<point x="227" y="672"/>
			<point x="248" y="680" type="curve"/>
			<point x="253" y="677"/>
			<point x="254" y="667"/>
			<point x="254" y="661" type="curve" smooth="yes"/>
			<point x="254" y="653"/>
			<point x="244" y="602"/>
			<point x="241" y="588" type="curve" smooth="yes"/>
			<point x="193" y="333" type="line"/>
			<point x="205" y="358"/>
			<point x="285" y="438"/>
		</contour>
		<contour>
			<point x="294" y="365" type="curve" smooth="yes"/>
			<point x="236" y="365"/>
			<point x="175" y="265"/>
			<point x="175" y="242" type="curve"/>
			<point x="236" y="242"/>
			<point x="321" y="281"/>
			<point x="321" y="334" type="curve" smooth="yes"/>
			<point x="321" y="344"/>
			<point x="316" y="365"/>
		</contour>
	</outline>
</glyph>
<glyph name="l" format="2">
  <advance width="276"/>
  <unicode hex="006C"/>
  <outline>
    <contour>
      <point x="122" y="547" type="line" smooth="yes"/>
      <point x="125" y="565"/>
      <point x="131" y="588"/>
      <point x="131" y="599" type="curve" smooth="yes"/>
      <point x="131" y="618"/>
      <point x="87" y="617"/>
      <point x="71" y="617" type="curve"/>
      <point x="68" y="621"/>
      <point x="71" y="642"/>
      <point x="75" y="646" type="curve"/>
      <point x="129" y="651"/>
      <point x="230" y="672"/>
      <point x="251" y="680" type="curve"/>
      <point x="256" y="677"/>
      <point x="257" y="667"/>
      <point x="257" y="661" type="curve" smooth="yes"/>
      <point x="257" y="653"/>
      <point x="249" y="611"/>
      <point x="244" y="588" type="curve" smooth="yes"/>
      <point x="154" y="129" type="line" smooth="yes"/>
      <point x="153" y="123"/>
      <point x="150" y="102"/>
      <point x="150" y="97" type="curve" smooth="yes"/>
      <point x="150" y="88"/>
      <point x="154" y="76"/>
      <point x="164" y="76" type="curve" smooth="yes"/>
      <point x="185" y="76"/>
      <point x="230" y="130"/>
      <point x="233" y="136" type="curve"/>
      <point x="240" y="136"/>
      <point x="247" y="115"/>
      <point x="247" y="109" type="curve"/>
      <point x="230" y="78"/>
      <point x="145" y="-8"/>
      <point x="92" y="-8" type="curve" smooth="yes"/>
      <point x="60" y="-8"/>
      <point x="30" y="12"/>
      <point x="30" y="62" type="curve" smooth="yes"/>
      <point x="30" y="76"/>
      <point x="37" y="112"/>
      <point x="39" y="120" type="curve"/>
    </contour>
  </outline>
</glyph>
<glyph name="m" format="2">
	<unicode hex="006D"/>
	<advance width="737"/>
	<outline>
		<contour>
			<point x="505" y="120" type="curve" smooth="yes"/>
			<point x="515" y="164"/>
			<point x="530" y="236"/>
			<point x="530" y="236" type="curve" smooth="yes"/>
			<point x="533" y="248"/>
			<point x="542" y="301"/>
			<point x="542" y="311" type="curve" smooth="yes"/>
			<point x="542" y="321"/>
			<point x="537" y="331"/>
			<point x="526" y="331" type="curve" smooth="yes"/>
			<point x="498" y="331"/>
			<point x="422" y="213"/>
			<point x="395" y="89" type="curve"/>
			<point x="375" y="0" type="line"/>
			<point x="365" y="-3"/>
			<point x="331" y="-6"/>
			<point x="320" y="-6" type="curve" smooth="yes"/>
			<point x="309" y="-6"/>
			<point x="275" y="-3"/>
			<point x="263" y="0" type="curve"/>
			<point x="313" y="236" type="line" smooth="yes"/>
			<point x="316" y="248"/>
			<point x="325" y="301"/>
			<point x="325" y="311" type="curve" smooth="yes"/>
			<point x="325" y="321"/>
			<point x="321" y="331"/>
			<point x="310" y="331" type="curve" smooth="yes"/>
			<point x="282" y="331"/>
			<point x="205" y="213"/>
			<point x="178" y="89" type="curve" smooth="yes"/>
			<point x="158" y="0" type="line"/>
			<point x="148" y="-3"/>
			<point x="115" y="-6"/>
			<point x="104" y="-6" type="curve" smooth="yes"/>
			<point x="93" y="-6"/>
			<point x="58" y="-3"/>
			<point x="46" y="0" type="curve"/>
			<point x="104" y="302" type="line" smooth="yes"/>
			<point x="105" y="306"/>
			<point x="108" y="329"/>
			<point x="108" y="334" type="curve" smooth="yes"/>
			<point x="108" y="343"/>
			<point x="104" y="354"/>
			<point x="94" y="354" type="curve" smooth="yes"/>
			<point x="73" y="354"/>
			<point x="27" y="301"/>
			<point x="24" y="295" type="curve"/>
			<point x="17" y="295"/>
			<point x="11" y="315"/>
			<point x="11" y="321" type="curve"/>
			<point x="28" y="352"/>
			<point x="109" y="438"/>
			<point x="162" y="438" type="curve" smooth="yes"/>
			<point x="201" y="438"/>
			<point x="228" y="414"/>
			<point x="228" y="369" type="curve" smooth="yes"/>
			<point x="228" y="355"/>
			<point x="221" y="321"/>
			<point x="219" y="311" type="curve" smooth="yes"/>
			<point x="217" y="299"/>
			<point x="209" y="268"/>
			<point x="209" y="268" type="curve"/>
			<point x="238" y="334"/>
			<point x="325" y="438"/>
			<point x="374" y="438" type="curve" smooth="yes"/>
			<point x="429" y="438"/>
			<point x="444" y="410"/>
			<point x="444" y="354" type="curve" smooth="yes"/>
			<point x="444" y="338"/>
			<point x="442" y="313"/>
			<point x="438" y="290" type="curve"/>
			<point x="474" y="355"/>
			<point x="547" y="438"/>
			<point x="591" y="438" type="curve" smooth="yes"/>
			<point x="646" y="438"/>
			<point x="661" y="410"/>
			<point x="661" y="354" type="curve" smooth="yes"/>
			<point x="661" y="318"/>
			<point x="647" y="254"/>
			<point x="642" y="228" type="curve" smooth="yes"/>
			<point x="637" y="204"/>
			<point x="625" y="156"/>
			<point x="620" y="129" type="curve" smooth="yes"/>
			<point x="618" y="119"/>
			<point x="616" y="102"/>
			<point x="616" y="97" type="curve" smooth="yes"/>
			<point x="616" y="88"/>
			<point x="620" y="76"/>
			<point x="630" y="76" type="curve" smooth="yes"/>
			<point x="651" y="76"/>
			<point x="696" y="130"/>
			<point x="699" y="136" type="curve"/>
			<point x="706" y="136"/>
			<point x="713" y="115"/>
			<point x="713" y="109" type="curve"/>
			<point x="696" y="78"/>
			<point x="611" y="-8"/>
			<point x="558" y="-8" type="curve" smooth="yes"/>
			<point x="526" y="-8"/>
			<point x="496" y="12"/>
			<point x="496" y="62" type="curve" smooth="yes"/>
			<point x="496" y="76"/>
			<point x="503" y="112"/>
		</contour>
	</outline>
</glyph>
<glyph name="n" format="2">
  <advance width="523"/>
  <unicode hex="006E"/>
  <outline>
    <contour>
      <point x="219" y="311" type="curve" smooth="yes"/>
      <point x="217" y="299"/>
      <point x="209" y="267"/>
      <point x="209" y="268" type="curve"/>
      <point x="238" y="334"/>
      <point x="325" y="438"/>
      <point x="374" y="438" type="curve" smooth="yes"/>
      <point x="429" y="438"/>
      <point x="444" y="410"/>
      <point x="444" y="354" type="curve" smooth="yes"/>
      <point x="444" y="321"/>
      <point x="430" y="253"/>
      <point x="425" y="228" type="curve" smooth="yes"/>
      <point x="406" y="129" type="line" smooth="yes"/>
      <point x="405" y="125"/>
      <point x="402" y="102"/>
      <point x="402" y="97" type="curve" smooth="yes"/>
      <point x="402" y="88"/>
      <point x="406" y="76"/>
      <point x="416" y="76" type="curve" smooth="yes"/>
      <point x="437" y="76"/>
      <point x="482" y="130"/>
      <point x="485" y="136" type="curve"/>
      <point x="492" y="136"/>
      <point x="499" y="115"/>
      <point x="499" y="109" type="curve"/>
      <point x="482" y="78"/>
      <point x="397" y="-8"/>
      <point x="344" y="-8" type="curve" smooth="yes"/>
      <point x="312" y="-8"/>
      <point x="282" y="12"/>
      <point x="282" y="62" type="curve" smooth="yes"/>
      <point x="282" y="76"/>
      <point x="289" y="112"/>
      <point x="291" y="120" type="curve"/>
      <point x="313" y="236" type="line" smooth="yes"/>
      <point x="316" y="248"/>
      <point x="325" y="301"/>
      <point x="325" y="311" type="curve" smooth="yes"/>
      <point x="325" y="321"/>
      <point x="321" y="331"/>
      <point x="310" y="331" type="curve" smooth="yes"/>
      <point x="282" y="331"/>
      <point x="205" y="213"/>
      <point x="178" y="89" type="curve" smooth="yes"/>
      <point x="158" y="0" type="line"/>
      <point x="148" y="-3"/>
      <point x="115" y="-6"/>
      <point x="104" y="-6" type="curve" smooth="yes"/>
      <point x="93" y="-6"/>
      <point x="58" y="-3"/>
      <point x="46" y="0" type="curve"/>
      <point x="104" y="302" type="line" smooth="yes"/>
      <point x="105" y="306"/>
      <point x="108" y="329"/>
      <point x="108" y="334" type="curve" smooth="yes"/>
      <point x="108" y="343"/>
      <point x="104" y="354"/>
      <point x="94" y="354" type="curve" smooth="yes"/>
      <point x="73" y="354"/>
      <point x="27" y="301"/>
      <point x="24" y="295" type="curve"/>
      <point x="17" y="295"/>
      <point x="11" y="315"/>
      <point x="11" y="321" type="curve"/>
      <point x="28" y="352"/>
      <point x="109" y="438"/>
      <point x="162" y="438" type="curve" smooth="yes"/>
      <point x="201" y="438"/>
      <point x="228" y="414"/>
      <point x="228" y="369" type="curve" smooth="yes"/>
      <point x="228" y="355"/>
      <point x="221" y="321"/>
    </contour>
  </outline>
</glyph>
<glyph name="q" format="2">
	<unicode hex="0071"/>
	<advance width="443"/>
	<outline>
		<contour>
			<point x="349" y="-206" type="curve"/>
			<point x="335" y="-206"/>
			<point x="283" y="-205"/>
			<point x="270" y="-205" type="curve" smooth="yes"/>
			<point x="213" y="-205"/>
			<point x="157" y="-211"/>
			<point x="121" y="-215" type="curve"/>
			<point x="119" y="-213"/>
			<point x="119" y="-184"/>
			<point x="125" y="-184" type="curve" smooth="yes"/>
			<point x="153" y="-181"/>
			<point x="181" y="-168"/>
			<point x="186" y="-143" type="curve" smooth="yes"/>
			<point x="229" y="82" type="line"/>
			<point x="208" y="48"/>
			<point x="150" y="-7"/>
			<point x="93" y="-7" type="curve" smooth="yes"/>
			<point x="35" y="-7"/>
			<point x="11" y="54"/>
			<point x="11" y="111" type="curve" smooth="yes"/>
			<point x="11" y="269"/>
			<point x="168" y="438"/>
			<point x="314" y="438" type="curve" smooth="yes"/>
			<point x="348" y="438"/>
			<point x="384" y="433"/>
			<point x="409" y="417" type="curve"/>
			<point x="355" y="136" type="line" smooth="yes"/>
			<point x="354" y="132"/>
			<point x="305" y="-130"/>
			<point x="305" y="-130" type="curve" smooth="yes"/>
			<point x="304" y="-137"/>
			<point x="303" y="-144"/>
			<point x="303" y="-150" type="curve" smooth="yes"/>
			<point x="303" y="-166"/>
			<point x="310" y="-177"/>
			<point x="353" y="-177" type="curve" smooth="yes"/>
			<point x="357" y="-177"/>
			<point x="354" y="-203"/>
		</contour>
		<contour>
			<point x="280" y="333" type="curve" smooth="yes"/>
			<point x="283" y="350"/>
			<point x="282" y="385"/>
			<point x="256" y="385" type="curve" smooth="yes"/>
			<point x="191" y="385"/>
			<point x="134" y="265"/>
			<point x="134" y="153" type="curve" smooth="yes"/>
			<point x="134" y="99"/>
			<point x="150" y="79"/>
			<point x="167" y="79" type="curve" smooth="yes"/>
			<point x="201" y="79"/>
			<point x="253" y="182"/>
			<point x="270" y="269" type="curve" smooth="yes"/>
			<point x="275" y="295"/>
			<point x="276" y="307"/>
		</contour>
	</outline>
</glyph>
<glyph name="r" format="2">
  <advance width="421"/>
  <unicode hex="0072"/>
  <outline>
    <contour>
      <point x="366" y="438" type="curve" smooth="yes"/>
      <point x="394" y="438"/>
      <point x="403" y="435"/>
      <point x="420" y="426" type="curve"/>
      <point x="428" y="416"/>
      <point x="436" y="402"/>
      <point x="436" y="383" type="curve" smooth="yes"/>
      <point x="436" y="336"/>
      <point x="405" y="312"/>
      <point x="379" y="312" type="curve" smooth="yes"/>
      <point x="359" y="312"/>
      <point x="346" y="324"/>
      <point x="334" y="330" type="curve" smooth="yes"/>
      <point x="324" y="335"/>
      <point x="324" y="338"/>
      <point x="308" y="338" type="curve" smooth="yes"/>
      <point x="280" y="338"/>
      <point x="205" y="213"/>
      <point x="178" y="89" type="curve" smooth="yes"/>
      <point x="158" y="0" type="line"/>
      <point x="148" y="-3"/>
      <point x="115" y="-6"/>
      <point x="104" y="-6" type="curve" smooth="yes"/>
      <point x="93" y="-6"/>
      <point x="58" y="-3"/>
      <point x="46" y="0" type="curve"/>
      <point x="104" y="302" type="line" smooth="yes"/>
      <point x="105" y="306"/>
      <point x="108" y="329"/>
      <point x="108" y="334" type="curve" smooth="yes"/>
      <point x="108" y="343"/>
      <point x="104" y="354"/>
      <point x="94" y="354" type="curve" smooth="yes"/>
      <point x="73" y="354"/>
      <point x="27" y="301"/>
      <point x="24" y="295" type="curve"/>
      <point x="17" y="295"/>
      <point x="11" y="315"/>
      <point x="11" y="321" type="curve"/>
      <point x="28" y="352"/>
      <point x="109" y="438"/>
      <point x="162" y="438" type="curve" smooth="yes"/>
      <point x="201" y="438"/>
      <point x="228" y="414"/>
      <point x="228" y="369" type="curve" smooth="yes"/>
      <point x="228" y="355"/>
      <point x="221" y="321"/>
      <point x="219" y="311" type="curve" smooth="yes"/>
      <point x="217" y="299"/>
      <point x="205" y="247"/>
      <point x="205" y="248" type="curve"/>
      <point x="229" y="338"/>
      <point x="313" y="438"/>
    </contour>
  </outline>
</glyph>
<glyph name="t" format="2">
  <advance width="320"/>
  <unicode hex="0074"/>
  <outline>
    <contour>
      <point x="115" y="414" type="line"/>
      <point x="130" y="492" type="line"/>
      <point x="141" y="506"/>
      <point x="229" y="557"/>
      <point x="237" y="557" type="curve" smooth="yes"/>
      <point x="243" y="557"/>
      <point x="250" y="554"/>
      <point x="254" y="551" type="curve"/>
      <point x="229" y="414" type="line"/>
      <point x="314" y="414" type="line" smooth="yes"/>
      <point x="318" y="414"/>
      <point x="318" y="407"/>
      <point x="318" y="402" type="curve" smooth="yes"/>
      <point x="318" y="392"/>
      <point x="314" y="377"/>
      <point x="309" y="369" type="curve"/>
      <point x="220" y="369" type="line"/>
      <point x="173" y="129" type="line" smooth="yes"/>
      <point x="172" y="123"/>
      <point x="169" y="102"/>
      <point x="169" y="97" type="curve" smooth="yes"/>
      <point x="169" y="88"/>
      <point x="173" y="76"/>
      <point x="183" y="76" type="curve" smooth="yes"/>
      <point x="204" y="76"/>
      <point x="249" y="130"/>
      <point x="252" y="136" type="curve"/>
      <point x="259" y="136"/>
      <point x="266" y="115"/>
      <point x="266" y="109" type="curve"/>
      <point x="249" y="78"/>
      <point x="163" y="-8"/>
      <point x="110" y="-8" type="curve" smooth="yes"/>
      <point x="78" y="-8"/>
      <point x="49" y="12"/>
      <point x="49" y="62" type="curve" smooth="yes"/>
      <point x="49" y="76"/>
      <point x="55" y="107"/>
      <point x="58" y="120" type="curve" smooth="yes"/>
      <point x="106" y="369" type="line"/>
      <point x="34" y="369" type="line" smooth="yes"/>
      <point x="33" y="369"/>
      <point x="32" y="370"/>
      <point x="32" y="372" type="curve" smooth="yes"/>
      <point x="32" y="382"/>
      <point x="57" y="414"/>
      <point x="79" y="414" type="curve" smooth="yes"/>
    </contour>
  </outline>
</glyph>
<glyph name="v" format="2">
  <advance width="454"/>
  <unicode hex="0076"/>
  <outline>
    <contour>
      <point x="230" y="109" type="curve"/>
      <point x="261" y="131"/>
      <point x="295" y="166"/>
      <point x="316" y="206" type="curve" smooth="yes"/>
      <point x="337" y="247"/>
      <point x="340" y="279"/>
      <point x="340" y="300" type="curve" smooth="yes"/>
      <point x="340" y="324"/>
      <point x="323" y="355"/>
      <point x="299" y="375" type="curve"/>
      <point x="299" y="411"/>
      <point x="340" y="438"/>
      <point x="363" y="438" type="curve" smooth="yes"/>
      <point x="400" y="438"/>
      <point x="439" y="415"/>
      <point x="439" y="349" type="curve" smooth="yes"/>
      <point x="439" y="225"/>
      <point x="188" y="-5"/>
      <point x="126" y="-5" type="curve"/>
      <point x="105" y="44"/>
      <point x="90" y="164"/>
      <point x="90" y="283" type="curve" smooth="yes"/>
      <point x="90" y="326" type="line" smooth="yes"/>
      <point x="90" y="335"/>
      <point x="89" y="348"/>
      <point x="79" y="348" type="curve" smooth="yes"/>
      <point x="64" y="348"/>
      <point x="25" y="301"/>
      <point x="22" y="295" type="curve"/>
      <point x="15" y="295"/>
      <point x="9" y="315"/>
      <point x="9" y="321" type="curve"/>
      <point x="27" y="353"/>
      <point x="107" y="438"/>
      <point x="160" y="438" type="curve" smooth="yes"/>
      <point x="202" y="438"/>
      <point x="209" y="413"/>
      <point x="209" y="384" type="curve" smooth="yes"/>
      <point x="209" y="384"/>
      <point x="209" y="365"/>
      <point x="209" y="353" type="curve" smooth="yes"/>
      <point x="209" y="333" type="line" smooth="yes"/>
      <point x="209" y="226"/>
      <point x="222" y="119"/>
    </contour>
  </outline>
</glyph>
<glyph name="x" format="2">
	<unicode hex="0078"/>
	<advance width="499"/>
	<outline>
		<contour>
			<point x="199" y="438" type="curve" smooth="yes"/>
			<point x="226" y="438"/>
			<point x="240" y="412"/>
			<point x="248" y="384" type="curve" smooth="yes"/>
			<point x="274" y="290" type="line"/>
			<point x="313" y="366" type="line"/>
			<point x="337" y="411"/>
			<point x="368" y="438"/>
			<point x="407" y="438" type="curve" smooth="yes"/>
			<point x="431" y="438"/>
			<point x="465" y="430"/>
			<point x="478" y="418" type="curve"/>
			<point x="483" y="409"/>
			<point x="489" y="387"/>
			<point x="489" y="371" type="curve" smooth="yes"/>
			<point x="489" y="345"/>
			<point x="471" y="312"/>
			<point x="436" y="312" type="curve" smooth="yes"/>
			<point x="413" y="312"/>
			<point x="399" y="329"/>
			<point x="392" y="340" type="curve" smooth="yes"/>
			<point x="386" y="350"/>
			<point x="377" y="364"/>
			<point x="370" y="364" type="curve" smooth="yes"/>
			<point x="359" y="364"/>
			<point x="351" y="352"/>
			<point x="339" y="332" type="curve" smooth="yes"/>
			<point x="288" y="245" type="line"/>
			<point x="327" y="115" type="line" smooth="yes"/>
			<point x="333" y="96"/>
			<point x="340" y="76"/>
			<point x="357" y="76" type="curve" smooth="yes"/>
			<point x="378" y="76"/>
			<point x="424" y="130"/>
			<point x="427" y="136" type="curve"/>
			<point x="434" y="136"/>
			<point x="440" y="115"/>
			<point x="440" y="109" type="curve"/>
			<point x="423" y="78"/>
			<point x="337" y="-8"/>
			<point x="284" y="-8" type="curve" smooth="yes"/>
			<point x="250" y="-8"/>
			<point x="236" y="24"/>
			<point x="224" y="57" type="curve" smooth="yes"/>
			<point x="224" y="59"/>
			<point x="214" y="94"/>
			<point x="200" y="140" type="curve"/>
			<point x="162" y="65" type="line"/>
			<point x="138" y="20"/>
			<point x="107" y="-7"/>
			<point x="68" y="-7" type="curve" smooth="yes"/>
			<point x="37" y="-7"/>
			<point x="19" y="0"/>
			<point x="3" y="11" type="curve"/>
			<point x="-4" y="17"/>
			<point x="-12" y="37"/>
			<point x="-12" y="58" type="curve" smooth="yes"/>
			<point x="-12" y="84"/>
			<point x="5" y="120"/>
			<point x="40" y="120" type="curve" smooth="yes"/>
			<point x="63" y="120"/>
			<point x="77" y="103"/>
			<point x="84" y="92" type="curve" smooth="yes"/>
			<point x="90" y="83"/>
			<point x="98" y="67"/>
			<point x="105" y="67" type="curve" smooth="yes"/>
			<point x="115" y="67"/>
			<point x="125" y="74"/>
			<point x="141" y="102" type="curve" smooth="yes"/>
			<point x="187" y="185" type="line"/>
			<point x="150" y="308" type="line" smooth="yes"/>
			<point x="147" y="317"/>
			<point x="138" y="348"/>
			<point x="118" y="348" type="curve" smooth="yes"/>
			<point x="103" y="348"/>
			<point x="65" y="301"/>
			<point x="62" y="295" type="curve"/>
			<point x="55" y="295"/>
			<point x="48" y="315"/>
			<point x="48" y="321" type="curve"/>
			<point x="66" y="353"/>
			<point x="146" y="438"/>
		</contour>
	</outline>
</glyph>
<glyph name="y" format="2">
  <advance width="489"/>
  <unicode hex="0079"/>
  <outline>
    <contour>
      <point x="126" y="438" type="curve" smooth="yes"/>
      <point x="266" y="438"/>
      <point x="257" y="85"/>
      <point x="257" y="25" type="curve"/>
      <point x="292" y="68"/>
      <point x="360" y="191"/>
      <point x="360" y="297" type="curve" smooth="yes"/>
      <point x="360" y="335"/>
      <point x="334" y="363"/>
      <point x="319" y="375" type="curve"/>
      <point x="319" y="408"/>
      <point x="357" y="438"/>
      <point x="385" y="438" type="curve" smooth="yes"/>
      <point x="420" y="438"/>
      <point x="460" y="416"/>
      <point x="460" y="348" type="curve" smooth="yes"/>
      <point x="460" y="119"/>
      <point x="121" y="-213"/>
      <point x="-11" y="-213" type="curve" smooth="yes"/>
      <point x="-46" y="-213"/>
      <point x="-74" y="-194"/>
      <point x="-74" y="-152" type="curve" smooth="yes"/>
      <point x="-74" y="-135"/>
      <point x="-60" y="-112"/>
      <point x="-45" y="-104" type="curve"/>
      <point x="-30" y="-113"/>
      <point x="15" y="-135"/>
      <point x="52" y="-135" type="curve" smooth="yes"/>
      <point x="113" y="-135"/>
      <point x="128" y="-104"/>
      <point x="130" y="-98" type="curve" smooth="yes"/>
      <point x="140" y="-68"/>
      <point x="139" y="8"/>
      <point x="139" y="50" type="curve" smooth="yes"/>
      <point x="139" y="161"/>
      <point x="117" y="348"/>
      <point x="69" y="348" type="curve" smooth="yes"/>
      <point x="45" y="348"/>
      <point x="16" y="298"/>
      <point x="13" y="295" type="curve"/>
      <point x="5" y="296"/>
      <point x="-2" y="318"/>
      <point x="-1" y="321" type="curve"/>
      <point x="10" y="340"/>
      <point x="80" y="438"/>
    </contour>
  </outline>
</glyph>
<glyph name="z" format="2">
	<unicode hex="007A"/>
	<advance width="430"/>
	<outline>
		<contour>
			<point x="166" y="439" type="curve" smooth="yes"/>
			<point x="207" y="439"/>
			<point x="233" y="430"/>
			<point x="259" y="418" type="curve" smooth="yes"/>
			<point x="277" y="410"/>
			<point x="302" y="399"/>
			<point x="340" y="399" type="curve" smooth="yes"/>
			<point x="362" y="399"/>
			<point x="392" y="423"/>
			<point x="408" y="438" type="curve"/>
			<point x="428" y="438"/>
			<point x="428" y="420"/>
			<point x="429" y="411" type="curve" smooth="yes"/>
			<point x="429" y="397"/>
			<point x="132" y="126"/>
			<point x="129" y="122" type="curve"/>
			<point x="134" y="124"/>
			<point x="157" y="130"/>
			<point x="170" y="130" type="curve" smooth="yes"/>
			<point x="197" y="130"/>
			<point x="223" y="125"/>
			<point x="243" y="115" type="curve" smooth="yes"/>
			<point x="260" y="107"/>
			<point x="286" y="93"/>
			<point x="307" y="93" type="curve" smooth="yes"/>
			<point x="336" y="93"/>
			<point x="355" y="133"/>
			<point x="362" y="142" type="curve"/>
			<point x="372" y="142"/>
			<point x="379" y="126"/>
			<point x="380" y="118" type="curve"/>
			<point x="361" y="80"/>
			<point x="299" y="-3"/>
			<point x="247" y="-3" type="curve" smooth="yes"/>
			<point x="206" y="-3"/>
			<point x="180" y="7"/>
			<point x="154" y="19" type="curve" smooth="yes"/>
			<point x="136" y="27"/>
			<point x="111" y="37"/>
			<point x="73" y="37" type="curve" smooth="yes"/>
			<point x="51" y="37"/>
			<point x="21" y="13"/>
			<point x="5" y="-2" type="curve"/>
			<point x="-15" y="-2"/>
			<point x="-15" y="16"/>
			<point x="-16" y="25" type="curve"/>
			<point x="-16" y="41"/>
			<point x="282" y="310"/>
			<point x="284" y="314" type="curve"/>
			<point x="279" y="312"/>
			<point x="256" y="307"/>
			<point x="243" y="307" type="curve" smooth="yes"/>
			<point x="216" y="307"/>
			<point x="190" y="311"/>
			<point x="170" y="321" type="curve" smooth="yes"/>
			<point x="153" y="329"/>
			<point x="127" y="344"/>
			<point x="106" y="344" type="curve" smooth="yes"/>
			<point x="77" y="344"/>
			<point x="58" y="304"/>
			<point x="51" y="295" type="curve"/>
			<point x="41" y="295"/>
			<point x="34" y="310"/>
			<point x="33" y="318" type="curve"/>
			<point x="52" y="356"/>
			<point x="114" y="439"/>
		</contour>
	</outline>
</glyph>
<glyph name="asciitilde" format="2">
	<unicode hex="007E"/>
	<advance width="525"/>
	<outline>
		<contour>
			<point x="188" y="351" type="curve" smooth="yes"/>
			<point x="273" y="351"/>
			<point x="308" y="299"/>
			<point x="393" y="299" type="curve" smooth="yes"/>
			<point x="428" y="299"/>
			<point x="453" y="320"/>
			<point x="483" y="342" type="curve"/>
			<point x="485" y="341"/>
			<point x="487" y="335"/>
			<point x="487" y="327" type="curve" smooth="yes"/>
			<point x="487" y="282"/>
			<point x="412" y="239"/>
			<point x="355" y="239" type="curve" smooth="yes"/>
			<point x="269" y="239"/>
			<point x="235" y="291"/>
			<point x="149" y="291" type="curve" smooth="yes"/>
			<point x="114" y="291"/>
			<point x="89" y="270"/>
			<point x="59" y="248" type="curve"/>
			<point x="57" y="249"/>
			<point x="55" y="255"/>
			<point x="55" y="263" type="curve" smooth="yes"/>
			<point x="55" y="311"/>
			<point x="137" y="351"/>
		</contour>
	</outline>
</glyph>
<glyph name="sterling" format="2">
  <advance width="463"/>
  <unicode hex="00A3"/>
  <outline>
    <contour>
      <point x="82" y="341" type="curve"/>
      <point x="97" y="341"/>
      <point x="360" y="341"/>
      <point x="370" y="341" type="curve"/>
      <point x="381" y="330"/>
      <point x="358" y="304"/>
      <point x="352" y="300" type="curve"/>
      <point x="56" y="300" type="line"/>
      <point x="52" y="306"/>
      <point x="74" y="341"/>
    </contour>
    <contour>
      <point x="222" y="264" type="curve" smooth="yes"/>
      <point x="207" y="191"/>
      <point x="162" y="141"/>
      <point x="135" y="119" type="curve"/>
      <point x="154" y="129"/>
      <point x="177" y="134"/>
      <point x="198" y="134" type="curve" smooth="yes"/>
      <point x="232" y="134"/>
      <point x="278" y="92"/>
      <point x="325" y="92" type="curve" smooth="yes"/>
      <point x="359" y="92"/>
      <point x="378" y="123"/>
      <point x="388" y="138" type="curve"/>
      <point x="392" y="140"/>
      <point x="399" y="136"/>
      <point x="402" y="131" type="curve" smooth="yes"/>
      <point x="406" y="125"/>
      <point x="404" y="118"/>
      <point x="403" y="112" type="curve"/>
      <point x="387" y="81"/>
      <point x="327" y="-8"/>
      <point x="256" y="-8" type="curve" smooth="yes"/>
      <point x="194" y="-8"/>
      <point x="158" y="50"/>
      <point x="91" y="50" type="curve" smooth="yes"/>
      <point x="74" y="50"/>
      <point x="29" y="10"/>
      <point x="10" y="-6" type="curve"/>
      <point x="3" y="-6"/>
      <point x="-2" y="12"/>
      <point x="0" y="21" type="curve"/>
      <point x="16" y="43"/>
      <point x="59" y="79"/>
      <point x="74" y="100" type="curve"/>
      <point x="95" y="136"/>
      <point x="108" y="179"/>
      <point x="118" y="227" type="curve" smooth="yes"/>
      <point x="128" y="276"/>
      <point x="115" y="355"/>
      <point x="121" y="382" type="curve" smooth="yes"/>
      <point x="156" y="554"/>
      <point x="282" y="626"/>
      <point x="367" y="626" type="curve" smooth="yes"/>
      <point x="399" y="626"/>
      <point x="408" y="614"/>
      <point x="423" y="602" type="curve"/>
      <point x="433" y="581"/>
      <point x="414" y="522"/>
      <point x="376" y="522" type="curve" smooth="yes"/>
      <point x="333" y="522"/>
      <point x="338" y="571"/>
      <point x="299" y="571" type="curve" smooth="yes"/>
      <point x="263" y="571"/>
      <point x="240" y="515"/>
      <point x="228" y="448" type="curve" smooth="yes"/>
      <point x="216" y="378"/>
      <point x="233" y="319"/>
    </contour>
  </outline>
</glyph>
<glyph name="currency" format="2">
  <advance width="526"/>
  <unicode hex="00A4"/>
  <outline>
    <contour>
      <point x="249" y="151" type="curve" smooth="yes"/>
      <point x="294" y="151"/>
      <point x="333" y="214"/>
      <point x="348" y="287" type="curve" smooth="yes"/>
      <point x="366" y="377"/>
      <point x="339" y="450"/>
      <point x="292" y="450" type="curve" smooth="yes"/>
      <point x="247" y="450"/>
      <point x="205" y="385"/>
      <point x="190" y="312" type="curve" smooth="yes"/>
      <point x="172" y="222"/>
      <point x="202" y="151"/>
    </contour>
    <contour>
      <point x="400" y="444" type="curve"/>
      <point x="464" y="498" type="line" smooth="yes"/>
      <point x="467" y="500"/>
      <point x="470" y="499"/>
      <point x="474" y="496" type="curve" smooth="yes"/>
      <point x="482" y="489"/>
      <point x="492" y="471"/>
      <point x="493" y="455" type="curve"/>
      <point x="428" y="400" type="line"/>
      <point x="439" y="371"/>
      <point x="442" y="336"/>
      <point x="435" y="300" type="curve" smooth="yes"/>
      <point x="427" y="261"/>
      <point x="409" y="224"/>
      <point x="384" y="194" type="curve"/>
      <point x="422" y="138" type="line" smooth="yes"/>
      <point x="424" y="136"/>
      <point x="422" y="131"/>
      <point x="419" y="127" type="curve" smooth="yes"/>
      <point x="411" y="116"/>
      <point x="392" y="103"/>
      <point x="375" y="98" type="curve"/>
      <point x="338" y="151" type="line"/>
      <point x="307" y="130"/>
      <point x="270" y="117"/>
      <point x="234" y="117" type="curve" smooth="yes"/>
      <point x="195" y="117"/>
      <point x="162" y="132"/>
      <point x="139" y="156" type="curve"/>
      <point x="81" y="107" type="line" smooth="yes"/>
      <point x="78" y="105"/>
      <point x="75" y="105"/>
      <point x="72" y="108" type="curve" smooth="yes"/>
      <point x="64" y="114"/>
      <point x="54" y="133"/>
      <point x="53" y="150" type="curve"/>
      <point x="111" y="200" type="line"/>
      <point x="99" y="229"/>
      <point x="97" y="264"/>
      <point x="104" y="300" type="curve" smooth="yes"/>
      <point x="113" y="343"/>
      <point x="132" y="382"/>
      <point x="160" y="413" type="curve"/>
      <point x="123" y="468" type="line" smooth="yes"/>
      <point x="121" y="470"/>
      <point x="122" y="473"/>
      <point x="125" y="477" type="curve" smooth="yes"/>
      <point x="132" y="488"/>
      <point x="154" y="503"/>
      <point x="171" y="508" type="curve"/>
      <point x="208" y="454" type="line"/>
      <point x="238" y="474"/>
      <point x="273" y="484"/>
      <point x="307" y="484" type="curve" smooth="yes"/>
      <point x="346" y="484"/>
      <point x="377" y="469"/>
    </contour>
  </outline>
</glyph>
<glyph name="yen" format="2">
  <advance width="616"/>
  <unicode hex="00A5"/>
  <outline>
    <contour>
      <point x="136" y="214" type="line" smooth="yes"/>
      <point x="133" y="214"/>
      <point x="131" y="217"/>
      <point x="131" y="221" type="curve" smooth="yes"/>
      <point x="131" y="232"/>
      <point x="136" y="246"/>
      <point x="146" y="257" type="curve"/>
      <point x="448" y="257" type="line" smooth="yes"/>
      <point x="450" y="257"/>
      <point x="451" y="254"/>
      <point x="451" y="250" type="curve" smooth="yes"/>
      <point x="451" y="239"/>
      <point x="450" y="224"/>
      <point x="439" y="214" type="curve"/>
    </contour>
    <contour>
      <point x="119" y="127" type="line" smooth="yes"/>
      <point x="116" y="127"/>
      <point x="114" y="130"/>
      <point x="114" y="134" type="curve" smooth="yes"/>
      <point x="114" y="145"/>
      <point x="119" y="159"/>
      <point x="129" y="170" type="curve"/>
      <point x="432" y="170" type="line" smooth="yes"/>
      <point x="434" y="170"/>
      <point x="435" y="167"/>
      <point x="435" y="163" type="curve" smooth="yes"/>
      <point x="435" y="152"/>
      <point x="433" y="137"/>
      <point x="422" y="127" type="curve"/>
    </contour>
    <contour>
      <point x="207" y="138" type="curve" smooth="yes"/>
      <point x="232" y="269" type="line" smooth="yes"/>
      <point x="233" y="276"/>
      <point x="233" y="280"/>
      <point x="231" y="288" type="curve" smooth="yes"/>
      <point x="218" y="340"/>
      <point x="163" y="509"/>
      <point x="163" y="509" type="curve" smooth="yes"/>
      <point x="154" y="535"/>
      <point x="154" y="542"/>
      <point x="147" y="561" type="curve" smooth="yes"/>
      <point x="138" y="584"/>
      <point x="105" y="591"/>
      <point x="93" y="592" type="curve"/>
      <point x="90" y="599"/>
      <point x="94" y="621"/>
      <point x="99" y="627" type="curve"/>
      <point x="132" y="623"/>
      <point x="188" y="620"/>
      <point x="225" y="620" type="curve" smooth="yes"/>
      <point x="262" y="620"/>
      <point x="315" y="623"/>
      <point x="350" y="627" type="curve"/>
      <point x="353" y="621"/>
      <point x="349" y="599"/>
      <point x="343" y="592" type="curve"/>
      <point x="331" y="591"/>
      <point x="289" y="589"/>
      <point x="284" y="566" type="curve" smooth="yes"/>
      <point x="283" y="562"/>
      <point x="286" y="559"/>
      <point x="288" y="552" type="curve" smooth="yes"/>
      <point x="352" y="342" type="line"/>
      <point x="356" y="337"/>
      <point x="451" y="472"/>
      <point x="504" y="548" type="curve" smooth="yes"/>
      <point x="509" y="556"/>
      <point x="511" y="562"/>
      <point x="512" y="569" type="curve" smooth="yes"/>
      <point x="515" y="586"/>
      <point x="463" y="591"/>
      <point x="451" y="592" type="curve"/>
      <point x="448" y="599"/>
      <point x="453" y="621"/>
      <point x="458" y="627" type="curve"/>
      <point x="499" y="623"/>
      <point x="515" y="620"/>
      <point x="556" y="620" type="curve" smooth="yes"/>
      <point x="595" y="620"/>
      <point x="619" y="625"/>
      <point x="656" y="627" type="curve"/>
      <point x="659" y="621"/>
      <point x="655" y="599"/>
      <point x="649" y="592" type="curve"/>
      <point x="637" y="591"/>
      <point x="596" y="589"/>
      <point x="579" y="568" type="curve" smooth="yes"/>
      <point x="557" y="541"/>
      <point x="399" y="338"/>
      <point x="363" y="282" type="curve" smooth="yes"/>
      <point x="358" y="275"/>
      <point x="356" y="271"/>
      <point x="355" y="265" type="curve" smooth="yes"/>
      <point x="330" y="138" type="line" smooth="yes"/>
      <point x="321" y="97"/>
      <point x="316" y="67"/>
      <point x="320" y="48" type="curve" smooth="yes"/>
      <point x="322" y="35"/>
      <point x="361" y="32"/>
      <point x="373" y="31" type="curve"/>
      <point x="376" y="24"/>
      <point x="371" y="2"/>
      <point x="366" y="-4" type="curve"/>
      <point x="333" y="0"/>
      <point x="278" y="3"/>
      <point x="241" y="3" type="curve" smooth="yes"/>
      <point x="204" y="3"/>
      <point x="151" y="0"/>
      <point x="116" y="-4" type="curve"/>
      <point x="113" y="2"/>
      <point x="117" y="24"/>
      <point x="123" y="31" type="curve"/>
      <point x="135" y="32"/>
      <point x="176" y="35"/>
      <point x="183" y="48" type="curve" smooth="yes"/>
      <point x="194" y="67"/>
      <point x="198" y="97"/>
    </contour>
  </outline>
</glyph>
<glyph name="brokenbar" format="2">
	<unicode hex="00A6"/>
	<advance width="205"/>
	<outline>
		<contour>
			<point x="129" y="391" type="line" smooth="yes"/>
			<point x="129" y="383"/>
			<point x="84" y="376"/>
			<point x="82" y="376" type="curve" smooth="yes"/>
			<point x="75" y="376"/>
			<point x="77" y="380"/>
			<point x="77" y="384" type="curve" smooth="yes"/>
			<point x="77" y="739" type="line"/>
			<point x="77" y="739"/>
			<point x="76" y="745"/>
			<point x="82" y="747" type="curve" smooth="yes"/>
			<point x="99" y="752"/>
			<point x="118" y="752"/>
			<point x="121" y="752" type="curve" smooth="yes"/>
			<point x="130" y="752"/>
			<point x="129" y="746"/>
			<point x="129" y="746" type="curve"/>
		</contour>
		<contour>
			<point x="77" y="-112" type="curve" smooth="yes"/>
			<point x="77" y="243" type="line"/>
			<point x="77" y="243"/>
			<point x="76" y="249"/>
			<point x="82" y="251" type="curve" smooth="yes"/>
			<point x="99" y="256"/>
			<point x="118" y="256"/>
			<point x="121" y="256" type="curve" smooth="yes"/>
			<point x="130" y="256"/>
			<point x="129" y="250"/>
			<point x="129" y="250" type="curve"/>
			<point x="129" y="-105" type="line" smooth="yes"/>
			<point x="129" y="-113"/>
			<point x="84" y="-120"/>
			<point x="82" y="-120" type="curve" smooth="yes"/>
			<point x="75" y="-120"/>
			<point x="77" y="-116"/>
		</contour>
	</outline>
</glyph>
<glyph name="ordfeminine" format="2">
  <advance width="389"/>
  <unicode hex="00AA"/>
  <outline>
    <contour>
      <point x="260" y="240" type="curve" smooth="yes"/>
      <point x="236" y="240"/>
      <point x="214" y="251"/>
      <point x="214" y="280" type="curve" smooth="yes"/>
      <point x="214" y="283"/>
      <point x="215" y="289"/>
      <point x="216" y="294" type="curve" smooth="yes"/>
      <point x="217" y="299"/>
      <point x="217" y="303"/>
      <point x="218" y="306" type="curve"/>
      <point x="203" y="282"/>
      <point x="158" y="241"/>
      <point x="115" y="241" type="curve" smooth="yes"/>
      <point x="75" y="241"/>
      <point x="54" y="276"/>
      <point x="54" y="321" type="curve" smooth="yes"/>
      <point x="54" y="439"/>
      <point x="183" y="541"/>
      <point x="273" y="541" type="curve" smooth="yes"/>
      <point x="299" y="541"/>
      <point x="336" y="534"/>
      <point x="350" y="529" type="curve"/>
      <point x="307" y="341" type="line" smooth="yes"/>
      <point x="307" y="338"/>
      <point x="304" y="322"/>
      <point x="304" y="319" type="curve" smooth="yes"/>
      <point x="304" y="313"/>
      <point x="306" y="306"/>
      <point x="314" y="306" type="curve" smooth="yes"/>
      <point x="330" y="306"/>
      <point x="363" y="342"/>
      <point x="365" y="346" type="curve"/>
      <point x="370" y="343"/>
      <point x="375" y="328"/>
      <point x="373" y="319" type="curve"/>
      <point x="361" y="298"/>
      <point x="299" y="240"/>
    </contour>
    <contour>
      <point x="231" y="498" type="curve" smooth="yes"/>
      <point x="182" y="498"/>
      <point x="144" y="424"/>
      <point x="144" y="346" type="curve" smooth="yes"/>
      <point x="144" y="315"/>
      <point x="153" y="299"/>
      <point x="169" y="299" type="curve" smooth="yes"/>
      <point x="193" y="299"/>
      <point x="228" y="366"/>
      <point x="243" y="431" type="curve" smooth="yes"/>
      <point x="257" y="490" type="line"/>
      <point x="252" y="495"/>
      <point x="241" y="498"/>
    </contour>
  </outline>
</glyph>
<glyph name="degree" format="2">
  <advance width="274"/>
  <unicode hex="00B0"/>
  <outline>
    <contour>
      <point x="128" y="524" type="curve" smooth="yes"/>
      <point x="121" y="489"/>
      <point x="142" y="460"/>
      <point x="174" y="460" type="curve" smooth="yes"/>
      <point x="206" y="460"/>
      <point x="238" y="489"/>
      <point x="245" y="524" type="curve" smooth="yes"/>
      <point x="252" y="559"/>
      <point x="232" y="588"/>
      <point x="200" y="588" type="curve" smooth="yes"/>
      <point x="168" y="588"/>
      <point x="135" y="559"/>
    </contour>
    <contour>
      <point x="86" y="524" type="curve" smooth="yes"/>
      <point x="98" y="584"/>
      <point x="151" y="632"/>
      <point x="207" y="632" type="curve" smooth="yes"/>
      <point x="263" y="632"/>
      <point x="299" y="584"/>
      <point x="287" y="524" type="curve" smooth="yes"/>
      <point x="275" y="464"/>
      <point x="221" y="415"/>
      <point x="165" y="415" type="curve" smooth="yes"/>
      <point x="109" y="415"/>
      <point x="74" y="464"/>
    </contour>
  </outline>
</glyph>
<glyph name="twosuperior" format="2">
  <advance width="343"/>
  <unicode hex="00B2"/>
  <outline>
    <contour>
      <point x="303" y="373" type="curve"/>
      <point x="296" y="345"/>
      <point x="270" y="259"/>
      <point x="266" y="248" type="curve"/>
      <point x="44" y="248" type="line"/>
      <point x="41" y="251"/>
      <point x="38" y="259"/>
      <point x="37" y="262" type="curve"/>
      <point x="84" y="314"/>
      <point x="106" y="338"/>
      <point x="153" y="399" type="curve" smooth="yes"/>
      <point x="187" y="443"/>
      <point x="199" y="476"/>
      <point x="199" y="513" type="curve" smooth="yes"/>
      <point x="199" y="552"/>
      <point x="170" y="575"/>
      <point x="137" y="575" type="curve" smooth="yes"/>
      <point x="94" y="575"/>
      <point x="72" y="532"/>
      <point x="67" y="527" type="curve"/>
      <point x="64" y="527"/>
      <point x="52" y="529"/>
      <point x="52" y="541" type="curve"/>
      <point x="63" y="563"/>
      <point x="111" y="627"/>
      <point x="179" y="627" type="curve" smooth="yes"/>
      <point x="247" y="627"/>
      <point x="292" y="592"/>
      <point x="292" y="525" type="curve" smooth="yes"/>
      <point x="292" y="472"/>
      <point x="250" y="428"/>
      <point x="213" y="394" type="curve" smooth="yes"/>
      <point x="184" y="368"/>
      <point x="156" y="343"/>
      <point x="120" y="317" type="curve"/>
      <point x="229" y="317" type="line" smooth="yes"/>
      <point x="258" y="317"/>
      <point x="268" y="350"/>
      <point x="278" y="371" type="curve" smooth="yes"/>
      <point x="279" y="374"/>
      <point x="285" y="376"/>
      <point x="289" y="376" type="curve" smooth="yes"/>
      <point x="293" y="376"/>
      <point x="300" y="375"/>
    </contour>
  </outline>
</glyph>
<glyph name="threesuperior" format="2">
  <advance width="330"/>
  <unicode hex="00B3"/>
  <outline>
    <contour>
      <point x="175" y="627" type="curve" smooth="yes"/>
      <point x="210" y="627"/>
      <point x="269" y="605"/>
      <point x="269" y="545" type="curve" smooth="yes"/>
      <point x="269" y="485"/>
      <point x="218" y="470"/>
      <point x="197" y="466" type="curve"/>
      <point x="217" y="465"/>
      <point x="297" y="441"/>
      <point x="297" y="368" type="curve" smooth="yes"/>
      <point x="297" y="281"/>
      <point x="201" y="239"/>
      <point x="125" y="239" type="curve" smooth="yes"/>
      <point x="86" y="239"/>
      <point x="56" y="250"/>
      <point x="44" y="260" type="curve"/>
      <point x="40" y="266"/>
      <point x="35" y="277"/>
      <point x="35" y="286" type="curve" smooth="yes"/>
      <point x="35" y="301"/>
      <point x="45" y="320"/>
      <point x="66" y="320" type="curve" smooth="yes"/>
      <point x="83" y="320"/>
      <point x="94" y="307"/>
      <point x="105" y="290" type="curve" smooth="yes"/>
      <point x="115" y="274"/>
      <point x="133" y="266"/>
      <point x="149" y="266" type="curve" smooth="yes"/>
      <point x="186" y="266"/>
      <point x="209" y="292"/>
      <point x="209" y="346" type="curve" smooth="yes"/>
      <point x="209" y="391"/>
      <point x="179" y="433"/>
      <point x="139" y="433" type="curve" smooth="yes"/>
      <point x="135" y="433"/>
      <point x="117" y="433"/>
      <point x="107" y="430" type="curve"/>
      <point x="105" y="433"/>
      <point x="102" y="439"/>
      <point x="102" y="444" type="curve" smooth="yes"/>
      <point x="102" y="446"/>
      <point x="103" y="454"/>
      <point x="104" y="456" type="curve"/>
      <point x="134" y="460"/>
      <point x="190" y="476"/>
      <point x="190" y="525" type="curve" smooth="yes"/>
      <point x="190" y="557"/>
      <point x="168" y="582"/>
      <point x="132" y="582" type="curve" smooth="yes"/>
      <point x="100" y="582"/>
      <point x="73" y="555"/>
      <point x="69" y="550" type="curve"/>
      <point x="65" y="551"/>
      <point x="54" y="556"/>
      <point x="56" y="566" type="curve"/>
      <point x="78" y="595"/>
      <point x="128" y="627"/>
    </contour>
  </outline>
</glyph>
<glyph name="mu" format="2">
  <advance width="516"/>
  <unicode hex="00B5"/>
  <outline>
    <contour>
      <point x="168" y="436" type="curve" smooth="yes"/>
      <point x="177" y="436"/>
      <point x="220" y="412"/>
      <point x="217" y="399" type="curve" smooth="yes"/>
      <point x="215" y="389"/>
      <point x="208" y="347"/>
      <point x="175" y="260" type="curve" smooth="yes"/>
      <point x="173" y="254"/>
      <point x="161" y="218"/>
      <point x="161" y="218" type="curve" smooth="yes"/>
      <point x="146" y="141"/>
      <point x="158" y="88"/>
      <point x="188" y="88" type="curve" smooth="yes"/>
      <point x="238" y="88"/>
      <point x="264" y="141"/>
      <point x="282" y="199" type="curve"/>
      <point x="284" y="207"/>
      <point x="329" y="423"/>
      <point x="329" y="423" type="curve"/>
      <point x="344" y="433"/>
      <point x="363" y="437"/>
      <point x="374" y="436" type="curve" smooth="yes"/>
      <point x="414" y="433"/>
      <point x="436" y="412"/>
      <point x="433" y="399" type="curve" smooth="yes"/>
      <point x="430" y="381"/>
      <point x="415" y="327"/>
      <point x="382" y="240" type="curve" smooth="yes"/>
      <point x="380" y="234"/>
      <point x="373" y="218"/>
      <point x="373" y="218" type="curve"/>
      <point x="356" y="138"/>
      <point x="349" y="76"/>
      <point x="388" y="76" type="curve" smooth="yes"/>
      <point x="409" y="76"/>
      <point x="438" y="97"/>
      <point x="446" y="106" type="curve"/>
      <point x="449" y="106"/>
      <point x="452" y="99"/>
      <point x="454" y="94" type="curve" smooth="yes"/>
      <point x="455" y="90"/>
      <point x="454" y="77"/>
      <point x="453" y="74" type="curve" smooth="yes"/>
      <point x="433" y="31"/>
      <point x="392" y="-4"/>
      <point x="358" y="-4" type="curve" smooth="yes"/>
      <point x="317" y="-3"/>
      <point x="300" y="63"/>
      <point x="305" y="125" type="curve"/>
      <point x="266" y="57"/>
      <point x="225" y="-9"/>
      <point x="165" y="-9" type="curve" smooth="yes"/>
      <point x="130" y="-9"/>
      <point x="128" y="41"/>
      <point x="124" y="74" type="curve"/>
      <point x="121" y="50"/>
      <point x="64" y="-121"/>
      <point x="106" y="-187" type="curve"/>
      <point x="100" y="-195"/>
      <point x="70" y="-222"/>
      <point x="54" y="-222" type="curve" smooth="yes"/>
      <point x="9" y="-222"/>
      <point x="1" y="-162"/>
      <point x="1" y="-124" type="curve" smooth="yes"/>
      <point x="1" y="-88"/>
      <point x="51" y="97"/>
      <point x="81" y="199" type="curve"/>
      <point x="86" y="222"/>
      <point x="92" y="269"/>
      <point x="96" y="291" type="curve" smooth="yes"/>
      <point x="99" y="304"/>
      <point x="113" y="381"/>
      <point x="120" y="416" type="curve"/>
      <point x="126" y="424"/>
      <point x="157" y="436"/>
    </contour>
  </outline>
</glyph>
<glyph name="paragraph" format="2">
  <advance width="516"/>
  <unicode hex="00B6"/>
  <outline>
    <contour>
      <point x="347" y="330" type="curve"/>
      <point x="347" y="365"/>
      <point x="347" y="571"/>
      <point x="347" y="584" type="curve"/>
      <point x="343" y="588"/>
      <point x="328" y="589"/>
      <point x="318" y="589" type="curve" smooth="yes"/>
      <point x="308" y="589"/>
      <point x="297" y="589"/>
      <point x="291" y="583" type="curve"/>
      <point x="291" y="583"/>
      <point x="291" y="425"/>
      <point x="291" y="325" type="curve"/>
      <point x="297" y="325"/>
      <point x="343" y="327"/>
    </contour>
    <contour>
      <point x="346" y="285" type="curve"/>
      <point x="332" y="284"/>
      <point x="307" y="282"/>
      <point x="291" y="281" type="curve"/>
      <point x="291" y="225"/>
      <point x="291" y="171"/>
      <point x="291" y="115" type="curve" smooth="yes"/>
      <point x="291" y="80"/>
      <point x="291" y="65"/>
      <point x="296" y="51" type="curve" smooth="yes"/>
      <point x="297" y="48"/>
      <point x="307" y="46"/>
      <point x="318" y="46" type="curve" smooth="yes"/>
      <point x="328" y="46"/>
      <point x="339" y="47"/>
      <point x="340" y="50" type="curve" smooth="yes"/>
      <point x="347" y="65"/>
      <point x="346" y="88"/>
      <point x="346" y="109" type="curve" smooth="yes"/>
      <point x="346" y="109"/>
      <point x="346" y="218"/>
    </contour>
    <contour>
      <point x="395" y="292" type="curve"/>
      <point x="395" y="223"/>
      <point x="395" y="175"/>
      <point x="395" y="114" type="curve" smooth="yes"/>
      <point x="395" y="79"/>
      <point x="394" y="73"/>
      <point x="399" y="59" type="curve" smooth="yes"/>
      <point x="406" y="40"/>
      <point x="463" y="33"/>
      <point x="471" y="33" type="curve"/>
      <point x="477" y="23"/>
      <point x="475" y="2"/>
      <point x="473" y="-4" type="curve"/>
      <point x="438" y="-2"/>
      <point x="380" y="3"/>
      <point x="320" y="3" type="curve" smooth="yes"/>
      <point x="260" y="3"/>
      <point x="208" y="-2"/>
      <point x="168" y="-4" type="curve"/>
      <point x="163" y="5"/>
      <point x="166" y="32"/>
      <point x="168" y="32" type="curve" smooth="yes"/>
      <point x="180" y="32"/>
      <point x="228" y="40"/>
      <point x="236" y="58" type="curve" smooth="yes"/>
      <point x="243" y="73"/>
      <point x="242" y="92"/>
      <point x="242" y="113" type="curve" smooth="yes"/>
      <point x="242" y="113"/>
      <point x="242" y="215"/>
      <point x="242" y="280" type="curve"/>
      <point x="117" y="280"/>
      <point x="32" y="341"/>
      <point x="32" y="458" type="curve" smooth="yes"/>
      <point x="32" y="594"/>
      <point x="142" y="637"/>
      <point x="222" y="637" type="curve" smooth="yes"/>
      <point x="280" y="637"/>
      <point x="269" y="633"/>
      <point x="327" y="633" type="curve" smooth="yes"/>
      <point x="392" y="633"/>
      <point x="444" y="638"/>
      <point x="444" y="638" type="curve"/>
      <point x="449" y="633"/>
      <point x="448" y="605"/>
      <point x="443" y="602" type="curve"/>
      <point x="428" y="602"/>
      <point x="403" y="594"/>
      <point x="398" y="582" type="curve" smooth="yes"/>
      <point x="396" y="575"/>
      <point x="396" y="570"/>
      <point x="396" y="520" type="curve" smooth="yes"/>
      <point x="396" y="460"/>
      <point x="396" y="355"/>
      <point x="396" y="336" type="curve"/>
      <point x="401" y="335"/>
      <point x="443" y="349"/>
      <point x="443" y="349" type="curve"/>
      <point x="448" y="349"/>
      <point x="447" y="343"/>
      <point x="447" y="339" type="curve" smooth="yes"/>
      <point x="446" y="329"/>
      <point x="432" y="305"/>
      <point x="425" y="302" type="curve" smooth="yes"/>
      <point x="414" y="297"/>
      <point x="403" y="293"/>
    </contour>
  </outline>
</glyph>
<glyph name="ordmasculine" format="2">
	<unicode hex="00BA"/>
	<advance width="396"/>
	<outline>
		<contour>
			<point x="189" y="511" type="curve" smooth="yes"/>
			<point x="137" y="511"/>
			<point x="134" y="450"/>
			<point x="134" y="403" type="curve" smooth="yes"/>
			<point x="134" y="346"/>
			<point x="154" y="275"/>
			<point x="206" y="275" type="curve" smooth="yes"/>
			<point x="258" y="275"/>
			<point x="263" y="335"/>
			<point x="263" y="381" type="curve" smooth="yes"/>
			<point x="263" y="438"/>
			<point x="241" y="511"/>
		</contour>
		<contour>
			<point x="197" y="540" type="curve" smooth="yes"/>
			<point x="294" y="540"/>
			<point x="362" y="478"/>
			<point x="362" y="396" type="curve" smooth="yes"/>
			<point x="362" y="314"/>
			<point x="291" y="245"/>
			<point x="198" y="245" type="curve" smooth="yes"/>
			<point x="101" y="245"/>
			<point x="34" y="309"/>
			<point x="34" y="391" type="curve" smooth="yes"/>
			<point x="34" y="473"/>
			<point x="105" y="540"/>
		</contour>
	</outline>
</glyph>
<glyph name="questiondown" format="2">
	<unicode hex="00BF"/>
	<advance width="378"/>
	<outline>
		<contour>
			<point x="322" y="358" type="curve" smooth="yes"/>
			<point x="322" y="317"/>
			<point x="289" y="287"/>
			<point x="252" y="287" type="curve" smooth="yes"/>
			<point x="211" y="287"/>
			<point x="179" y="318"/>
			<point x="179" y="358" type="curve" smooth="yes"/>
			<point x="179" y="398"/>
			<point x="209" y="434"/>
			<point x="248" y="434" type="curve" smooth="yes"/>
			<point x="284" y="434"/>
			<point x="322" y="402"/>
		</contour>
		<contour>
			<point x="276" y="220" type="curve"/>
			<point x="283" y="204"/>
			<point x="296" y="161"/>
			<point x="296" y="122" type="curve" smooth="yes"/>
			<point x="296" y="65"/>
			<point x="253" y="34"/>
			<point x="218" y="11" type="curve" smooth="yes"/>
			<point x="169" y="-21"/>
			<point x="114" y="-64"/>
			<point x="114" y="-97" type="curve" smooth="yes"/>
			<point x="114" y="-118"/>
			<point x="132" y="-144"/>
			<point x="167" y="-144" type="curve" smooth="yes"/>
			<point x="202" y="-144"/>
			<point x="233" y="-83"/>
			<point x="274" y="-83" type="curve" smooth="yes"/>
			<point x="311" y="-83"/>
			<point x="335" y="-115"/>
			<point x="335" y="-147" type="curve" smooth="yes"/>
			<point x="335" y="-164"/>
			<point x="327" y="-186"/>
			<point x="320" y="-192" type="curve"/>
			<point x="306" y="-200"/>
			<point x="280" y="-209"/>
			<point x="232" y="-209" type="curve" smooth="yes"/>
			<point x="188" y="-209"/>
			<point x="31" y="-173"/>
			<point x="31" y="-37" type="curve" smooth="yes"/>
			<point x="31" y="49"/>
			<point x="102" y="82"/>
			<point x="154" y="114" type="curve" smooth="yes"/>
			<point x="180" y="131"/>
			<point x="217" y="149"/>
			<point x="234" y="173" type="curve" smooth="yes"/>
			<point x="241" y="183"/>
			<point x="239" y="204"/>
			<point x="239" y="214" type="curve"/>
			<point x="241" y="220"/>
			<point x="249" y="231"/>
			<point x="254" y="231" type="curve" smooth="yes"/>
			<point x="262" y="231"/>
			<point x="272" y="224"/>
		</contour>
	</outline>
</glyph>
<glyph name="AE" format="2">
  <advance width="843"/>
  <unicode hex="00C6"/>
  <outline>
    <contour>
      <point x="495" y="642" type="curve" smooth="yes"/>
      <point x="533" y="642"/>
      <point x="738" y="647"/>
      <point x="792" y="648" type="curve"/>
      <point x="794" y="599"/>
      <point x="799" y="548"/>
      <point x="803" y="504" type="curve"/>
      <point x="800" y="501"/>
      <point x="789" y="499"/>
      <point x="782" y="499" type="curve" smooth="yes"/>
      <point x="775" y="499"/>
      <point x="769" y="502"/>
      <point x="768" y="507" type="curve" smooth="yes"/>
      <point x="754" y="561"/>
      <point x="736" y="605"/>
      <point x="680" y="605" type="curve" smooth="yes"/>
      <point x="605" y="605" type="line" smooth="yes"/>
      <point x="584" y="605"/>
      <point x="564" y="605"/>
      <point x="558" y="594" type="curve" smooth="yes"/>
      <point x="552" y="582"/>
      <point x="550" y="562"/>
      <point x="547" y="534" type="curve" smooth="yes"/>
      <point x="530" y="352" type="line" smooth="yes"/>
      <point x="530" y="346"/>
      <point x="548" y="341"/>
      <point x="568" y="341" type="curve" smooth="yes"/>
      <point x="616" y="341" type="line" smooth="yes"/>
      <point x="670" y="341"/>
      <point x="682" y="352"/>
      <point x="703" y="409" type="curve" smooth="yes"/>
      <point x="705" y="414"/>
      <point x="707" y="417"/>
      <point x="714" y="417" type="curve" smooth="yes"/>
      <point x="721" y="417"/>
      <point x="729" y="415"/>
      <point x="731" y="412" type="curve"/>
      <point x="712" y="225" type="line"/>
      <point x="710" y="223"/>
      <point x="703" y="221"/>
      <point x="696" y="221" type="curve" smooth="yes"/>
      <point x="689" y="221"/>
      <point x="684" y="224"/>
      <point x="684" y="229" type="curve" smooth="yes"/>
      <point x="678" y="276"/>
      <point x="666" y="284"/>
      <point x="658" y="288" type="curve" smooth="yes"/>
      <point x="648" y="293"/>
      <point x="624" y="295"/>
      <point x="590" y="295" type="curve" smooth="yes"/>
      <point x="565" y="295"/>
      <point x="524" y="293"/>
      <point x="523" y="281" type="curve" smooth="yes"/>
      <point x="507" y="138" type="line" smooth="yes"/>
      <point x="506" y="132"/>
      <point x="501" y="81"/>
      <point x="507" y="61" type="curve" smooth="yes"/>
      <point x="511" y="47"/>
      <point x="541" y="41"/>
      <point x="564" y="41" type="curve" smooth="yes"/>
      <point x="624" y="41" type="line" smooth="yes"/>
      <point x="658" y="41"/>
      <point x="689" y="51"/>
      <point x="712" y="73" type="curve" smooth="yes"/>
      <point x="733" y="94"/>
      <point x="749" y="122"/>
      <point x="770" y="166" type="curve" smooth="yes"/>
      <point x="772" y="170"/>
      <point x="776" y="172"/>
      <point x="783" y="172" type="curve" smooth="yes"/>
      <point x="792" y="172"/>
      <point x="808" y="169"/>
      <point x="810" y="166" type="curve"/>
      <point x="788" y="113"/>
      <point x="755" y="41"/>
      <point x="744" y="-2" type="curve"/>
      <point x="719" y="-2"/>
      <point x="549" y="-2"/>
      <point x="426" y="-2" type="curve" smooth="yes"/>
      <point x="363" y="-2"/>
      <point x="313" y="-3"/>
      <point x="301" y="-3" type="curve"/>
      <point x="297" y="3"/>
      <point x="299" y="26"/>
      <point x="304" y="33" type="curve"/>
      <point x="316" y="34"/>
      <point x="359" y="37"/>
      <point x="365" y="50" type="curve" smooth="yes"/>
      <point x="374" y="70"/>
      <point x="376" y="100"/>
      <point x="380" y="142" type="curve" smooth="yes"/>
      <point x="392" y="259" type="line" smooth="yes"/>
      <point x="391" y="260"/>
      <point x="390" y="263"/>
      <point x="388" y="263" type="curve" smooth="yes"/>
      <point x="354" y="265"/>
      <point x="332" y="264"/>
      <point x="310" y="264" type="curve" smooth="yes"/>
      <point x="273" y="264"/>
      <point x="258" y="264"/>
      <point x="226" y="263" type="curve" smooth="yes"/>
      <point x="223" y="263"/>
      <point x="218" y="260"/>
      <point x="217" y="258" type="curve" smooth="yes"/>
      <point x="217" y="258"/>
      <point x="148" y="159"/>
      <point x="129" y="132" type="curve" smooth="yes"/>
      <point x="113" y="108"/>
      <point x="93" y="72"/>
      <point x="91" y="65" type="curve" smooth="yes"/>
      <point x="84" y="40"/>
      <point x="145" y="32"/>
      <point x="152" y="32" type="curve"/>
      <point x="155" y="25"/>
      <point x="153" y="0"/>
      <point x="149" y="-4" type="curve"/>
      <point x="118" y="0"/>
      <point x="79" y="4"/>
      <point x="39" y="4" type="curve" smooth="yes"/>
      <point x="-3" y="4"/>
      <point x="-28" y="0"/>
      <point x="-60" y="-4" type="curve"/>
      <point x="-63" y="0"/>
      <point x="-66" y="20"/>
      <point x="-59" y="31" type="curve"/>
      <point x="-48" y="31"/>
      <point x="0" y="46"/>
      <point x="13" y="62" type="curve" smooth="yes"/>
      <point x="36" y="89"/>
      <point x="44" y="104"/>
      <point x="64" y="131" type="curve" smooth="yes"/>
      <point x="372" y="576" type="line" smooth="yes"/>
      <point x="372" y="576"/>
      <point x="380" y="589"/>
      <point x="380" y="594" type="curve" smooth="yes"/>
      <point x="380" y="604"/>
      <point x="362" y="608"/>
      <point x="356" y="608" type="curve"/>
      <point x="352" y="615"/>
      <point x="357" y="639"/>
      <point x="361" y="645" type="curve"/>
      <point x="401" y="642"/>
      <point x="457" y="642"/>
    </contour>
    <contour>
      <point x="421" y="554" type="curve"/>
      <point x="254" y="317" type="line"/>
      <point x="254" y="317"/>
      <point x="254" y="313"/>
      <point x="256" y="313" type="curve" smooth="yes"/>
      <point x="274" y="311"/>
      <point x="298" y="311"/>
      <point x="319" y="311" type="curve" smooth="yes"/>
      <point x="347" y="311"/>
      <point x="365" y="310"/>
      <point x="393" y="312" type="curve" smooth="yes"/>
      <point x="395" y="312"/>
      <point x="398" y="317"/>
      <point x="398" y="317" type="curve"/>
      <point x="417" y="501" type="line" smooth="yes"/>
      <point x="419" y="522"/>
      <point x="420" y="539"/>
    </contour>
  </outline>
</glyph>
<glyph name="Eth" format="2">
	<unicode hex="00D0"/>
	<advance width="704"/>
	<outline>
		<contour>
			<point x="59" y="335" type="curve"/>
			<point x="86" y="335"/>
			<point x="368" y="335"/>
			<point x="381" y="335" type="curve" smooth="yes"/>
			<point x="385" y="335"/>
			<point x="387" y="331"/>
			<point x="386" y="327" type="curve" smooth="yes"/>
			<point x="385" y="322"/>
			<point x="380" y="304"/>
			<point x="375" y="297" type="curve"/>
			<point x="348" y="297"/>
			<point x="65" y="297"/>
			<point x="52" y="297" type="curve" smooth="yes"/>
			<point x="48" y="297"/>
			<point x="48" y="304"/>
			<point x="49" y="308" type="curve" smooth="yes"/>
			<point x="50" y="313"/>
			<point x="52" y="328"/>
		</contour>
		<component base="D" xOffset="1"/>
	</outline>
</glyph>
<glyph name="Oslash" format="2">
  <advance width="688"/>
  <unicode hex="00D8"/>
  <outline>
    <contour>
      <point x="102" y="-13" type="line"/>
      <point x="94" y="-10"/>
      <point x="73" y="6"/>
      <point x="78" y="12" type="curve"/>
      <point x="582" y="653" type="line"/>
      <point x="590" y="651"/>
      <point x="611" y="636"/>
      <point x="606" y="630" type="curve"/>
    </contour>
    <component base="O"/>
  </outline>
</glyph>
<glyph name="Thorn" format="2">
  <advance width="542"/>
  <unicode hex="00DE"/>
  <outline>
    <contour>
      <point x="355" y="501" type="curve" smooth="yes"/>
      <point x="471" y="501"/>
      <point x="552" y="414"/>
      <point x="531" y="310" type="curve" smooth="yes"/>
      <point x="509" y="193"/>
      <point x="390" y="132"/>
      <point x="298" y="132" type="curve" smooth="yes"/>
      <point x="266" y="132"/>
      <point x="253" y="143"/>
      <point x="248" y="150" type="curve" smooth="yes"/>
      <point x="245" y="154"/>
      <point x="243" y="167"/>
      <point x="243" y="172" type="curve" smooth="yes"/>
      <point x="243" y="176"/>
      <point x="245" y="179"/>
      <point x="247" y="179" type="curve"/>
      <point x="256" y="176"/>
      <point x="262" y="175"/>
      <point x="276" y="175" type="curve" smooth="yes"/>
      <point x="321" y="175"/>
      <point x="380" y="232"/>
      <point x="393" y="296" type="curve" smooth="yes"/>
      <point x="410" y="383"/>
      <point x="385" y="461"/>
      <point x="324" y="461" type="curve" smooth="yes"/>
      <point x="303" y="461"/>
      <point x="286" y="457"/>
      <point x="277" y="445" type="curve" smooth="yes"/>
      <point x="269" y="435"/>
      <point x="267" y="418"/>
      <point x="261" y="390" type="curve" smooth="yes"/>
      <point x="213" y="142" type="line" smooth="yes"/>
      <point x="205" y="100"/>
      <point x="198" y="70"/>
      <point x="202" y="50" type="curve" smooth="yes"/>
      <point x="204" y="37"/>
      <point x="245" y="33"/>
      <point x="257" y="32" type="curve"/>
      <point x="260" y="25"/>
      <point x="255" y="2"/>
      <point x="250" y="-4" type="curve"/>
      <point x="216" y="0"/>
      <point x="159" y="3"/>
      <point x="121" y="3" type="curve" smooth="yes"/>
      <point x="83" y="3"/>
      <point x="27" y="0"/>
      <point x="-9" y="-4" type="curve"/>
      <point x="-12" y="2"/>
      <point x="-7" y="25"/>
      <point x="-1" y="32" type="curve"/>
      <point x="11" y="33"/>
      <point x="53" y="37"/>
      <point x="60" y="50" type="curve" smooth="yes"/>
      <point x="71" y="70"/>
      <point x="77" y="100"/>
      <point x="85" y="142" type="curve" smooth="yes"/>
      <point x="155" y="501" type="line" smooth="yes"/>
      <point x="163" y="543"/>
      <point x="170" y="573"/>
      <point x="166" y="593" type="curve" smooth="yes"/>
      <point x="164" y="606"/>
      <point x="122" y="607"/>
      <point x="110" y="608" type="curve"/>
      <point x="107" y="615"/>
      <point x="113" y="639"/>
      <point x="118" y="645" type="curve"/>
      <point x="158" y="642"/>
      <point x="209" y="642"/>
      <point x="247" y="642" type="curve" smooth="yes"/>
      <point x="285" y="642"/>
      <point x="340" y="644"/>
      <point x="376" y="648" type="curve"/>
      <point x="379" y="642"/>
      <point x="375" y="619"/>
      <point x="369" y="612" type="curve"/>
      <point x="357" y="611"/>
      <point x="315" y="608"/>
      <point x="308" y="595" type="curve" smooth="yes"/>
      <point x="298" y="577"/>
      <point x="291" y="546"/>
      <point x="284" y="508" type="curve" smooth="yes"/>
      <point x="284" y="508"/>
      <point x="284" y="497"/>
      <point x="286" y="497" type="curve" smooth="yes"/>
      <point x="288" y="497"/>
      <point x="289" y="498"/>
      <point x="291" y="498" type="curve" smooth="yes"/>
      <point x="305" y="501"/>
      <point x="334" y="501"/>
    </contour>
  </outline>
</glyph>
<glyph name="germandbls" format="2">
  <advance width="514"/>
  <unicode hex="00DF"/>
  <outline>
    <contour>
      <point x="225" y="414" type="curve" smooth="yes"/>
      <point x="202" y="275"/>
      <point x="185" y="180"/>
      <point x="162" y="57" type="curve" smooth="yes"/>
      <point x="131" y="-103"/>
      <point x="20" y="-213"/>
      <point x="-58" y="-213" type="curve" smooth="yes"/>
      <point x="-91" y="-213"/>
      <point x="-119" y="-203"/>
      <point x="-130" y="-195" type="curve"/>
      <point x="-135" y="-187"/>
      <point x="-139" y="-176"/>
      <point x="-139" y="-163" type="curve" smooth="yes"/>
      <point x="-139" y="-139"/>
      <point x="-124" y="-115"/>
      <point x="-102" y="-115" type="curve" smooth="yes"/>
      <point x="-85" y="-115"/>
      <point x="-72" y="-124"/>
      <point x="-61" y="-139" type="curve" smooth="yes"/>
      <point x="-52" y="-152"/>
      <point x="-42" y="-168"/>
      <point x="-24" y="-168" type="curve" smooth="yes"/>
      <point x="14" y="-168"/>
      <point x="20" y="-102"/>
      <point x="50" y="53" type="curve"/>
      <point x="104" y="369" type="line"/>
      <point x="41" y="369" type="line" smooth="yes"/>
      <point x="40" y="369"/>
      <point x="39" y="370"/>
      <point x="39" y="372" type="curve" smooth="yes"/>
      <point x="39" y="382"/>
      <point x="64" y="414"/>
      <point x="86" y="414" type="curve" smooth="yes"/>
      <point x="112" y="414" type="line"/>
      <point x="143" y="574"/>
      <point x="281" y="679"/>
      <point x="359" y="679" type="curve" smooth="yes"/>
      <point x="423" y="679"/>
      <point x="495" y="633"/>
      <point x="495" y="557" type="curve" smooth="yes"/>
      <point x="495" y="457"/>
      <point x="397" y="404"/>
      <point x="367" y="382" type="curve" smooth="yes"/>
      <point x="354" y="373"/>
      <point x="352" y="363"/>
      <point x="352" y="353" type="curve" smooth="yes"/>
      <point x="352" y="327"/>
      <point x="379" y="288"/>
      <point x="400" y="260" type="curve" smooth="yes"/>
      <point x="438" y="208"/>
      <point x="462" y="170"/>
      <point x="462" y="124" type="curve" smooth="yes"/>
      <point x="462" y="56"/>
      <point x="390" y="-4"/>
      <point x="313" y="-4" type="curve" smooth="yes"/>
      <point x="254" y="-4"/>
      <point x="242" y="0"/>
      <point x="225" y="11" type="curve"/>
      <point x="219" y="16"/>
      <point x="208" y="29"/>
      <point x="208" y="51" type="curve" smooth="yes"/>
      <point x="208" y="78"/>
      <point x="232" y="95"/>
      <point x="253" y="95" type="curve" smooth="yes"/>
      <point x="289" y="95"/>
      <point x="284" y="29"/>
      <point x="332" y="29" type="curve" smooth="yes"/>
      <point x="348" y="29"/>
      <point x="373" y="43"/>
      <point x="373" y="74" type="curve" smooth="yes"/>
      <point x="373" y="104"/>
      <point x="328" y="153"/>
      <point x="302" y="188" type="curve" smooth="yes"/>
      <point x="274" y="226"/>
      <point x="255" y="258"/>
      <point x="255" y="303" type="curve" smooth="yes"/>
      <point x="255" y="352"/>
      <point x="307" y="389"/>
      <point x="336" y="420" type="curve" smooth="yes"/>
      <point x="351" y="436"/>
      <point x="391" y="481"/>
      <point x="391" y="543" type="curve" smooth="yes"/>
      <point x="391" y="555"/>
      <point x="389" y="640"/>
      <point x="339" y="640" type="curve" smooth="yes"/>
      <point x="282" y="640"/>
      <point x="247" y="550"/>
    </contour>
  </outline>
</glyph>
<glyph name="eth" format="2">
	<unicode hex="00F0"/>
	<advance width="452"/>
	<outline>
		<contour>
			<point x="169" y="497" type="line"/>
			<point x="165" y="504"/>
			<point x="155" y="523"/>
			<point x="160" y="528" type="curve"/>
			<point x="404" y="688" type="line"/>
			<point x="408" y="682"/>
			<point x="419" y="663"/>
			<point x="414" y="658" type="curve"/>
		</contour>
		<contour>
			<point x="141" y="658" type="curve"/>
			<point x="142" y="665"/>
			<point x="147" y="679"/>
			<point x="154" y="679" type="curve"/>
			<point x="291" y="641"/>
			<point x="454" y="497"/>
			<point x="407" y="257" type="curve" smooth="yes"/>
			<point x="379" y="112"/>
			<point x="243" y="-7"/>
			<point x="155" y="-7" type="curve" smooth="yes"/>
			<point x="36" y="-7"/>
			<point x="0" y="92"/>
			<point x="21" y="199" type="curve" smooth="yes"/>
			<point x="42" y="304"/>
			<point x="160" y="438"/>
			<point x="264" y="438" type="curve" smooth="yes"/>
			<point x="282" y="438"/>
			<point x="297" y="437"/>
			<point x="304" y="436" type="curve"/>
			<point x="304" y="497"/>
			<point x="283" y="584"/>
		</contour>
		<contour>
			<point x="278" y="212" type="curve" smooth="yes"/>
			<point x="289" y="266"/>
			<point x="300" y="346"/>
			<point x="297" y="360" type="curve" smooth="yes"/>
			<point x="289" y="395"/>
			<point x="268" y="399"/>
			<point x="254" y="399" type="curve" smooth="yes"/>
			<point x="195" y="399"/>
			<point x="160" y="297"/>
			<point x="144" y="205" type="curve" smooth="yes"/>
			<point x="128" y="109"/>
			<point x="134" y="33"/>
			<point x="169" y="33" type="curve" smooth="yes"/>
			<point x="218" y="33"/>
			<point x="259" y="116"/>
		</contour>
	</outline>
</glyph>
<glyph name="divide" format="2">
	<unicode hex="00F7"/>
	<advance width="578"/>
	<outline>
		<contour>
			<point x="228" y="422" type="curve" smooth="yes"/>
			<point x="228" y="455"/>
			<point x="255" y="482"/>
			<point x="288" y="482" type="curve" smooth="yes"/>
			<point x="321" y="482"/>
			<point x="349" y="455"/>
			<point x="349" y="422" type="curve" smooth="yes"/>
			<point x="349" y="389"/>
			<point x="321" y="361"/>
			<point x="288" y="361" type="curve" smooth="yes"/>
			<point x="255" y="361"/>
			<point x="228" y="389"/>
		</contour>
		<contour>
			<point x="228" y="62" type="curve" smooth="yes"/>
			<point x="228" y="95"/>
			<point x="255" y="123"/>
			<point x="288" y="123" type="curve" smooth="yes"/>
			<point x="321" y="123"/>
			<point x="349" y="95"/>
			<point x="349" y="62" type="curve" smooth="yes"/>
			<point x="349" y="29"/>
			<point x="321" y="2"/>
			<point x="288" y="2" type="curve" smooth="yes"/>
			<point x="255" y="2"/>
			<point x="228" y="29"/>
		</contour>
		<contour>
			<point x="62" y="218" type="line"/>
			<point x="57" y="218"/>
			<point x="56" y="223"/>
			<point x="56" y="233" type="curve" smooth="yes"/>
			<point x="56" y="237"/>
			<point x="57" y="262"/>
			<point x="66" y="274" type="curve"/>
			<point x="516" y="274" type="line" smooth="yes"/>
			<point x="522" y="274"/>
			<point x="524" y="267"/>
			<point x="524" y="261" type="curve" smooth="yes"/>
			<point x="524" y="240"/>
			<point x="519" y="228"/>
			<point x="511" y="218" type="curve"/>
		</contour>
	</outline>
</glyph>
<glyph name="thorn" format="2">
  <advance width="485"/>
  <unicode hex="00FE"/>
  <outline>
    <contour>
      <point x="267" y="589" type="curve" smooth="yes"/>
      <point x="264" y="571"/>
      <point x="225" y="373"/>
      <point x="223" y="364" type="curve"/>
      <point x="250" y="394"/>
      <point x="313" y="438"/>
      <point x="363" y="438" type="curve" smooth="yes"/>
      <point x="425" y="438"/>
      <point x="459" y="388"/>
      <point x="459" y="320" type="curve" smooth="yes"/>
      <point x="459" y="156"/>
      <point x="295" y="-5"/>
      <point x="176" y="-5" type="curve" smooth="yes"/>
      <point x="170" y="-5"/>
      <point x="158" y="-4"/>
      <point x="149" y="0" type="curve"/>
      <point x="124" y="-123" type="line" smooth="yes"/>
      <point x="122" y="-132"/>
      <point x="121" y="-140"/>
      <point x="121" y="-150" type="curve" smooth="yes"/>
      <point x="121" y="-155"/>
      <point x="125" y="-170"/>
      <point x="135" y="-173" type="curve" smooth="yes"/>
      <point x="152" y="-177"/>
      <point x="178" y="-176"/>
      <point x="181" y="-176" type="curve" smooth="yes"/>
      <point x="185" y="-177"/>
      <point x="182" y="-204"/>
      <point x="177" y="-206" type="curve"/>
      <point x="164" y="-206"/>
      <point x="153" y="-205"/>
      <point x="142" y="-205" type="curve" smooth="yes"/>
      <point x="92" y="-205"/>
      <point x="7" y="-207"/>
      <point x="-50" y="-214" type="curve"/>
      <point x="-55" y="-213"/>
      <point x="-53" y="-186"/>
      <point x="-48" y="-183" type="curve"/>
      <point x="-30" y="-183"/>
      <point x="-18" y="-178"/>
      <point x="-9" y="-167" type="curve" smooth="yes"/>
      <point x="-2" y="-158"/>
      <point x="2" y="-147"/>
      <point x="7" y="-125" type="curve" smooth="yes"/>
      <point x="80" y="227" type="line"/>
      <point x="33" y="180" type="line"/>
      <point x="29" y="185"/>
      <point x="26" y="199"/>
      <point x="26" y="206" type="curve" smooth="yes"/>
      <point x="26" y="217"/>
      <point x="35" y="228"/>
      <point x="41" y="233" type="curve" smooth="yes"/>
      <point x="91" y="280" type="line"/>
      <point x="145" y="548" type="line" smooth="yes"/>
      <point x="149" y="566"/>
      <point x="154" y="589"/>
      <point x="154" y="600" type="curve" smooth="yes"/>
      <point x="154" y="619"/>
      <point x="111" y="618"/>
      <point x="95" y="618" type="curve"/>
      <point x="92" y="622"/>
      <point x="95" y="642"/>
      <point x="99" y="646" type="curve"/>
      <point x="153" y="651"/>
      <point x="253" y="673"/>
      <point x="274" y="681" type="curve"/>
      <point x="279" y="678"/>
      <point x="280" y="668"/>
      <point x="280" y="662" type="curve" smooth="yes"/>
      <point x="280" y="654"/>
      <point x="272" y="612"/>
    </contour>
    <contour>
      <point x="295" y="356" type="curve" smooth="yes"/>
      <point x="266" y="356"/>
      <point x="236" y="336"/>
      <point x="215" y="315" type="curve"/>
      <point x="210" y="289"/>
      <point x="181" y="146"/>
      <point x="181" y="146" type="curve" smooth="yes"/>
      <point x="166" y="71"/>
      <point x="178" y="38"/>
      <point x="203" y="38" type="curve" smooth="yes"/>
      <point x="272" y="38"/>
      <point x="333" y="210"/>
      <point x="333" y="292" type="curve" smooth="yes"/>
      <point x="333" y="324"/>
      <point x="326" y="356"/>
    </contour>
  </outline>
</glyph>
<glyph name="Aogonek" format="2">
  <advance width="605"/>
  <unicode hex="0104"/>
  <outline>
    <contour>
      <point x="445" y="4" type="curve" smooth="yes"/>
      <point x="383" y="4"/>
      <point x="302" y="-57"/>
      <point x="302" y="-119" type="curve" smooth="yes"/>
      <point x="302" y="-142"/>
      <point x="313" y="-152"/>
      <point x="337" y="-152" type="curve" smooth="yes"/>
      <point x="378" y="-152"/>
      <point x="403" y="-122"/>
      <point x="410" y="-117" type="curve"/>
      <point x="417" y="-119"/>
      <point x="414" y="-139"/>
      <point x="412" y="-143" type="curve" smooth="yes"/>
      <point x="390" y="-181"/>
      <point x="342" y="-213"/>
      <point x="301" y="-213" type="curve" smooth="yes"/>
      <point x="263" y="-213"/>
      <point x="243" y="-182"/>
      <point x="243" y="-156" type="curve" smooth="yes"/>
      <point x="243" y="-92"/>
      <point x="285" y="-53"/>
      <point x="327" y="-7" type="curve" smooth="yes"/>
      <point x="354" y="22"/>
      <point x="381" y="40"/>
      <point x="381" y="79" type="curve" smooth="yes"/>
      <point x="381" y="88"/>
      <point x="356" y="215"/>
      <point x="356" y="215" type="curve"/>
      <point x="356" y="215"/>
      <point x="354" y="219"/>
      <point x="351" y="219" type="curve" smooth="yes"/>
      <point x="317" y="221"/>
      <point x="286" y="220"/>
      <point x="264" y="220" type="curve" smooth="yes"/>
      <point x="227" y="220"/>
      <point x="201" y="220"/>
      <point x="169" y="219" type="curve" smooth="yes"/>
      <point x="166" y="219"/>
      <point x="163" y="216"/>
      <point x="162" y="214" type="curve"/>
      <point x="162" y="214"/>
      <point x="129" y="159"/>
      <point x="113" y="132" type="curve" smooth="yes"/>
      <point x="99" y="108"/>
      <point x="81" y="72"/>
      <point x="80" y="65" type="curve" smooth="yes"/>
      <point x="75" y="40"/>
      <point x="137" y="32"/>
      <point x="144" y="32" type="curve"/>
      <point x="148" y="25"/>
      <point x="141" y="0"/>
      <point x="137" y="-4" type="curve"/>
      <point x="106" y="0"/>
      <point x="80" y="4"/>
      <point x="40" y="4" type="curve" smooth="yes"/>
      <point x="-2" y="4"/>
      <point x="-27" y="0"/>
      <point x="-59" y="-4" type="curve"/>
      <point x="-62" y="0"/>
      <point x="-60" y="20"/>
      <point x="-54" y="31" type="curve"/>
      <point x="-43" y="31"/>
      <point x="3" y="46"/>
      <point x="15" y="62" type="curve" smooth="yes"/>
      <point x="36" y="89"/>
      <point x="43" y="104"/>
      <point x="60" y="131" type="curve" smooth="yes"/>
      <point x="347" y="609" type="line" smooth="yes"/>
      <point x="355" y="622"/>
      <point x="377" y="646"/>
      <point x="387" y="646" type="curve" smooth="yes"/>
      <point x="395" y="646"/>
      <point x="404" y="643"/>
      <point x="405" y="640" type="curve"/>
      <point x="495" y="145" type="line" smooth="yes"/>
      <point x="501" y="115"/>
      <point x="503" y="95"/>
      <point x="507" y="74" type="curve" smooth="yes"/>
      <point x="515" y="34"/>
      <point x="564" y="32"/>
      <point x="571" y="32" type="curve"/>
      <point x="574" y="23"/>
      <point x="569" y="0"/>
      <point x="565" y="-4" type="curve"/>
      <point x="529" y="-2"/>
      <point x="485" y="4"/>
    </contour>
    <contour>
      <point x="308" y="465" type="line"/>
      <point x="193" y="273" type="line"/>
      <point x="193" y="273"/>
      <point x="193" y="270"/>
      <point x="195" y="270" type="curve" smooth="yes"/>
      <point x="213" y="268"/>
      <point x="248" y="267"/>
      <point x="269" y="267" type="curve" smooth="yes"/>
      <point x="297" y="267"/>
      <point x="314" y="267"/>
      <point x="342" y="269" type="curve" smooth="yes"/>
      <point x="344" y="269"/>
      <point x="346" y="273"/>
      <point x="346" y="273" type="curve"/>
    </contour>
  </outline>
</glyph>
<glyph name="Eogonek" format="2">
	<unicode hex="0118"/>
	<advance width="559"/>
	<outline>
		<contour>
			<point x="227" y="-156" type="curve" smooth="yes"/>
			<point x="227" y="-98"/>
			<point x="277" y="-30"/>
			<point x="345" y="-1" type="curve"/>
			<point x="280" y="-1"/>
			<point x="193" y="-2"/>
			<point x="121" y="-2" type="curve" smooth="yes"/>
			<point x="56" y="-2"/>
			<point x="4" y="-3"/>
			<point x="-8" y="-3" type="curve"/>
			<point x="-11" y="3"/>
			<point x="-7" y="26"/>
			<point x="-1" y="33" type="curve"/>
			<point x="11" y="34"/>
			<point x="54" y="37"/>
			<point x="61" y="50" type="curve" smooth="yes"/>
			<point x="72" y="70"/>
			<point x="77" y="100"/>
			<point x="85" y="142" type="curve" smooth="yes"/>
			<point x="155" y="501" type="line" smooth="yes"/>
			<point x="163" y="543"/>
			<point x="170" y="573"/>
			<point x="166" y="593" type="curve" smooth="yes"/>
			<point x="164" y="606"/>
			<point x="122" y="607"/>
			<point x="110" y="608" type="curve"/>
			<point x="107" y="615"/>
			<point x="113" y="639"/>
			<point x="118" y="645" type="curve"/>
			<point x="158" y="642"/>
			<point x="209" y="642"/>
			<point x="247" y="642" type="curve" smooth="yes"/>
			<point x="285" y="642"/>
			<point x="490" y="647"/>
			<point x="544" y="648" type="curve"/>
			<point x="541" y="599"/>
			<point x="542" y="548"/>
			<point x="542" y="504" type="curve"/>
			<point x="539" y="501"/>
			<point x="527" y="499"/>
			<point x="520" y="499" type="curve" smooth="yes"/>
			<point x="513" y="499"/>
			<point x="508" y="502"/>
			<point x="507" y="507" type="curve" smooth="yes"/>
			<point x="498" y="561"/>
			<point x="484" y="605"/>
			<point x="428" y="605" type="curve" smooth="yes"/>
			<point x="353" y="605" type="line" smooth="yes"/>
			<point x="332" y="605"/>
			<point x="312" y="605"/>
			<point x="305" y="594" type="curve" smooth="yes"/>
			<point x="298" y="582"/>
			<point x="295" y="562"/>
			<point x="289" y="534" type="curve" smooth="yes"/>
			<point x="255" y="359" type="line" smooth="yes"/>
			<point x="254" y="353"/>
			<point x="272" y="349"/>
			<point x="292" y="349" type="curve" smooth="yes"/>
			<point x="340" y="349" type="line" smooth="yes"/>
			<point x="394" y="349"/>
			<point x="409" y="360"/>
			<point x="434" y="417" type="curve" smooth="yes"/>
			<point x="436" y="422"/>
			<point x="438" y="425"/>
			<point x="445" y="425" type="curve" smooth="yes"/>
			<point x="452" y="425"/>
			<point x="460" y="423"/>
			<point x="462" y="420" type="curve"/>
			<point x="426" y="232" type="line"/>
			<point x="424" y="230"/>
			<point x="415" y="229"/>
			<point x="408" y="229" type="curve" smooth="yes"/>
			<point x="401" y="229"/>
			<point x="397" y="231"/>
			<point x="397" y="236" type="curve" smooth="yes"/>
			<point x="395" y="283"/>
			<point x="385" y="292"/>
			<point x="377" y="296" type="curve" smooth="yes"/>
			<point x="367" y="301"/>
			<point x="344" y="303"/>
			<point x="310" y="303" type="curve" smooth="yes"/>
			<point x="285" y="303"/>
			<point x="243" y="301"/>
			<point x="241" y="289" type="curve" smooth="yes"/>
			<point x="212" y="138" type="line" smooth="yes"/>
			<point x="211" y="132"/>
			<point x="200" y="81"/>
			<point x="204" y="61" type="curve" smooth="yes"/>
			<point x="207" y="47"/>
			<point x="236" y="41"/>
			<point x="259" y="41" type="curve" smooth="yes"/>
			<point x="319" y="41" type="line" smooth="yes"/>
			<point x="353" y="41"/>
			<point x="385" y="51"/>
			<point x="410" y="73" type="curve" smooth="yes"/>
			<point x="433" y="94"/>
			<point x="453" y="122"/>
			<point x="477" y="166" type="curve" smooth="yes"/>
			<point x="479" y="170"/>
			<point x="484" y="172"/>
			<point x="491" y="172" type="curve" smooth="yes"/>
			<point x="500" y="172"/>
			<point x="515" y="169"/>
			<point x="517" y="166" type="curve"/>
			<point x="490" y="113"/>
			<point x="451" y="41"/>
			<point x="436" y="-2" type="curve"/>
			<point x="367" y="-2"/>
			<point x="286" y="-67"/>
			<point x="286" y="-119" type="curve" smooth="yes"/>
			<point x="286" y="-142"/>
			<point x="297" y="-152"/>
			<point x="321" y="-152" type="curve" smooth="yes"/>
			<point x="362" y="-152"/>
			<point x="387" y="-122"/>
			<point x="394" y="-117" type="curve"/>
			<point x="401" y="-119"/>
			<point x="399" y="-139"/>
			<point x="397" y="-143" type="curve" smooth="yes"/>
			<point x="375" y="-181"/>
			<point x="326" y="-213"/>
			<point x="285" y="-213" type="curve" smooth="yes"/>
			<point x="247" y="-213"/>
			<point x="227" y="-182"/>
		</contour>
	</outline>
</glyph>
<glyph name="Hbar" format="2">
  <advance width="690"/>
  <unicode hex="0126"/>
  <outline>
    <contour>
      <point x="104" y="504" type="curve"/>
      <point x="128" y="504"/>
      <point x="670" y="504"/>
      <point x="682" y="504" type="curve" smooth="yes"/>
      <point x="685" y="504"/>
      <point x="685" y="500"/>
      <point x="684" y="496" type="curve" smooth="yes"/>
      <point x="683" y="491"/>
      <point x="679" y="474"/>
      <point x="674" y="466" type="curve"/>
      <point x="650" y="466"/>
      <point x="108" y="466"/>
      <point x="96" y="466" type="curve" smooth="yes"/>
      <point x="93" y="466"/>
      <point x="93" y="473"/>
      <point x="94" y="477" type="curve" smooth="yes"/>
      <point x="95" y="482"/>
      <point x="97" y="496"/>
    </contour>
    <component base="H"/>
  </outline>
</glyph>
<glyph name="hbar" format="2">
  <advance width="492"/>
  <unicode hex="0127"/>
  <outline>
    <contour>
      <point x="70" y="543" type="curve"/>
      <point x="97" y="543"/>
      <point x="355" y="543"/>
      <point x="368" y="543" type="curve" smooth="yes"/>
      <point x="372" y="543"/>
      <point x="374" y="539"/>
      <point x="373" y="535" type="curve" smooth="yes"/>
      <point x="372" y="530"/>
      <point x="367" y="512"/>
      <point x="362" y="505" type="curve"/>
      <point x="335" y="505"/>
      <point x="76" y="505"/>
      <point x="63" y="505" type="curve" smooth="yes"/>
      <point x="59" y="505"/>
      <point x="60" y="512"/>
      <point x="61" y="516" type="curve" smooth="yes"/>
      <point x="62" y="521"/>
      <point x="63" y="536"/>
    </contour>
    <component base="h"/>
  </outline>
</glyph>
<glyph name="Iogonek" format="2">
  <advance width="344"/>
  <unicode hex="012E"/>
  <outline>
    <contour>
      <point x="257" y="32" type="curve"/>
      <point x="260" y="25"/>
      <point x="255" y="2"/>
      <point x="250" y="-4" type="curve"/>
      <point x="241" y="-4"/>
      <point x="210" y="-3"/>
      <point x="187" y="-6" type="curve" smooth="yes"/>
      <point x="137" y="-12"/>
      <point x="71" y="-67"/>
      <point x="71" y="-119" type="curve" smooth="yes"/>
      <point x="71" y="-142"/>
      <point x="82" y="-152"/>
      <point x="106" y="-152" type="curve" smooth="yes"/>
      <point x="147" y="-152"/>
      <point x="172" y="-122"/>
      <point x="179" y="-117" type="curve"/>
      <point x="186" y="-119"/>
      <point x="184" y="-139"/>
      <point x="182" y="-143" type="curve" smooth="yes"/>
      <point x="160" y="-181"/>
      <point x="111" y="-213"/>
      <point x="70" y="-213" type="curve" smooth="yes"/>
      <point x="32" y="-213"/>
      <point x="12" y="-182"/>
      <point x="12" y="-156" type="curve" smooth="yes"/>
      <point x="12" y="-80"/>
      <point x="90" y="-15"/>
      <point x="126" y="4" type="curve"/>
      <point x="89" y="4"/>
      <point x="24" y="0"/>
      <point x="-9" y="-4" type="curve"/>
      <point x="-12" y="2"/>
      <point x="-7" y="25"/>
      <point x="-1" y="32" type="curve"/>
      <point x="11" y="33"/>
      <point x="53" y="37"/>
      <point x="60" y="50" type="curve" smooth="yes"/>
      <point x="71" y="70"/>
      <point x="77" y="100"/>
      <point x="85" y="142" type="curve" smooth="yes"/>
      <point x="155" y="501" type="line" smooth="yes"/>
      <point x="163" y="543"/>
      <point x="170" y="573"/>
      <point x="166" y="593" type="curve" smooth="yes"/>
      <point x="164" y="606"/>
      <point x="123" y="609"/>
      <point x="111" y="610" type="curve"/>
      <point x="108" y="617"/>
      <point x="113" y="640"/>
      <point x="118" y="646" type="curve"/>
      <point x="152" y="642"/>
      <point x="209" y="640"/>
      <point x="247" y="640" type="curve" smooth="yes"/>
      <point x="285" y="640"/>
      <point x="340" y="642"/>
      <point x="376" y="646" type="curve"/>
      <point x="379" y="640"/>
      <point x="375" y="617"/>
      <point x="369" y="610" type="curve"/>
      <point x="357" y="609"/>
      <point x="315" y="606"/>
      <point x="308" y="593" type="curve" smooth="yes"/>
      <point x="297" y="573"/>
      <point x="290" y="543"/>
      <point x="282" y="501" type="curve" smooth="yes"/>
      <point x="213" y="142" type="line" smooth="yes"/>
      <point x="205" y="100"/>
      <point x="198" y="70"/>
      <point x="202" y="50" type="curve" smooth="yes"/>
      <point x="204" y="37"/>
      <point x="245" y="33"/>
    </contour>
  </outline>
</glyph>
<glyph name="iogonek" format="2">
	<unicode hex="012F"/>
	<advance width="303"/>
	<outline>
		<contour>
			<point x="209" y="671" type="curve" smooth="yes"/>
			<point x="242" y="671"/>
			<point x="266" y="644"/>
			<point x="266" y="610" type="curve" smooth="yes"/>
			<point x="266" y="567"/>
			<point x="230" y="527"/>
			<point x="189" y="527" type="curve" smooth="yes"/>
			<point x="156" y="527"/>
			<point x="133" y="555"/>
			<point x="133" y="589" type="curve" smooth="yes"/>
			<point x="133" y="632"/>
			<point x="168" y="671"/>
		</contour>
		<contour>
			<point x="276" y="109" type="curve"/>
			<point x="266" y="90"/>
			<point x="229" y="54"/>
			<point x="196" y="26" type="curve" smooth="yes"/>
			<point x="141" y="-21"/>
			<point x="80" y="-68"/>
			<point x="80" y="-119" type="curve" smooth="yes"/>
			<point x="80" y="-142"/>
			<point x="91" y="-152"/>
			<point x="115" y="-152" type="curve" smooth="yes"/>
			<point x="156" y="-152"/>
			<point x="181" y="-122"/>
			<point x="188" y="-117" type="curve"/>
			<point x="195" y="-119"/>
			<point x="192" y="-139"/>
			<point x="190" y="-143" type="curve" smooth="yes"/>
			<point x="168" y="-181"/>
			<point x="120" y="-213"/>
			<point x="79" y="-213" type="curve" smooth="yes"/>
			<point x="41" y="-213"/>
			<point x="21" y="-182"/>
			<point x="21" y="-156" type="curve" smooth="yes"/>
			<point x="21" y="-94"/>
			<point x="70" y="-51"/>
			<point x="111" y="-7" type="curve"/>
			<point x="83" y="-3"/>
			<point x="60" y="17"/>
			<point x="60" y="62" type="curve" smooth="yes"/>
			<point x="60" y="76"/>
			<point x="66" y="112"/>
			<point x="68" y="120" type="curve" smooth="yes"/>
			<point x="104" y="302" type="line" smooth="yes"/>
			<point x="105" y="306"/>
			<point x="109" y="329"/>
			<point x="109" y="334" type="curve" smooth="yes"/>
			<point x="109" y="343"/>
			<point x="105" y="354"/>
			<point x="95" y="354" type="curve" smooth="yes"/>
			<point x="74" y="354"/>
			<point x="28" y="301"/>
			<point x="25" y="295" type="curve"/>
			<point x="18" y="295"/>
			<point x="12" y="315"/>
			<point x="12" y="321" type="curve"/>
			<point x="29" y="352"/>
			<point x="110" y="438"/>
			<point x="163" y="438" type="curve" smooth="yes"/>
			<point x="202" y="438"/>
			<point x="229" y="414"/>
			<point x="229" y="369" type="curve" smooth="yes"/>
			<point x="229" y="355"/>
			<point x="222" y="321"/>
			<point x="220" y="311" type="curve" smooth="yes"/>
			<point x="184" y="129" type="line" smooth="yes"/>
			<point x="183" y="125"/>
			<point x="180" y="102"/>
			<point x="180" y="97" type="curve" smooth="yes"/>
			<point x="180" y="88"/>
			<point x="183" y="76"/>
			<point x="193" y="76" type="curve" smooth="yes"/>
			<point x="214" y="76"/>
			<point x="260" y="130"/>
			<point x="263" y="136" type="curve"/>
			<point x="270" y="136"/>
			<point x="276" y="115"/>
		</contour>
	</outline>
</glyph>
<glyph name="idotless" format="2">
  <advance width="302"/>
  <unicode hex="0131"/>
  <outline>
    <contour>
      <point x="104" y="302" type="line" smooth="yes"/>
      <point x="105" y="306"/>
      <point x="108" y="329"/>
      <point x="108" y="334" type="curve" smooth="yes"/>
      <point x="108" y="343"/>
      <point x="104" y="354"/>
      <point x="94" y="354" type="curve" smooth="yes"/>
      <point x="73" y="354"/>
      <point x="27" y="301"/>
      <point x="24" y="295" type="curve"/>
      <point x="17" y="295"/>
      <point x="11" y="315"/>
      <point x="11" y="321" type="curve"/>
      <point x="28" y="352"/>
      <point x="109" y="438"/>
      <point x="162" y="438" type="curve" smooth="yes"/>
      <point x="201" y="438"/>
      <point x="228" y="414"/>
      <point x="228" y="369" type="curve" smooth="yes"/>
      <point x="228" y="355"/>
      <point x="221" y="321"/>
      <point x="219" y="311" type="curve" smooth="yes"/>
      <point x="183" y="129" type="line" smooth="yes"/>
      <point x="182" y="125"/>
      <point x="179" y="102"/>
      <point x="179" y="97" type="curve" smooth="yes"/>
      <point x="179" y="88"/>
      <point x="182" y="76"/>
      <point x="192" y="76" type="curve" smooth="yes"/>
      <point x="213" y="76"/>
      <point x="259" y="130"/>
      <point x="262" y="136" type="curve"/>
      <point x="269" y="136"/>
      <point x="275" y="115"/>
      <point x="275" y="109" type="curve"/>
      <point x="258" y="78"/>
      <point x="173" y="-8"/>
      <point x="120" y="-8" type="curve" smooth="yes"/>
      <point x="88" y="-8"/>
      <point x="59" y="12"/>
      <point x="59" y="62" type="curve" smooth="yes"/>
      <point x="59" y="76"/>
      <point x="65" y="112"/>
      <point x="67" y="120" type="curve"/>
    </contour>
  </outline>
</glyph>
<glyph name="kgreenlandic" format="2">
	<unicode hex="0138"/>
	<advance width="522"/>
	<outline>
		<contour>
			<point x="104" y="302" type="curve" smooth="yes"/>
			<point x="105" y="306"/>
			<point x="108" y="329"/>
			<point x="108" y="334" type="curve" smooth="yes"/>
			<point x="108" y="343"/>
			<point x="104" y="354"/>
			<point x="94" y="354" type="curve" smooth="yes"/>
			<point x="73" y="354"/>
			<point x="27" y="301"/>
			<point x="24" y="295" type="curve"/>
			<point x="17" y="295"/>
			<point x="11" y="315"/>
			<point x="11" y="321" type="curve"/>
			<point x="28" y="352"/>
			<point x="109" y="438"/>
			<point x="162" y="438" type="curve" smooth="yes"/>
			<point x="201" y="438"/>
			<point x="228" y="414"/>
			<point x="228" y="369" type="curve" smooth="yes"/>
			<point x="228" y="357"/>
			<point x="226" y="350"/>
			<point x="225" y="340" type="curve" smooth="yes"/>
			<point x="225" y="338"/>
			<point x="225" y="335"/>
			<point x="225" y="333" type="curve"/>
			<point x="237" y="358"/>
			<point x="316" y="438"/>
			<point x="398" y="438" type="curve" smooth="yes"/>
			<point x="455" y="438"/>
			<point x="479" y="413"/>
			<point x="479" y="368" type="curve" smooth="yes"/>
			<point x="479" y="304"/>
			<point x="384" y="249"/>
			<point x="311" y="225" type="curve"/>
			<point x="328" y="178"/>
			<point x="370" y="80"/>
			<point x="412" y="80" type="curve" smooth="yes"/>
			<point x="435" y="80"/>
			<point x="471" y="124"/>
			<point x="479" y="135" type="curve"/>
			<point x="489" y="135"/>
			<point x="492" y="114"/>
			<point x="492" y="109" type="curve"/>
			<point x="482" y="83"/>
			<point x="404" y="-4"/>
			<point x="345" y="-4" type="curve" smooth="yes"/>
			<point x="270" y="-4"/>
			<point x="219" y="134"/>
			<point x="198" y="203" type="curve"/>
			<point x="183" y="130"/>
			<point x="158" y="0"/>
			<point x="158" y="0" type="curve"/>
			<point x="148" y="-3"/>
			<point x="115" y="-6"/>
			<point x="104" y="-6" type="curve" smooth="yes"/>
			<point x="93" y="-6"/>
			<point x="58" y="-3"/>
			<point x="46" y="0" type="curve"/>
			<point x="52" y="30"/>
			<point x="104" y="302"/>
		</contour>
		<contour>
			<point x="325" y="365" type="curve" smooth="yes"/>
			<point x="267" y="365"/>
			<point x="206" y="265"/>
			<point x="206" y="242" type="curve"/>
			<point x="267" y="242"/>
			<point x="353" y="281"/>
			<point x="353" y="334" type="curve" smooth="yes"/>
			<point x="353" y="344"/>
			<point x="347" y="365"/>
		</contour>
	</outline>
</glyph>
<glyph name="lslash" format="2">
  <advance width="278"/>
  <unicode hex="0142"/>
  <outline>
    <contour>
      <point x="32" y="283" type="curve" smooth="yes"/>
      <point x="261" y="429" type="line"/>
      <point x="264" y="424"/>
      <point x="274" y="403"/>
      <point x="269" y="400" type="curve" smooth="yes"/>
      <point x="39" y="254" type="line"/>
      <point x="35" y="260"/>
      <point x="27" y="280"/>
    </contour>
    <component base="l" xOffset="20"/>
  </outline>
</glyph>
<glyph name="Eng" format="2">
  <advance width="697"/>
  <unicode hex="014A"/>
  <outline>
    <contour>
      <point x="467" y="67" type="curve"/>
      <point x="220" y="507" type="line"/>
      <point x="152" y="153" type="line" smooth="yes"/>
      <point x="145" y="118"/>
      <point x="141" y="73"/>
      <point x="143" y="59" type="curve" smooth="yes"/>
      <point x="146" y="40"/>
      <point x="206" y="33"/>
      <point x="213" y="33" type="curve"/>
      <point x="217" y="23"/>
      <point x="211" y="2"/>
      <point x="208" y="-4" type="curve"/>
      <point x="172" y="-2"/>
      <point x="134" y="4"/>
      <point x="94" y="4" type="curve" smooth="yes"/>
      <point x="52" y="4"/>
      <point x="24" y="-2"/>
      <point x="-18" y="-4" type="curve"/>
      <point x="-21" y="5"/>
      <point x="-12" y="32"/>
      <point x="-10" y="32" type="curve" smooth="yes"/>
      <point x="1" y="32"/>
      <point x="56" y="40"/>
      <point x="67" y="58" type="curve" smooth="yes"/>
      <point x="76" y="73"/>
      <point x="90" y="119"/>
      <point x="97" y="156" type="curve" smooth="yes"/>
      <point x="121" y="284"/>
      <point x="141" y="374"/>
      <point x="165" y="502" type="curve" smooth="yes"/>
      <point x="170" y="529"/>
      <point x="173" y="571"/>
      <point x="165" y="590" type="curve" smooth="yes"/>
      <point x="159" y="603"/>
      <point x="120" y="610"/>
      <point x="109" y="610" type="curve" smooth="yes"/>
      <point x="104" y="610"/>
      <point x="108" y="641"/>
      <point x="114" y="646" type="curve"/>
      <point x="141" y="644"/>
      <point x="173" y="640"/>
      <point x="215" y="640" type="curve" smooth="yes"/>
      <point x="247" y="640"/>
      <point x="286" y="642"/>
      <point x="316" y="646" type="curve"/>
      <point x="336" y="570"/>
      <point x="446" y="391"/>
      <point x="529" y="242" type="curve"/>
      <point x="532" y="249"/>
      <point x="536" y="268"/>
      <point x="539" y="282" type="curve" smooth="yes"/>
      <point x="574" y="465" type="line" smooth="yes"/>
      <point x="581" y="502"/>
      <point x="592" y="575"/>
      <point x="588" y="590" type="curve" smooth="yes"/>
      <point x="584" y="608"/>
      <point x="530" y="611"/>
      <point x="519" y="611" type="curve" smooth="yes"/>
      <point x="517" y="611"/>
      <point x="520" y="638"/>
      <point x="526" y="647" type="curve"/>
      <point x="567" y="645"/>
      <point x="593" y="640"/>
      <point x="635" y="640" type="curve" smooth="yes"/>
      <point x="675" y="640"/>
      <point x="715" y="645"/>
      <point x="752" y="647" type="curve"/>
      <point x="753" y="641"/>
      <point x="750" y="620"/>
      <point x="742" y="610" type="curve"/>
      <point x="735" y="610"/>
      <point x="675" y="609"/>
      <point x="663" y="588" type="curve" smooth="yes"/>
      <point x="656" y="574"/>
      <point x="636" y="503"/>
      <point x="629" y="468" type="curve" smooth="yes"/>
      <point x="565" y="136" type="line" smooth="yes"/>
      <point x="521" y="-87"/>
      <point x="321" y="-195"/>
      <point x="263" y="-213" type="curve"/>
      <point x="258" y="-210"/>
      <point x="253" y="-200"/>
      <point x="253" y="-195" type="curve" smooth="yes"/>
      <point x="253" y="-192"/>
      <point x="253" y="-190"/>
      <point x="254" y="-189" type="curve" smooth="yes"/>
      <point x="343" y="-141"/>
      <point x="427" y="-62"/>
    </contour>
  </outline>
</glyph>
